<svg width="207" height="120" viewBox="0 0 207 120" fill="none" xmlns="http://www.w3.org/2000/svg">
<path fill-rule="evenodd" clip-rule="evenodd" d="M98.2964 0.145474C94.6926 0.334122 89.4744 0.992741 85.4212 1.77042C83.1465 2.20675 80.8461 2.63054 80.3092 2.71201C79.772 2.7938 79.11 2.91978 78.8379 2.99201C78.5659 3.06424 77.898 3.23738 77.3538 3.37656C73.5548 4.34816 65.1616 7.55847 61.3583 9.49475C60.3607 10.0026 58.246 11.0478 56.6586 11.8176C55.0716 12.5873 53.7729 13.3436 53.7729 13.4986C53.7729 13.6536 53.6294 13.7802 53.4539 13.7802C53.0668 13.7802 47.7896 17.3705 43.6819 20.4287C37.9551 24.6924 29.3311 33.6766 24.8959 39.9996C24.0054 41.2694 23.0144 42.5958 22.6941 42.9477C22.3739 43.2993 22.1117 43.7815 22.1117 44.0196C22.1117 44.2574 21.9732 44.452 21.804 44.452C21.6348 44.452 21.395 44.7857 21.2714 45.194C21.1474 45.6023 20.3799 47.0429 19.5653 48.3958C17.7474 51.4161 13.8666 59.3208 13.8666 60.0035C13.8666 60.2779 13.7634 60.6058 13.6371 60.7317C13.5111 60.8581 13.3772 61.1707 13.3396 61.427C13.302 61.6829 12.6632 63.6667 11.9198 65.8348C10.3819 70.3221 10.2962 71.1766 11.2506 72.517C11.9112 73.4444 12.0204 73.4747 14.7135 73.4747C17.939 73.4747 18.5379 73.1096 19.1507 70.7713C20.1312 67.0297 21.9857 62.0704 23.6898 58.6335C25.9509 54.073 30.3683 46.5835 32.1793 44.2392C37.904 36.8282 45.7405 28.9284 50.0906 26.1822C50.7881 25.7419 51.6018 25.1387 51.8986 24.8418C52.7712 23.9692 59.6895 19.6415 62.0183 18.5119C72.139 13.6011 78.8211 11.1457 84.2797 10.3315C85.0053 10.2233 87.3057 9.84665 89.3917 9.49442C99.2977 7.82166 110.321 8.00502 120.393 10.0099C120.847 10.1003 121.811 10.249 122.537 10.341C126.197 10.8037 135.473 14.0579 140.924 16.791C142.692 17.6778 144.139 18.3137 144.139 18.2042C144.139 17.7534 150.747 21.9501 156.186 25.8553C159.559 28.2774 166.179 34.2567 169.106 37.5261C171.907 40.6546 179.695 51.398 179.428 51.7647C179.385 51.8241 179.652 52.392 180.021 53.0269C182.997 58.1385 186.763 66.7866 187.341 69.8347C187.944 73.0126 188.575 73.4747 192.312 73.4747C196.057 73.4747 196.594 72.2986 195.265 67.0063C194.6 64.3599 193.755 61.9603 192.55 59.2931C190.53 54.8253 188.868 51.3897 188.086 50.0669C187.601 49.246 187.173 48.3816 187.136 48.1458C187.098 47.91 186.875 47.4862 186.641 47.2038C186.08 46.5271 185.426 45.4173 185.166 44.6993C185.052 44.382 184.827 44.1222 184.666 44.1222C184.506 44.1222 184.375 43.9787 184.375 43.8032C184.375 43.328 179.453 36.7487 176.886 33.7921C171.37 27.44 164.538 21.2071 159.197 17.6534C157.354 16.4282 155.558 15.1799 155.204 14.8798C154.46 14.2479 148.702 10.8882 147.848 10.5874C147.531 10.4759 146.085 9.83643 144.634 9.16594C136.915 5.60043 130.059 3.18264 126.33 2.71069C125.513 2.60713 124.4 2.38781 123.856 2.22323C121.987 1.65696 114.616 0.621047 110.004 0.276402C105.679 -0.0471352 102.623 -0.081101 98.2964 0.145474ZM11.0633 77.5369C8.1831 78.5052 7.02483 79.2149 4.75281 81.4032C2.56489 83.5106 1.60813 85.1079 0.676105 88.2093C0.0125394 90.4194 -0.027696 91.1429 0.0748729 99.0929L0.184368 107.609L1.17147 109.894C2.56588 113.121 6.25177 116.928 9.32389 118.315C12.7446 119.86 15.4866 120.217 18.845 119.555C20.3581 119.257 22.4972 118.556 23.5981 117.997L25.5994 116.981L27.566 117.893C29.2714 118.684 29.9482 118.806 32.6654 118.814L35.7986 118.823V114.384V109.945L34.6868 109.718C34.0757 109.593 33.2594 109.175 32.8729 108.788C32.1852 108.101 32.1674 107.81 32.0058 94.6075C31.8106 78.6513 32.0566 79.6133 28.2174 79.7835C26.0529 79.8795 25.7155 79.7931 22.96 78.4376C20.1662 77.0633 19.845 76.9832 16.6937 76.875C13.8821 76.7783 13.0174 76.8799 11.0633 77.5369ZM107.77 77.5755C102.434 79.4587 99.0955 82.9453 97.5088 88.2934C97.081 89.7347 96.9772 91.7175 96.9772 98.4451C96.9772 105.984 97.0431 107.002 97.649 108.8C99.4045 114.012 103.47 117.824 108.843 119.3C112.871 120.405 115.709 120.105 120.055 118.113L122.519 116.984L124.106 117.848C125.39 118.546 126.299 118.748 128.847 118.9C131.347 119.049 132.061 118.993 132.293 118.626C132.454 118.371 132.588 116.438 132.591 114.328C132.596 110.242 132.506 109.992 130.886 109.585C129.056 109.125 128.968 108.44 128.968 94.5983C128.968 79.0725 129.123 79.5988 124.601 79.7812C122.815 79.8534 122.293 79.7268 120.723 78.8406C116.75 76.5976 111.886 76.1227 107.77 77.5755ZM137.555 77.4106C137.143 78.1793 137.081 117.939 137.491 118.584C137.693 118.903 138.996 118.983 142.845 118.914L147.932 118.823L148.023 113.628L148.114 108.434H149.036C152.808 108.434 157.139 112.415 157.827 116.514C158.282 119.228 157.758 119.014 163.705 118.913L169.039 118.823L169.141 117.047C169.327 113.775 167.331 108.623 164.796 105.834C162.319 103.108 162.376 103.362 163.849 101.596C166.27 98.6958 167.786 96.0003 168.514 93.3042C169.139 90.986 169.208 89.9698 169.129 84.3091L169.039 77.927L163.972 77.8357C160.515 77.7737 158.759 77.865 158.448 78.1236C158.091 78.4191 157.99 79.7466 157.986 84.1511C157.981 90.2739 157.796 91.2386 156.167 93.6346C154.517 96.0636 152.368 97.4373 149.828 97.6859L148.097 97.8558V87.71C148.097 80.2588 147.992 77.4591 147.701 77.1685C147.43 76.8977 145.82 76.7727 142.601 76.7727C138.287 76.7727 137.868 76.8258 137.555 77.4106ZM188.115 77.123C184.328 77.7806 181.842 79.178 178.84 82.3382C175.26 86.1065 174.479 88.9514 174.487 98.1968C174.495 108.279 175.166 110.601 179.313 114.896C183.094 118.812 187.797 120.416 193.435 119.712C197.792 119.168 201.082 117.311 203.864 113.824C204.9 112.526 206.201 109.469 205.995 108.819C205.752 108.054 199.967 105.842 197.484 105.566C195.955 105.395 195.904 105.418 195.451 106.5C194.393 109.026 191.898 109.993 189.15 108.943C187.383 108.269 186.024 106.278 186.024 104.365V103.157L189.57 103.156C191.52 103.156 196.12 103.058 199.793 102.939L206.472 102.723V96.3786C206.472 90.9817 206.374 89.7179 205.817 87.9145C205.006 85.2896 203.046 82.2257 201.282 80.826C199.796 79.6473 196.696 78.0207 194.929 77.4927C193.164 76.9657 190.008 76.7942 188.115 77.123ZM39.2856 78.2278C39 78.5718 38.9251 82.4595 38.998 93.1514L39.0966 107.609L40.1859 110.133C41.1031 112.258 41.703 113.069 43.9797 115.26C46.0729 117.275 47.2058 118.083 48.9917 118.836C51.1133 119.73 51.6186 119.809 55.257 119.81C59.15 119.812 59.2552 119.792 61.7 118.597C63.0667 117.929 64.4572 117.081 64.7893 116.715C65.3915 116.049 65.3978 116.05 67.3014 117.343C69.9151 119.118 71.5714 119.659 75.0452 119.874C78.8238 120.108 81.5394 119.454 84.3256 117.639C86.8093 116.02 89.8006 112.941 90.5734 111.207C90.889 110.498 91.3715 109.399 91.6459 108.764C92.3737 107.078 92.6211 78.7192 91.913 78.1319C91.5895 77.8631 89.8953 77.7724 86.3789 77.8357L81.3115 77.927L81.1466 91.9437C80.9843 105.742 80.9701 105.979 80.2446 107.134C78.8449 109.361 75.658 110.094 73.5275 108.679C72.911 108.269 72.073 107.273 71.6647 106.465C70.9375 105.025 70.9227 104.767 70.9227 93.4902C70.9227 80.7122 70.9167 80.6727 68.7183 78.7427C67.5808 77.744 67.5643 77.7407 64.0555 77.8337L60.5338 77.927L60.3689 91.7788C60.2116 104.998 60.173 105.683 59.5266 106.784C57.9419 109.481 54.6656 110.273 52.3577 108.516C51.7024 108.018 51.048 107.387 50.9036 107.115C50.7591 106.843 50.5665 100.27 50.4755 92.5087C50.334 80.4474 50.238 78.3518 49.8152 78.0847C49.5431 77.9129 47.1497 77.7701 44.4961 77.7671C40.74 77.7631 39.5867 77.865 39.2856 78.2278ZM18.0881 87.7918C18.5779 88.0477 19.4238 88.7248 19.968 89.2967L20.9574 90.3366L21.0629 97.4887C21.1797 105.416 20.9953 106.608 19.4525 107.906C17.071 109.91 14.2271 109.761 12.3825 107.535L11.3931 106.341V98.175V90.0087L12.3825 88.9633C12.9267 88.3881 13.6687 87.7938 14.0315 87.6427C15.0743 87.2087 17.1155 87.2836 18.0881 87.7918ZM115.116 87.9043C115.867 88.2793 116.534 88.9992 117.025 89.9649C117.753 91.3976 117.776 91.701 117.685 98.7297C117.592 105.879 117.575 106.033 116.765 107.223C115.749 108.718 113.698 109.602 111.99 109.281C110.426 108.988 108.617 107.351 108.2 105.851C107.837 104.543 107.729 92.3537 108.066 90.6703C108.283 89.5826 109.566 88.0853 110.664 87.6375C111.796 87.1757 113.912 87.3027 115.116 87.9043ZM192.411 87.7816C193.01 88.0319 193.896 88.6321 194.379 89.1156C195.15 89.8864 195.259 90.2574 195.259 92.1235V94.2523L191.301 94.3074C189.124 94.3374 187.084 94.3747 186.766 94.3899C186.272 94.4133 186.189 94.1029 186.189 92.2174C186.189 90.329 186.306 89.8913 187.014 89.1249C188.569 87.4399 190.465 86.9683 192.411 87.7816Z" fill="#BEFAC1"/>
<path fill-rule="evenodd" clip-rule="evenodd" d="M98.2958 0.145166C94.7293 0.332165 89.489 0.98946 85.4334 1.75889C83.166 2.18896 80.9181 2.60847 80.4382 2.69059C74.0331 3.78917 60.0059 9.50961 53.4425 13.7001C45.5875 18.7151 41.4191 21.9627 35.9174 27.3536C27.2168 35.8791 21.4875 43.8554 16.174 54.8405C14.1154 59.0963 10.568 69.1695 10.568 70.7591C10.568 71.3317 10.8994 72.0866 11.3767 72.6017C12.1194 73.4032 12.3977 73.4744 14.7822 73.4744C18.136 73.4744 18.3138 73.2772 20.129 67.5379C21.7526 62.4035 24.4046 56.7385 28.0657 50.5834C38.0327 33.8257 53.6509 20.9413 72.8208 13.6618C77.9601 11.7101 81.8979 10.6814 88.0719 9.67781C98.5151 7.97998 107.61 7.91501 117.26 9.46905C119.436 9.81963 121.811 10.2012 122.536 10.3173C127.209 11.064 135.663 14.1074 143.58 17.8926C147.152 19.6006 155.048 24.7676 159.145 28.0776C165.473 33.1908 171.385 39.7602 177.241 48.188C180.65 53.0929 186.537 65.7161 187.384 69.9372C187.972 72.8613 188.484 73.2815 191.632 73.4246C194.063 73.5347 194.39 73.4757 195.116 72.7933C196.12 71.8504 196.16 70.4023 195.274 67.1197C194.035 62.5312 193.552 61.3155 190.264 54.5107C185.834 45.3421 181.976 39.4901 175.821 32.5995C165.083 20.5791 152.875 12.1332 137.542 6.11758C126.499 1.78462 111.262 -0.5339 98.2958 0.145166ZM11.033 77.5597C5.5055 79.3505 1.56434 83.8019 0.304164 89.677C0.102984 90.615 0.00767012 94.6145 0.0713222 99.4379L0.179169 107.609L1.38658 110.137C3.85384 115.304 8.52057 118.854 13.9564 119.699C16.9349 120.162 20.6033 119.512 23.6078 117.99L25.5988 116.981L27.5654 117.884C29.9163 118.964 35.1456 119.437 35.6651 118.617C35.8234 118.367 35.955 116.449 35.9579 114.354C35.9629 110.436 35.7607 109.753 34.5962 109.753C34.2796 109.753 33.6044 109.395 33.0956 108.957L32.1701 108.162L32.0052 94.6448C31.81 78.6289 32.054 79.5843 28.2141 79.8126C26.1024 79.9382 25.7337 79.8581 23.925 78.8832C19.7105 76.6108 15.3445 76.1626 11.033 77.5597ZM107.769 77.5752C102.433 79.4584 99.0949 82.945 97.5082 88.2931C97.0805 89.7344 96.9766 91.7172 96.9766 98.4448C96.9766 105.996 97.0419 106.999 97.6513 108.809C98.4709 111.241 98.9244 111.988 101.127 114.535C103.335 117.087 105.715 118.496 109.325 119.387C111.936 120.032 112.472 120.064 114.852 119.717C116.588 119.464 118.326 118.93 119.942 118.152L122.396 116.972L124.204 117.856C126.399 118.931 131.776 119.44 132.294 118.623C132.454 118.37 132.587 116.437 132.59 114.328C132.596 110.217 132.513 109.993 130.827 109.57C129.053 109.125 128.968 108.436 128.968 94.5759C128.968 79.0751 129.122 79.5985 124.6 79.7809C122.807 79.8531 122.299 79.7285 120.722 78.8294C116.89 76.6431 111.805 76.1507 107.769 77.5752ZM137.554 77.4103C137.143 78.179 137.081 117.939 137.49 118.584C137.692 118.903 138.996 118.983 142.844 118.914L147.931 118.822L148.022 113.628L148.113 108.434H149.035C152.964 108.434 157.287 112.545 157.876 116.842C157.988 117.655 158.264 118.474 158.491 118.663C158.748 118.876 160.818 118.97 163.971 118.914L169.039 118.822L169.14 117.047C169.326 113.78 167.437 108.881 164.857 105.945C162.302 103.037 162.368 103.406 164.041 101.353C166.374 98.4884 167.79 95.9235 168.533 93.2128C169.136 91.016 169.208 89.9507 169.128 84.322L169.039 77.9267L163.971 77.8354C160.515 77.7734 158.758 77.8647 158.447 78.1233C158.09 78.4191 157.99 79.7463 157.99 84.1841C157.99 90.3274 157.821 91.2261 156.224 93.5924C154.606 95.9898 152.387 97.4254 149.817 97.7384L148.096 97.9481V87.7559C148.096 80.2687 147.991 77.4591 147.7 77.1682C147.43 76.8974 145.82 76.7724 142.6 76.7724C138.286 76.7724 137.867 76.8255 137.554 77.4103ZM188.115 77.1253C182.358 78.1157 177.47 82.2363 175.426 87.8212C174.786 89.5718 174.686 90.6272 174.559 96.9812C174.396 105.148 174.681 107.606 176.143 110.623C177.416 113.25 180.952 116.862 183.461 118.099C189.505 121.078 197.177 120.234 201.714 116.092C204.125 113.89 206.373 110.014 205.973 108.751C205.827 108.293 204.685 107.772 201.685 106.796C199.435 106.064 197.294 105.465 196.925 105.465C196.511 105.465 195.956 105.937 195.47 106.702C194.284 108.568 193.527 109.096 191.758 109.291C188.66 109.632 186.024 107.383 186.024 104.399V103.157L189.569 103.156C191.519 103.155 196.12 103.058 199.793 102.939L206.471 102.722V96.3783C206.471 89.1341 206.058 87.0894 203.964 83.9783C200.585 78.9561 194.006 76.1115 188.115 77.1253ZM39.285 78.2275C38.9994 78.5715 38.9245 82.4592 38.9974 93.1511L39.096 107.609L40.0567 109.918C40.8459 111.813 41.5244 112.731 43.8495 115.045C46.1614 117.347 47.1056 118.041 48.9901 118.823C51.0761 119.69 51.6645 119.783 55.0915 119.791C59.372 119.801 61.4966 119.19 64.1073 117.197L65.5149 116.123L66.6521 116.93C67.2774 117.374 68.7536 118.202 69.9327 118.769C71.9652 119.746 72.2822 119.8 76.0512 119.806C80.0121 119.812 80.0349 119.807 82.6473 118.522C85.6923 117.023 89.4887 113.483 90.6377 111.072C92.1832 107.829 92.2848 106.731 92.3362 92.7405C92.3669 84.4008 92.2604 79.1932 92.0473 78.6329L91.7096 77.745L86.5103 77.8361L81.3109 77.9267L81.146 91.9434C80.99 105.211 80.9458 106.019 80.3215 107.063C79.5112 108.418 77.6422 109.423 75.9311 109.423C74.4948 109.423 72.865 108.476 71.7769 107.009C71.113 106.113 71.0807 105.609 70.9221 93.6251L70.7572 81.172L69.8331 79.9613C68.3773 78.0537 67.4334 77.7239 63.7423 77.8324L60.5333 77.9267L60.3684 92.0021C60.2087 105.634 60.1817 106.107 59.5135 107.008C58.3641 108.559 56.8071 109.423 55.1641 109.423C53.5315 109.423 51.7166 108.501 51.0471 107.332C50.748 106.81 50.5953 102.855 50.4742 92.5084C50.3334 80.4468 50.2374 78.3515 49.8146 78.0844C49.5425 77.9126 47.1492 77.7698 44.4956 77.7668C40.7394 77.7628 39.5861 77.8647 39.285 78.2275ZM18.6482 88.0788C20.9502 89.3726 21.1207 90.0833 21.1201 98.3746C21.1191 106.472 20.9782 107.067 18.7336 108.436C16.3227 109.906 13.8901 109.555 12.3258 107.51L11.3925 106.29L11.2972 98.5395C11.2104 91.4886 11.2573 90.6872 11.8173 89.6602C13.054 87.3924 16.1516 86.6751 18.6482 88.0788ZM115.092 87.904C115.714 88.2209 116.531 88.899 116.906 89.4108C117.541 90.2759 117.597 90.8633 117.691 97.8208C117.791 105.168 117.779 105.327 117.005 106.785C116.037 108.608 113.958 109.651 112.016 109.286C110.428 108.988 108.619 107.36 108.2 105.851C107.837 104.543 107.729 92.3534 108.065 90.67C108.283 89.5823 109.566 88.085 110.663 87.6372C111.796 87.1751 113.913 87.3024 115.092 87.904ZM192.785 87.9465C194.695 88.8238 195.179 89.5355 195.44 91.8553C195.621 93.4628 195.573 93.9433 195.218 94.0608C194.968 94.1435 192.797 94.2629 190.393 94.3262L186.024 94.4413V92.5011C186.024 90.0711 186.737 88.7585 188.497 87.9478C190.159 87.183 191.121 87.1827 192.785 87.9465Z" fill="#BEFAC1"/>
<path fill-rule="evenodd" clip-rule="evenodd" d="M98.2958 0.145166C94.7293 0.332165 89.489 0.98946 85.4334 1.75889C83.166 2.18896 80.9181 2.60847 80.4382 2.69059C74.0331 3.78917 60.0059 9.50961 53.4425 13.7001C45.5875 18.7151 41.4191 21.9627 35.9174 27.3536C27.2168 35.8791 21.4875 43.8554 16.174 54.8405C14.1154 59.0963 10.568 69.1695 10.568 70.7591C10.568 71.3317 10.8994 72.0866 11.3767 72.6017C12.1194 73.4032 12.3977 73.4744 14.7822 73.4744C18.136 73.4744 18.3138 73.2772 20.129 67.5379C21.7526 62.4035 24.4046 56.7385 28.0657 50.5834C38.0327 33.8257 53.6509 20.9413 72.8208 13.6618C77.9601 11.7101 81.8979 10.6814 88.0719 9.67781C98.5151 7.97998 107.61 7.91501 117.26 9.46905C119.436 9.81963 121.811 10.2012 122.536 10.3173C127.209 11.064 135.663 14.1074 143.58 17.8926C147.152 19.6006 155.048 24.7676 159.145 28.0776C165.473 33.1908 171.385 39.7602 177.241 48.188C180.65 53.0929 186.537 65.7161 187.384 69.9372C187.972 72.8613 188.484 73.2815 191.632 73.4246C194.063 73.5347 194.39 73.4757 195.116 72.7933C196.12 71.8504 196.16 70.4023 195.274 67.1197C194.035 62.5312 193.552 61.3155 190.264 54.5107C185.834 45.3421 181.976 39.4901 175.821 32.5995C165.083 20.5791 152.875 12.1332 137.542 6.11758C126.499 1.78462 111.262 -0.5339 98.2958 0.145166ZM11.033 77.5597C5.5055 79.3505 1.56434 83.8019 0.304164 89.677C0.102984 90.615 0.00767012 94.6145 0.0713222 99.4379L0.179169 107.609L1.38658 110.137C3.85384 115.304 8.52057 118.854 13.9564 119.699C16.9349 120.162 20.6033 119.512 23.6078 117.99L25.5988 116.981L27.5654 117.884C29.9163 118.964 35.1456 119.437 35.6651 118.617C35.8234 118.367 35.955 116.449 35.9579 114.354C35.9629 110.436 35.7607 109.753 34.5962 109.753C34.2796 109.753 33.6044 109.395 33.0956 108.957L32.1701 108.162L32.0052 94.6448C31.81 78.6289 32.054 79.5843 28.2141 79.8126C26.1024 79.9382 25.7337 79.8581 23.925 78.8832C19.7105 76.6108 15.3445 76.1626 11.033 77.5597ZM107.769 77.5752C102.433 79.4584 99.0949 82.945 97.5082 88.2931C97.0805 89.7344 96.9766 91.7172 96.9766 98.4448C96.9766 105.996 97.0419 106.999 97.6513 108.809C98.4709 111.241 98.9244 111.988 101.127 114.535C103.335 117.087 105.715 118.496 109.325 119.387C111.936 120.032 112.472 120.064 114.852 119.717C116.588 119.464 118.326 118.93 119.942 118.152L122.396 116.972L124.204 117.856C126.399 118.931 131.776 119.44 132.294 118.623C132.454 118.37 132.587 116.437 132.59 114.328C132.596 110.217 132.513 109.993 130.827 109.57C129.053 109.125 128.968 108.436 128.968 94.5759C128.968 79.0751 129.122 79.5985 124.6 79.7809C122.807 79.8531 122.299 79.7285 120.722 78.8294C116.89 76.6431 111.805 76.1507 107.769 77.5752ZM137.554 77.4103C137.143 78.179 137.081 117.939 137.49 118.584C137.692 118.903 138.996 118.983 142.844 118.914L147.931 118.822L148.022 113.628L148.113 108.434H149.035C152.964 108.434 157.287 112.545 157.876 116.842C157.988 117.655 158.264 118.474 158.491 118.663C158.748 118.876 160.818 118.97 163.971 118.914L169.039 118.822L169.14 117.047C169.326 113.78 167.437 108.881 164.857 105.945C162.302 103.037 162.368 103.406 164.041 101.353C166.374 98.4884 167.79 95.9235 168.533 93.2128C169.136 91.016 169.208 89.9507 169.128 84.322L169.039 77.9267L163.971 77.8354C160.515 77.7734 158.758 77.8647 158.447 78.1233C158.09 78.4191 157.99 79.7463 157.99 84.1841C157.99 90.3274 157.821 91.2261 156.224 93.5924C154.606 95.9898 152.387 97.4254 149.817 97.7384L148.096 97.9481V87.7559C148.096 80.2687 147.991 77.4591 147.7 77.1682C147.43 76.8974 145.82 76.7724 142.6 76.7724C138.286 76.7724 137.867 76.8255 137.554 77.4103ZM188.115 77.1253C182.358 78.1157 177.47 82.2363 175.426 87.8212C174.786 89.5718 174.686 90.6272 174.559 96.9812C174.396 105.148 174.681 107.606 176.143 110.623C177.416 113.25 180.952 116.862 183.461 118.099C189.505 121.078 197.177 120.234 201.714 116.092C204.125 113.89 206.373 110.014 205.973 108.751C205.827 108.293 204.685 107.772 201.685 106.796C199.435 106.064 197.294 105.465 196.925 105.465C196.511 105.465 195.956 105.937 195.47 106.702C194.284 108.568 193.527 109.096 191.758 109.291C188.66 109.632 186.024 107.383 186.024 104.399V103.157L189.569 103.156C191.519 103.155 196.12 103.058 199.793 102.939L206.471 102.722V96.3783C206.471 89.1341 206.058 87.0894 203.964 83.9783C200.585 78.9561 194.006 76.1115 188.115 77.1253ZM39.285 78.2275C38.9994 78.5715 38.9245 82.4592 38.9974 93.1511L39.096 107.609L40.0567 109.918C40.8459 111.813 41.5244 112.731 43.8495 115.045C46.1614 117.347 47.1056 118.041 48.9901 118.823C51.0761 119.69 51.6645 119.783 55.0915 119.791C59.372 119.801 61.4966 119.19 64.1073 117.197L65.5149 116.123L66.6521 116.93C67.2774 117.374 68.7536 118.202 69.9327 118.769C71.9652 119.746 72.2822 119.8 76.0512 119.806C80.0121 119.812 80.0349 119.807 82.6473 118.522C85.6923 117.023 89.4887 113.483 90.6377 111.072C92.1832 107.829 92.2848 106.731 92.3362 92.7405C92.3669 84.4008 92.2604 79.1932 92.0473 78.6329L91.7096 77.745L86.5103 77.8361L81.3109 77.9267L81.146 91.9434C80.99 105.211 80.9458 106.019 80.3215 107.063C79.5112 108.418 77.6422 109.423 75.9311 109.423C74.4948 109.423 72.865 108.476 71.7769 107.009C71.113 106.113 71.0807 105.609 70.9221 93.6251L70.7572 81.172L69.8331 79.9613C68.3773 78.0537 67.4334 77.7239 63.7423 77.8324L60.5333 77.9267L60.3684 92.0021C60.2087 105.634 60.1817 106.107 59.5135 107.008C58.3641 108.559 56.8071 109.423 55.1641 109.423C53.5315 109.423 51.7166 108.501 51.0471 107.332C50.748 106.81 50.5953 102.855 50.4742 92.5084C50.3334 80.4468 50.2374 78.3515 49.8146 78.0844C49.5425 77.9126 47.1492 77.7698 44.4956 77.7668C40.7394 77.7628 39.5861 77.8647 39.285 78.2275ZM18.6482 88.0788C20.9502 89.3726 21.1207 90.0833 21.1201 98.3746C21.1191 106.472 20.9782 107.067 18.7336 108.436C16.3227 109.906 13.8901 109.555 12.3258 107.51L11.3925 106.29L11.2972 98.5395C11.2104 91.4886 11.2573 90.6872 11.8173 89.6602C13.054 87.3924 16.1516 86.6751 18.6482 88.0788ZM115.092 87.904C115.714 88.2209 116.531 88.899 116.906 89.4108C117.541 90.2759 117.597 90.8633 117.691 97.8208C117.791 105.168 117.779 105.327 117.005 106.785C116.037 108.608 113.958 109.651 112.016 109.286C110.428 108.988 108.619 107.36 108.2 105.851C107.837 104.543 107.729 92.3534 108.065 90.67C108.283 89.5823 109.566 88.085 110.663 87.6372C111.796 87.1751 113.913 87.3024 115.092 87.904ZM192.785 87.9465C194.695 88.8238 195.179 89.5355 195.44 91.8553C195.621 93.4628 195.573 93.9433 195.218 94.0608C194.968 94.1435 192.797 94.2629 190.393 94.3262L186.024 94.4413V92.5011C186.024 90.0711 186.737 88.7585 188.497 87.9478C190.159 87.183 191.121 87.1827 192.785 87.9465Z" fill="#BEFAC1"/>
<path fill-rule="evenodd" clip-rule="evenodd" d="M98.2963 0.145925C94.7298 0.332924 89.4896 0.99022 85.434 1.75965C83.1666 2.18972 80.9186 2.60923 80.4388 2.69135C75.2064 3.58875 64.5554 7.67765 56.5761 11.8526C54.0261 13.1867 48.2839 17.0058 43.7059 20.4124C39.4339 23.591 29.8241 33.1791 27.4076 36.674C27.1461 37.0523 26.8371 37.4358 26.721 37.5265C26.1969 37.9358 22.4131 43.5771 20.5431 46.7373C17.1448 52.4798 14.3688 58.4753 12.4144 64.2944C11.3993 67.3167 10.5685 70.1069 10.5685 70.4944C10.5685 71.5376 11.4577 73.0692 12.2 73.3046C12.5572 73.4181 13.8896 73.4804 15.161 73.4432C17.0419 73.3884 17.5871 73.2469 18.0861 72.6833C18.4234 72.3027 19.3393 69.9875 20.1209 67.5387C21.5767 62.9791 24.3408 56.8685 26.9248 52.4983C27.7239 51.1461 28.3779 49.972 28.3779 49.8886C28.3779 49.5789 33.0321 42.9264 34.0271 41.814C34.5947 41.1791 35.8433 39.695 36.8014 38.516C39.8907 34.714 44.1425 30.7728 50.8046 25.5359C57.7713 20.0595 71.386 13.4406 80.322 11.1854C84.6342 10.0971 92.8315 8.87154 98.2963 8.4982C103.451 8.14564 110.927 8.43257 115.225 9.14759C116.283 9.32337 117.99 9.5638 119.018 9.68187C120.047 9.79994 120.982 9.95231 121.097 10.0203C121.212 10.0885 121.88 10.227 122.581 10.3283C125.879 10.8045 134.336 13.6296 139.522 15.9877C146.479 19.1509 153.289 23.3466 159.145 28.0783C162.68 30.9348 169.32 37.5127 171.344 40.165C172.244 41.344 173.097 42.4571 173.241 42.6385C174.173 43.8189 175.964 46.3264 177.57 48.7009C181.41 54.3788 186.797 66.3267 187.791 71.3697C187.831 71.5722 188.097 72.0893 188.383 72.5194C188.845 73.2159 189.197 73.3145 191.608 73.424C194.065 73.5358 194.389 73.4775 195.116 72.7941C195.993 71.9703 196.207 69.9904 195.593 68.3761C195.415 67.9061 195.207 67.1914 195.133 66.788C194.979 65.9579 193.736 62.1088 193.298 61.1075C193.14 60.7447 192.593 59.4832 192.084 58.3042C191.254 56.3844 189.167 52.2401 186.685 47.5856C181.416 37.706 169.261 24.4567 159.31 17.7476C157.587 16.5857 155.264 15.0115 154.147 14.2493C148.754 10.5661 133.36 3.9855 127.979 3.06304C127.344 2.9542 125.785 2.63924 124.516 2.36353C116 0.513326 106.547 -0.286118 98.2963 0.145925ZM10.8983 77.6079C6.53138 79.0264 2.4118 83.0035 0.96396 87.1983C0.212338 89.3763 0.179688 89.8469 0.179688 98.5402V107.61L1.37754 110.083C3.43716 114.336 6.67682 117.386 10.6777 118.838C14.981 120.4 19.4148 120.109 23.6083 117.988L25.5993 116.982L27.5659 117.887C29.1332 118.608 30.148 118.82 32.5671 118.929C36.1995 119.092 36.0393 119.334 35.8945 113.911C35.7912 110.049 35.8625 110.198 33.7422 109.413C32.9318 109.113 32.5954 108.73 32.3425 107.819C32.1453 107.11 32.0087 101.493 32.0077 94.05C32.0057 81.6797 31.9945 81.465 31.2954 80.5762C30.6173 79.7141 30.4774 79.6791 28.2447 79.8117C26.0983 79.939 25.7405 79.8621 23.9256 78.8839C19.6566 76.5822 15.3526 76.1607 10.8983 77.6079ZM107.777 77.5838C102.501 79.4116 99.0875 82.9719 97.5087 88.2939C97.081 89.7351 96.9771 91.7179 96.9771 98.4456C96.9771 105.985 97.043 107.002 97.6489 108.8C98.0186 109.897 98.6736 111.354 99.1047 112.037C100.269 113.881 103.201 116.775 104.921 117.777C107.277 119.149 111.231 120.062 113.797 119.826C116.333 119.593 119.594 118.579 121.118 117.551L122.207 116.816L124.139 117.781C125.704 118.562 126.634 118.777 129.037 118.914C131.355 119.046 132.067 118.983 132.294 118.624C132.455 118.371 132.588 116.438 132.591 114.329C132.596 110.217 132.513 109.994 130.827 109.571C129.053 109.125 128.968 108.437 128.968 94.5767C128.968 79.3255 129.073 79.7414 125.214 79.7414C124.268 79.7414 123.315 79.9195 123.098 80.1372C122.838 80.3964 122.702 80.4099 122.702 80.1764C122.702 79.6969 118.289 77.5502 116.436 77.1277C113.86 76.5404 110.237 76.7313 107.777 77.5838ZM137.554 77.411C137.143 78.1798 137.081 117.94 137.491 118.585C137.693 118.903 138.996 118.984 142.845 118.915L147.932 118.823L148.022 113.629L148.114 108.434H149.25C153.193 108.434 157.991 113.411 157.991 117.501C157.991 118.87 158.59 119.011 163.972 118.915L169.039 118.823L169.139 117.073C169.334 113.679 167.324 108.711 164.471 105.536C163.446 104.396 162.608 103.357 162.609 103.227C162.609 103.098 163.068 102.473 163.627 101.838C165.375 99.8565 167.584 96.2188 168.314 94.1209C168.941 92.3182 169.014 91.3716 169.026 85.0183L169.039 77.9275L163.93 77.8361C159.414 77.7553 158.771 77.8104 158.405 78.3114C158.112 78.7128 157.991 80.4822 157.991 84.3725C157.991 90.4277 157.835 91.1859 156.04 93.891C154.625 96.0232 152.351 97.4308 149.822 97.7385L148.097 97.9489V87.7566C148.097 80.2694 147.992 77.4598 147.701 77.169C147.43 76.8982 145.82 76.7732 142.601 76.7732C138.287 76.7732 137.867 76.8263 137.554 77.411ZM188.115 77.1261C182.454 78.1 177.883 81.8878 175.606 87.4918C174.688 89.7506 174.666 89.9604 174.549 97.221C174.373 108.107 175.082 110.612 179.622 115.162C182.015 117.56 184.426 118.838 187.908 119.554C195.447 121.103 202.835 117.361 205.68 110.55C206.52 108.539 206.218 108.263 201.534 106.764C199.203 106.017 197.026 105.459 196.698 105.522C196.369 105.585 195.929 105.979 195.721 106.397C194.428 108.99 191.867 109.981 189.148 108.943C187.306 108.24 186.296 106.857 186.095 104.764L185.94 103.157L189.528 103.157C191.5 103.156 196.12 103.059 199.793 102.939L206.472 102.723V96.379C206.472 89.1349 206.059 87.0901 203.965 83.9791C200.585 78.9568 194.007 76.1123 188.115 77.1261ZM39.3274 78.1584C38.7288 78.757 38.7763 105.35 39.3802 107.61C40.2574 110.894 41.4863 112.908 44.1039 115.353C47.7146 118.725 50.6934 119.957 55.2569 119.966C58.5474 119.972 62.1445 118.771 64.4848 116.885L65.468 116.093L66.8855 117.068C67.6651 117.604 69.1522 118.438 70.1898 118.92C71.9005 119.715 72.4499 119.798 76.0652 119.805L80.0532 119.813L82.6613 118.505C85.7041 116.979 89.5163 113.428 90.6383 111.073C92.1837 107.829 92.2853 106.732 92.3368 92.7413C92.3671 84.4827 92.2599 79.1916 92.0508 78.6422L91.7167 77.7626L86.8439 77.7676C84.1639 77.7705 81.7933 77.8856 81.5759 78.0238C81.2814 78.2111 81.1551 81.8136 81.0812 92.118C80.9912 104.625 80.9252 106.064 80.3975 107.029C79.6505 108.397 77.6437 109.424 75.7189 109.424C74.4644 109.424 74.0102 109.232 72.909 108.237C72.1419 107.544 71.4562 106.549 71.2606 105.846C71.0651 105.141 70.9233 99.9195 70.919 93.2634C70.9117 82.0804 70.8992 81.8627 70.17 80.5758C69.762 79.8555 68.919 78.9232 68.2967 78.5037C67.2713 77.8124 66.8541 77.7497 63.8493 77.8342L60.5338 77.9275L60.3689 92.0029C60.2092 105.634 60.1822 106.108 59.514 107.009C57.739 109.403 54.8229 110.127 52.567 108.732C50.456 107.427 50.4748 107.572 50.4748 92.6935C50.4748 81.0405 50.4058 79.13 49.9613 78.4958C49.4702 77.7946 49.2364 77.7626 44.5855 77.7626C41.2436 77.7626 39.5995 77.8863 39.3274 78.1584ZM18.4548 87.9199C19.0735 88.2286 19.8898 88.9001 20.2687 89.4123C20.923 90.2971 20.9573 90.7466 20.9573 98.4248V106.506L19.7493 107.613C17.2144 109.936 14.1541 109.9 12.3376 107.525L11.393 106.291L11.2977 98.5402C11.211 91.4894 11.2578 90.6879 11.8178 89.6609C12.9919 87.5083 16.031 86.7108 18.4548 87.9199ZM115.707 88.2032C117.576 89.5729 117.754 90.4399 117.754 98.1887C117.755 104.743 117.703 105.364 117.048 106.719C116.316 108.23 114.514 109.401 112.897 109.417C111.51 109.43 109.683 108.438 108.85 107.218C108.035 106.024 108.025 105.925 107.946 98.255C107.877 91.4986 107.937 90.3908 108.415 89.6553C108.961 88.814 109.857 88.0393 110.818 87.5795C111.751 87.133 114.773 87.5182 115.707 88.2032ZM192.785 87.9473C194.695 88.8246 195.179 89.5363 195.441 91.8561C195.622 93.4639 195.574 93.9434 195.218 94.0589C194.968 94.14 192.798 94.2666 190.394 94.3405L186.024 94.4747V92.5065C186.024 89.7417 186.971 88.3167 189.322 87.5419C190.312 87.2161 191.494 87.3543 192.785 87.9473Z" fill="#BEFAC1"/>
<path fill-rule="evenodd" clip-rule="evenodd" d="M98.4614 0.12368C91.0362 0.677421 82.5579 2.06062 76.3645 3.72909C70.1856 5.39328 59.1798 10.1906 53.4431 13.7202C41.9122 20.8146 32.0079 30.0567 24.1843 41.0226C22.1095 43.9309 17.48 51.9454 15.7654 55.597C14.3103 58.6968 10.5687 69.422 10.5687 70.4939C10.5687 71.6505 11.5122 73.1211 12.3971 73.3431C14.0224 73.7511 17.4658 73.3236 18.1073 72.6343C18.4368 72.2805 19.3424 69.9873 20.1201 67.5389C23.1437 58.0171 28.6877 48.1738 35.8161 39.6701C45.8514 27.6992 58.0165 19.2134 73.3963 13.456C78.6688 11.4825 81.5451 10.7397 88.0597 9.67084C99.4715 7.79788 108.966 7.90045 121.218 10.0293C130.579 11.6556 142.776 16.729 151.77 22.7367C162.172 29.6856 168.929 36.3091 176.205 46.69C180.491 52.8046 185.448 62.9741 187.331 69.5174C188.3 72.883 188.989 73.475 191.935 73.475C195.728 73.475 196.728 71.8788 195.459 67.8446C195.206 67.0415 194.7 65.4196 194.334 64.2405C192.746 59.1285 187.745 48.8895 184.266 43.6278C181.15 38.9149 176.975 33.7541 172.832 29.492C168.895 25.4421 163.352 20.5329 160.464 18.5389C150.861 11.9072 143.287 8.01819 133.493 4.68981C129.77 3.42469 120.627 1.47521 115.116 0.771411C111.268 0.280004 101.472 -0.100916 98.4614 0.12368ZM11.5399 77.3947C5.79112 79.2344 1.50433 83.8849 0.326267 89.5595C0.0911167 90.6917 -0.0028764 94.3038 0.0680314 99.4751L0.179834 107.61L1.25137 109.872C3.17445 113.932 6.61562 117.331 10.1557 118.666C14.7456 120.397 18.7455 120.229 23.1467 118.12L25.5345 116.975L27.5334 117.878C30.0017 118.994 34.8726 119.41 35.5734 118.566C35.8636 118.216 35.9576 116.927 35.892 114.194C35.7914 110.02 35.8732 110.202 33.7423 109.413C32.932 109.113 32.5956 108.73 32.3426 107.819C32.1454 107.109 32.0089 101.493 32.0079 94.0498C32.0059 81.6795 31.9947 81.4648 31.2955 80.576C30.6174 79.7139 30.4776 79.6789 28.2448 79.8115C26.0984 79.9388 25.7406 79.862 23.9257 78.8838C22.8374 78.2967 21.1408 77.5821 20.1554 77.2948C17.8003 76.6088 13.8532 76.6546 11.5399 77.3947ZM108.748 77.2473C103.272 78.8241 99.21 82.7534 97.6032 88.0286C96.9927 90.0328 96.9459 90.9549 97.0399 99.0958L97.1421 107.976L98.3865 110.493C101.365 116.515 107.949 120.462 113.962 119.829C116.397 119.572 119.663 118.532 121.118 117.551L122.207 116.816L124.128 117.775C125.632 118.526 126.651 118.772 128.821 118.907C132.62 119.144 132.596 119.173 132.596 114.371C132.596 110.216 132.55 110.092 130.782 109.524C129.008 108.955 128.978 108.712 128.973 94.8133C128.967 79.27 129.086 79.7413 125.168 79.7413C124.196 79.7413 123.308 79.8903 123.196 80.0724C123.075 80.268 122.545 80.0632 121.902 79.5728C121.303 79.116 119.865 78.3528 118.707 77.8766C116.131 76.8182 111.3 76.5128 108.748 77.2473ZM137.731 77.2912C137.272 77.7512 137.213 80.0872 137.213 98.0286C137.213 114.856 137.29 118.311 137.67 118.627C137.981 118.885 139.695 118.977 143.029 118.914L147.932 118.823L148.023 113.629L148.114 108.434H149.25C153.193 108.434 157.991 113.411 157.991 117.501C157.991 118.87 158.591 119.011 163.972 118.914L169.039 118.823L169.138 116.949C169.208 115.601 168.994 114.352 168.374 112.497C167.309 109.311 166.307 107.565 164.224 105.264C163.335 104.283 162.608 103.369 162.608 103.233C162.608 103.097 163.133 102.393 163.774 101.67C165.351 99.8903 167.41 96.428 168.301 94.0574C168.973 92.2672 169.033 91.5328 169.036 85.0181L169.039 77.9274L163.93 77.836C159.414 77.7552 158.772 77.8103 158.406 78.3112C158.112 78.7116 157.991 80.4678 157.991 84.3008C157.991 90.3653 157.792 91.3583 156.065 93.9027C154.624 96.025 152.264 97.4788 149.782 97.7726L148.097 97.9725V87.7684C148.097 80.2719 147.992 77.4597 147.701 77.1688C147.432 76.8994 145.859 76.773 142.777 76.773C139.101 76.773 138.152 76.8703 137.731 77.2912ZM188.003 77.1365C181.73 78.2034 176.016 83.8889 174.816 90.2574C174.294 93.0245 174.403 104.55 174.976 107.255C175.568 110.049 176.997 112.506 179.537 115.102C185.117 120.804 194.949 121.512 201.065 116.652C203.63 114.613 206.447 109.942 205.928 108.589C205.717 108.039 197.607 105.347 196.692 105.523C196.36 105.587 195.911 106.008 195.695 106.46C194.438 109.083 191.664 110.053 188.905 108.832C187.073 108.022 186.302 106.923 186.102 104.838L185.95 103.258L195.952 103.019C201.452 102.887 206.07 102.707 206.213 102.619C206.355 102.531 206.472 99.6746 206.472 96.2717C206.472 89.483 206.186 87.8455 204.481 84.8532C203.408 82.9697 201.01 80.5411 198.995 79.2964C195.969 77.427 191.48 76.5448 188.003 77.1365ZM39.3275 78.1582C38.7256 78.7601 38.7768 105.356 39.3839 107.61C40.2177 110.703 41.2978 112.495 43.8561 115.03C47.4582 118.599 50.5481 119.957 55.0922 119.965C58.3994 119.972 62.2822 118.668 64.638 116.76L65.4378 116.113L67.4146 117.39C72.5754 120.726 78.8027 120.836 84.1198 117.685C88.6114 115.024 91.4906 110.749 92.0787 105.868C92.2475 104.468 92.3425 97.7143 92.2904 90.86C92.2089 80.2122 92.1232 78.3521 91.7004 78.085C91.1137 77.7143 82.1479 77.6602 81.5761 78.0237C81.2816 78.211 81.1552 81.8134 81.0814 92.1178C80.9923 104.487 80.9211 106.071 80.4125 107.001C79.5712 108.538 77.9274 109.424 75.9143 109.424C74.4355 109.424 74.0575 109.274 72.9092 108.237C72.142 107.544 71.4564 106.549 71.2608 105.846C71.0652 105.141 70.9234 99.9193 70.9191 93.2632C70.9119 82.0802 70.8993 81.8626 70.1701 80.5757C69.7622 79.8554 68.9192 78.923 68.2968 78.5035C67.2715 77.8123 66.8543 77.7496 63.8494 77.834L60.5339 77.9274L60.369 92.0027C60.2094 105.634 60.1824 106.108 59.5142 107.009C57.2204 110.103 52.9075 110.276 51.1213 107.346C50.5102 106.345 50.4772 105.598 50.4762 92.7596C50.4752 81.048 50.406 79.1298 49.9614 78.4956C49.4703 77.7944 49.2365 77.7625 44.5856 77.7625C41.2437 77.7625 39.5996 77.8861 39.3275 78.1582ZM19.0654 88.1961C21.0135 89.6242 21.1488 90.3474 21.0485 98.8119L20.9575 106.504L19.5918 107.777C17.2195 109.989 14.0992 109.889 12.3087 107.543L11.3932 106.344L11.2893 98.6901C11.1725 90.0978 11.3411 89.1855 13.2697 87.9755C14.6826 87.089 17.7125 87.2041 19.0654 88.1961ZM115.48 88.0754C117.58 89.4781 117.755 90.2607 117.747 98.2103C117.741 104.52 117.67 105.457 117.099 106.714C116.61 107.792 116.124 108.279 115.045 108.768C114.268 109.121 113.302 109.412 112.897 109.416C111.585 109.429 109.519 108.384 108.763 107.325C108.055 106.332 108.022 105.973 107.942 98.4012C107.853 89.9309 107.912 89.5813 109.637 88.3162C111.343 87.0656 113.816 86.9636 115.48 88.0754ZM192.785 87.9471C194.755 88.8515 195.291 89.6357 195.498 91.9127C195.637 93.4436 195.572 93.9436 195.221 94.0574C194.97 94.1392 192.798 94.2665 190.394 94.3404L186.024 94.4746V92.5334C186.024 90.387 186.58 89.0061 187.753 88.2377C189.322 87.209 190.971 87.114 192.785 87.9471Z" fill="#BEFAC1"/>
<path fill-rule="evenodd" clip-rule="evenodd" d="M98.4611 0.123568C87.1129 0.969845 75.9688 3.36686 67.3843 6.8077C60.3549 9.62521 51.5 14.6564 44.74 19.6737C37.8115 24.8163 28.6199 34.4387 23.7975 41.5984C21.2187 45.4267 17.1552 52.6036 15.5811 56.1104C14.0339 59.5562 10.5684 69.5327 10.5684 70.5406C10.5684 71.6273 11.3019 72.7658 12.257 73.1616C13.5425 73.6942 17.3508 73.43 18.019 72.7619C18.3029 72.4776 19.2409 70.1102 20.1027 67.5008C25.6269 50.7791 37.0523 35.3552 51.6289 24.941C58.4555 20.0642 64.638 16.7724 72.8089 13.6647C77.8859 11.7336 81.7295 10.673 86.5881 9.86201C98.4957 7.87495 107.142 7.81888 118.847 9.65292C130.198 11.4312 141.883 16.1171 152.164 23.0133C160.118 28.3492 166.409 34.0343 172.054 40.9892C178.303 48.6868 184.536 60.2356 187.184 69.0225C188.364 72.9386 188.936 73.4749 191.934 73.4749C196.26 73.4749 196.756 72.0854 194.739 65.6219C189.809 49.8299 178.936 33.8256 165.413 22.4572C156.563 15.0168 143.969 8.04743 133.061 4.55316C129.111 3.28804 120.479 1.46422 115.281 0.797025C111.301 0.285829 101.53 -0.105315 98.4611 0.123568ZM11.975 77.2815C9.18583 78.0324 6.9313 79.3596 4.76613 81.5244C2.55117 83.7397 1.26692 85.9557 0.506718 88.8744C-0.100451 91.2048 -0.187848 104.479 0.385681 107.181C0.903143 109.618 2.30481 112.231 4.2645 114.412C9.29104 120.008 16.7017 121.395 23.4291 117.999L25.494 116.957L27.489 117.852C29.9793 118.97 34.8766 119.405 35.5695 118.57C35.8643 118.215 35.9577 116.945 35.8917 114.194C35.7911 110.02 35.8729 110.202 33.742 109.413C32.9317 109.113 32.5953 108.73 32.3423 107.819C32.1451 107.109 32.0086 101.493 32.0076 94.0497C32.0056 81.6794 31.9944 81.4647 31.2952 80.5759C30.6171 79.7138 30.4773 79.6788 28.2445 79.8114C26.0912 79.9394 25.7459 79.8642 23.9254 78.8728C20.2174 76.8531 15.7657 76.2604 11.975 77.2815ZM108.748 77.2472C103.272 78.824 99.2097 82.7533 97.6029 88.0285C96.9928 90.032 96.9456 90.9548 97.0396 99.0769C97.1412 107.883 97.1475 107.951 98.0188 109.81C101.237 116.676 108.178 120.758 114.844 119.708C117.26 119.327 120.374 118.222 121.422 117.373C122.127 116.803 122.206 116.814 124.099 117.76C125.634 118.527 126.638 118.771 128.821 118.907C132.62 119.144 132.596 119.173 132.596 114.371C132.596 110.216 132.549 110.092 130.782 109.524C129.008 108.955 128.978 108.712 128.973 94.8132C128.967 79.2699 129.086 79.7412 125.168 79.7412C124.196 79.7412 123.308 79.8902 123.196 80.0723C123.075 80.2679 122.545 80.0631 121.902 79.5726C121.303 79.1159 119.865 78.3527 118.706 77.8765C116.13 76.8181 111.299 76.5127 108.748 77.2472ZM137.731 77.2911C137.271 77.7511 137.213 80.0703 137.213 97.8408C137.213 113.406 137.305 117.999 137.628 118.439C137.993 118.939 138.626 118.995 142.987 118.915L147.932 118.823L148.022 113.629L148.113 108.434L149.342 108.437C152.515 108.446 156.431 111.737 157.455 115.255C157.762 116.31 158.123 117.545 158.257 117.998L158.501 118.823H163.77H169.039L169.14 117.253C169.36 113.821 167.387 108.925 164.408 105.509C163.418 104.374 162.61 103.343 162.612 103.219C162.615 103.094 163.429 101.983 164.422 100.75C166.585 98.0624 168.356 94.486 168.866 91.779C169.084 90.6204 169.197 87.3398 169.139 83.8637L169.039 77.9272L163.929 77.8359C159.414 77.7551 158.771 77.8102 158.405 78.3111C158.112 78.7122 157.991 80.4799 157.991 84.3627C157.991 90.5099 157.724 91.753 155.861 94.2971C154.523 96.1232 151.337 97.8804 149.363 97.8804H148.097V87.7224C148.097 80.2616 147.991 77.4593 147.701 77.1687C147.431 76.8992 145.859 76.7729 142.777 76.7729C139.101 76.7729 138.152 76.8702 137.731 77.2911ZM188.003 77.1364C181.665 78.2145 175.986 83.9356 174.783 90.4532C174.559 91.6679 174.47 95.2156 174.55 99.6877C174.665 106.035 174.768 107.185 175.371 108.819C178.136 116.311 185.861 120.867 193.798 119.686C196.88 119.228 199.322 118.102 201.519 116.127C204.228 113.692 206.437 109.916 205.929 108.591C205.719 108.045 198.813 105.752 197.153 105.678C196.342 105.641 196.019 105.815 195.705 106.456C194.414 109.092 191.664 110.053 188.904 108.832C187.073 108.022 186.302 106.923 186.101 104.838L185.95 103.258L195.951 103.019C201.452 102.887 206.069 102.707 206.212 102.619C206.355 102.531 206.472 99.6745 206.472 96.2716C206.472 89.5591 206.175 87.7973 204.58 85.0388C201.281 79.3358 194.389 76.05 188.003 77.1364ZM39.3273 78.1581C38.7208 78.7646 38.7771 105.351 39.3899 107.653C40.1396 110.468 41.84 113.25 44.1084 115.372C49.3655 120.289 56.0688 121.356 62.186 118.248C63.0946 117.786 64.2007 117.114 64.6443 116.755L65.4504 116.102L67.1442 117.227C72.2163 120.595 78.7276 120.859 83.7832 117.904C86.5914 116.262 89.5584 113.139 90.7987 110.52L91.865 108.269L91.9603 93.4775C92.0306 82.6055 91.9544 78.5631 91.6727 78.2241C91.3769 77.8679 90.2259 77.7633 86.6304 77.7673C84.0674 77.7703 81.7915 77.8863 81.5725 78.0255C81.274 78.2155 81.15 81.752 81.0778 92.1197C80.9917 104.491 80.9211 106.071 80.4122 107C78.6283 110.261 73.6799 110.24 71.6958 106.965C71.1421 106.051 71.0725 104.861 70.9225 93.7578C70.7665 82.2041 70.7216 81.4937 70.0801 80.4018C69.7075 79.7675 68.8991 78.9094 68.2837 78.4948C67.2732 77.8138 66.8438 77.7498 63.8492 77.8339L60.5336 77.9272L60.3687 92.0026C60.2091 105.634 60.1821 106.108 59.5139 107.009C57.2201 110.103 52.9073 110.276 51.121 107.346C50.5099 106.344 50.4769 105.598 50.4759 92.7595C50.475 81.0478 50.4057 79.1297 49.9611 78.4955C49.47 77.7943 49.2362 77.7623 44.5853 77.7623C41.2434 77.7623 39.5993 77.886 39.3273 78.1581ZM19.0651 88.196C21.0116 89.6231 21.1485 90.3516 21.0482 98.7695L20.9572 106.42L19.8121 107.601C17.796 109.68 14.9264 109.943 12.8965 108.235C12.3523 107.777 11.755 106.855 11.5693 106.187C11.3836 105.518 11.2309 101.813 11.23 97.9523C11.2276 90.0914 11.4236 89.1337 13.2695 87.9754C14.6823 87.0889 17.7123 87.204 19.0651 88.196ZM115.48 88.0753C117.651 89.5255 117.789 90.1913 117.683 98.7204C117.577 107.341 117.493 107.656 115.008 108.784C113.206 109.603 112.265 109.581 110.511 108.681C108.002 107.395 107.86 106.826 107.862 98.0506C107.863 91.2206 107.925 90.3585 108.479 89.4496C109.761 87.3464 113.338 86.6443 115.48 88.0753ZM192.785 87.947C194.793 88.8692 195.362 89.7003 195.525 91.9515C195.631 93.4168 195.553 93.9504 195.215 94.0596C194.967 94.1401 192.797 94.2664 190.394 94.3403L186.024 94.4745V92.5333C186.024 90.3869 186.58 89.006 187.752 88.2376C189.322 87.2089 190.971 87.1139 192.785 87.947Z" fill="#BEFAC1"/>
<path fill-rule="evenodd" clip-rule="evenodd" d="M96.6202 0.274655C90.9832 0.680314 79.9776 2.5813 76.6944 3.71649C75.9689 3.96747 73.6685 4.71975 71.5825 5.3886C69.4965 6.05711 66.454 7.23681 64.8215 8.00954C59.0826 10.7265 55.5771 12.4797 54.5976 13.1228C54.0534 13.4803 53.3856 13.8741 53.1135 13.9984C51.0964 14.9203 41.9127 21.7831 38.7222 24.7527C31.4394 31.5321 27.2918 36.3766 22.7046 43.4621C19.1859 48.897 14.5264 57.5919 14.5264 58.7231C14.5264 58.9639 14.3985 59.3019 14.2418 59.4741C13.8319 59.9256 10.5688 69.9681 10.5688 70.7781C10.5688 71.1525 10.9144 71.8602 11.3366 72.3513C12.0605 73.193 12.2508 73.2398 14.6682 73.1758C16.0785 73.1385 17.5194 72.9308 17.8706 72.7141C18.272 72.4664 18.8221 71.2781 19.3508 69.5166C19.8135 67.9748 20.3168 66.4165 20.4688 66.0537C20.6212 65.6909 21.0631 64.5036 21.451 63.4153C22.2092 61.2877 26.5138 52.5235 27.2015 51.7072C27.4307 51.4351 27.7117 50.95 27.8254 50.6288C28.0543 49.9843 30.1997 46.7608 31.9368 44.4515C32.5505 43.6353 33.3741 42.5291 33.7662 41.9935C36.8024 37.8489 43.319 31.2891 48.1664 27.498C51.6478 24.7751 57.5035 20.7057 57.9395 20.7057C58.0681 20.7057 58.4078 20.5012 58.6941 20.2512C59.9592 19.1467 69.3985 14.8005 74.5313 12.9592C78.6891 11.4675 84.929 9.8571 87.4131 9.63449C88.4107 9.54478 89.4697 9.39769 89.7666 9.30699C91.7856 8.6896 98.4783 8.27075 104.893 8.35979C111.301 8.44884 113.774 8.64376 117.673 9.36735C118.081 9.4432 118.823 9.56556 119.322 9.63911C129.21 11.0975 142.039 16.223 151.534 22.508C159.129 27.5356 165.339 32.9328 170.136 38.6764C171.347 40.1255 172.587 41.6096 172.892 41.9744C178.3 48.4471 184.375 60.0097 187.569 69.9094C188.104 71.5693 188.64 72.626 189.061 72.8513C189.422 73.0445 190.815 73.2137 192.156 73.2273C195.452 73.2606 196.068 72.7471 195.814 70.1762C195.391 65.8865 190.549 53.9822 186.796 48.0035C186.372 47.3268 186.024 46.654 186.024 46.5079C186.024 45.9713 179.111 36.4004 176.779 33.7079C174.733 31.3461 167.093 23.8147 165.004 22.1004C159.999 17.9924 152.915 13.3543 147.635 10.7298C141.598 7.72888 133.797 4.51758 131.486 4.08191C131.099 4.00903 128.927 3.50014 126.66 2.95101C116.15 0.406578 106.606 -0.443987 96.6202 0.274655ZM12.3827 77.2307C10.0253 77.86 9.07247 78.2845 7.33407 79.4807C5.02149 81.0716 2.64492 83.6646 1.80557 85.5121C0.131487 89.1977 0.00781016 90.1769 0.102464 99.0133C0.184585 106.697 0.24263 107.407 0.928621 109.093C2.67625 113.389 6.59069 117.275 10.7466 118.839C12.6294 119.548 13.3184 119.631 16.6293 119.545C20.2505 119.452 20.4678 119.404 22.977 118.146L25.5749 116.843L27.3957 117.755C28.7317 118.424 29.9263 118.721 31.8797 118.872C35.7322 119.169 35.6883 119.219 35.7487 114.449C35.7922 110.992 35.7233 110.421 35.2262 110.11C34.9113 109.914 34.466 109.749 34.2368 109.745C34.0076 109.741 33.4489 109.453 32.9954 109.105L32.1709 108.472L32.006 94.7364L31.8411 81.0007L31.0625 80.3705C30.2205 79.6894 26.9402 79.4622 26.5709 80.0595C26.4597 80.2392 25.6659 79.9427 24.7504 79.3794C21.0925 77.1288 16.0478 76.2525 12.3827 77.2307ZM109.015 77.237C104.574 78.3372 100.785 81.3784 98.6713 85.5369C97.1598 88.5117 96.9935 89.7989 96.9926 98.5394C96.9912 106.248 97.0282 106.724 97.7903 108.884C98.2296 110.129 98.9677 111.694 99.4305 112.362C101.63 115.536 105.04 118.138 108.277 119.112C110.54 119.793 115.484 119.797 117.526 119.119C119.187 118.569 121.254 117.555 121.83 117.008C121.985 116.861 122.801 117.084 123.644 117.502C125.726 118.538 127.09 118.866 129.687 118.955C132.487 119.052 132.596 118.869 132.596 114.102C132.596 110.236 132.537 110.085 130.782 109.525C130.238 109.351 129.624 108.849 129.417 108.409C129.166 107.875 128.978 103.236 128.851 94.4505C128.664 81.4572 128.652 81.282 127.933 80.5162C127.352 79.8975 126.865 79.7415 125.53 79.7455C124.61 79.7485 123.637 79.8893 123.369 80.0588C123.043 80.2646 122.716 80.2171 122.38 79.9147C121.548 79.166 118.419 77.7033 116.631 77.2271C114.584 76.6823 111.237 76.6866 109.015 77.237ZM137.685 77.458C137.029 78.1822 136.975 117.545 137.628 118.439C137.994 118.939 138.627 118.995 142.987 118.914L147.932 118.822L148.023 113.587L148.114 108.351L149.672 108.502C151.802 108.708 153.504 109.583 155.312 111.402C156.77 112.869 157.991 115.374 157.991 116.897C157.991 117.24 158.222 117.851 158.505 118.254C158.994 118.954 159.233 118.987 163.699 118.982C166.273 118.979 168.588 118.845 168.843 118.684C169.506 118.264 169.121 114.732 168.091 111.784C167.096 108.938 165.493 106.516 162.691 103.629C162.361 103.289 162.363 103.117 162.7 102.768C164.222 101.194 166.356 98.2089 167.205 96.4659C168.948 92.8902 169.229 91.0888 169.13 84.156L169.04 77.9266L163.838 77.8356C159.856 77.7663 158.6 77.8435 158.479 78.1654C158.392 78.3969 158.275 81.1834 158.218 84.3578C158.103 90.7062 157.804 91.9024 155.657 94.6144C154.555 96.0048 151.365 97.7109 149.334 97.9952L148.097 98.168V87.8194C148.097 81.2893 147.976 77.3956 147.768 77.2673C147.587 77.1555 145.35 77.0355 142.797 77.0005C138.932 76.9478 138.077 77.0243 137.685 77.458ZM187.418 77.363C182.9 78.268 178.324 81.9611 176.103 86.4946L174.976 88.7963V98.3675C174.976 105.981 175.074 108.175 175.455 109.093C176.83 112.411 180.28 116.318 183.211 117.878C187.838 120.341 195.863 120.212 199.662 117.615C201.242 116.535 203.132 114.684 204.154 113.214C205.366 111.473 206.188 109.059 205.75 108.527C205.281 107.956 197.263 105.411 196.619 105.628C196.324 105.727 195.712 106.419 195.259 107.166C192.791 111.229 186.485 109.578 185.816 104.693L185.605 103.157L186.887 103.15C191.488 103.128 205.721 102.755 206.06 102.648C206.7 102.446 206.631 90.6195 205.977 88.415C204.963 85.0016 202.025 81.1633 198.997 79.2953C195.762 77.3003 191.381 76.5691 187.418 77.363ZM39.5021 78.2258C38.9593 78.6377 38.9194 79.6231 38.9392 92.1659C38.956 103.175 39.0533 106.025 39.4662 107.625C41.757 116.507 51.4249 121.958 59.89 119.141C61.6231 118.564 64.0976 117.259 65.089 116.399C65.46 116.077 65.7723 116.004 65.9135 116.208C66.0385 116.388 66.9055 117.019 67.8402 117.61C69.3616 118.572 70.1198 118.893 72.407 119.54C73.8825 119.957 78.1736 119.918 79.8665 119.472C84.8742 118.153 89.4628 114.035 91.249 109.258C91.8107 107.756 91.874 106.322 91.9611 93.1474C92.0313 82.5201 91.9551 78.5631 91.6735 78.2238C91.1399 77.581 82.0613 77.5516 81.531 78.1908C81.2919 78.4787 81.1428 83.1224 81.0782 92.2899C80.972 107.383 80.9928 107.229 78.8303 108.769C76.6816 110.299 72.7916 109.277 71.5475 106.855C71.1884 106.156 71.0518 103.288 70.9229 93.7572C70.7586 81.5921 70.7557 81.5505 69.9681 80.2837C68.6726 78.2 67.6275 77.7644 63.9208 77.763C60.8622 77.7617 60.7036 77.7967 60.542 78.5038C60.4486 78.9121 60.3345 85.3307 60.2884 92.7678L60.2043 106.29L59.2848 107.492C57.0009 110.477 52.348 110.158 50.8223 106.912C50.1558 105.495 50.1327 104.978 50.1528 92.066C50.1677 82.3397 50.0687 78.5615 49.7891 78.2248C49.2502 77.5751 40.3583 77.576 39.5021 78.2258ZM18.6144 87.9434C19.1397 88.2386 19.8818 88.8989 20.2634 89.4104C20.9118 90.2794 20.9645 90.8239 21.0628 97.6555C21.1288 102.227 21.0351 105.42 20.8135 106.17C20.0322 108.812 16.5066 110.121 13.7573 108.79C11.2746 107.588 11.169 107.112 11.2897 97.6647L11.3933 89.5581L12.6634 88.4609C14.4255 86.9385 16.5053 86.7575 18.6144 87.9434ZM114.363 87.5269C115.231 87.8188 116.164 88.3013 116.436 88.5987C117.735 90.0199 117.806 90.5954 117.696 98.8355L117.59 106.836L116.38 107.945C113.762 110.342 109.846 109.713 108.398 106.661C107.951 105.72 107.861 104.276 107.861 98.0608C107.861 88.9622 107.926 88.7633 111.324 87.4335C112.634 86.921 112.554 86.9184 114.363 87.5269ZM193.145 88.0002C194.049 88.4375 194.723 89.0634 195.063 89.7814C195.601 90.9133 195.787 93.7645 195.341 94.0313C195.205 94.1127 193.016 94.2328 190.477 94.2981L185.86 94.4168L185.895 92.6029C185.94 90.3223 186.069 89.8401 186.866 88.9457C188.349 87.2828 190.877 86.9022 193.145 88.0002Z" fill="#BEFAC1"/>
<path fill-rule="evenodd" clip-rule="evenodd" d="M96.317 0.284579C88.3183 0.938909 78.6105 2.96357 71.0362 5.55715C67.3827 6.8081 55.5038 12.3561 53.5124 13.7416C53.0204 14.0839 51.2582 15.2633 49.5967 16.3622C35.7419 25.5248 24.6005 38.2278 17.0045 53.5215C14.6075 58.3475 12.0488 64.9363 10.9615 69.0816C10.4354 71.0865 10.4394 71.1663 11.1059 72.0608C11.7401 72.912 11.9829 72.9872 14.3881 73.0775C17.9949 73.2131 18.3121 72.9868 19.35 69.5394C21.1583 63.5334 24.0853 56.9376 27.6545 50.8263C32.2566 42.9467 40.1085 33.9374 47.6709 27.8598C51.4944 24.787 58.1247 20.3551 61.6876 18.4907C67.5759 15.4097 76.2953 12.0793 82.2865 10.6233C91.3069 8.4304 103.613 7.66163 113.137 8.69556C127.088 10.2103 140.528 15.1112 152.273 22.9662C162.89 30.0672 171.555 38.9488 178.311 49.6542C181.588 54.8473 186.195 65.004 187.802 70.5809C188.124 71.6977 188.604 72.6076 188.977 72.8071C189.324 72.9928 190.797 73.1448 192.25 73.1448C194.605 73.1448 194.946 73.0657 195.404 72.4117C196.228 71.2353 196.022 69.8339 194.212 64.3226C192.488 59.0701 188.983 51.5997 185.55 45.8602C180.541 37.4845 171.889 27.6712 163.762 21.147C155.901 14.8365 144.407 8.48152 135.069 5.28308C129.941 3.52688 119.431 1.22089 113.797 0.616033C108.991 0.10022 100.533 -0.0603961 96.317 0.284579ZM12.3819 77.2311C10.0245 77.8604 9.07169 78.2848 7.3333 79.481C5.06326 81.043 2.77475 83.5429 1.85592 85.465C0.136319 89.0625 -0.00121019 90.1251 0.103338 99.0252C0.215141 108.519 0.35465 109.134 3.30672 113.127C5.16187 115.635 6.80429 116.96 9.9084 118.452C11.9595 119.438 12.2306 119.482 16.1747 119.478L20.2972 119.473L22.9515 118.149L25.6057 116.825L26.6987 117.464C28.7821 118.681 34.0682 119.447 35.2423 118.702C35.5599 118.501 35.677 117.394 35.6803 114.567C35.6845 110.579 35.4494 109.753 34.3099 109.753C33.9897 109.753 33.3769 109.469 32.9488 109.123L32.1702 108.493L32.0053 94.747L31.8404 81.0011L31.0617 80.3708C30.2167 79.6871 27.1278 79.4734 26.5427 80.0585C26.3392 80.262 25.6813 80.0222 24.71 79.3903C21.2899 77.1658 16.0589 76.2496 12.3819 77.2311ZM108.937 77.2601C103.367 78.8283 98.5501 83.7035 97.3262 89.0133C97.1428 89.8088 96.9921 94.0956 96.9918 98.5397C96.9904 106.201 97.031 106.735 97.7727 108.836C98.6316 111.27 100.119 113.475 102.312 115.565C105.458 118.565 109.058 119.803 114.003 119.587C116.743 119.467 117.3 119.326 119.671 118.148L122.299 116.841L124.266 117.756C125.68 118.414 126.999 118.73 128.967 118.882C132.542 119.157 132.595 119.088 132.595 114.208C132.595 110.418 132.387 109.753 131.195 109.753C130.861 109.753 130.247 109.413 129.832 108.998C129.078 108.244 129.077 108.233 128.857 94.7555C128.641 81.511 128.625 81.2534 127.92 80.5041C127.352 79.8989 126.857 79.7419 125.53 79.7459C124.609 79.7488 123.643 79.8857 123.383 80.0499C123.056 80.2571 122.498 80.0677 121.569 79.4339C118.242 77.1641 112.679 76.2064 108.937 77.2601ZM187.579 77.3347C182.868 78.2917 178.374 81.8925 176.084 86.5444L174.975 88.7967V98.3748V107.953L176.078 110.193C177.407 112.894 180.51 116.308 182.841 117.636C187.446 120.259 194.323 120.363 199.122 117.882C202.13 116.326 205.991 111.253 205.751 109.172C205.654 108.326 205.378 108.18 201.384 106.864C199.039 106.091 196.876 105.536 196.578 105.63C196.281 105.725 195.793 106.313 195.496 106.937C194.809 108.377 193.657 109.132 191.829 109.338C188.795 109.68 186.272 107.839 185.841 104.97C185.717 104.137 185.679 103.392 185.757 103.314C185.836 103.235 190.491 103.056 196.103 102.917L206.307 102.662V95.7364V88.8105L205.246 86.5708C202.626 81.039 197.879 77.6483 192.031 77.1308C190.54 76.9986 188.851 77.0761 187.579 77.3347ZM137.617 77.49C137.087 78.02 137.027 117.364 137.554 118.35C137.868 118.936 138.288 118.988 142.796 118.988C146.96 118.988 147.726 118.909 147.896 118.466C148.006 118.179 148.096 115.785 148.096 113.147V108.35L149.663 108.501C151.8 108.708 153.586 109.616 155.352 111.392C156.771 112.821 157.99 115.364 157.99 116.897C157.99 117.241 158.221 117.851 158.504 118.254C158.993 118.954 159.234 118.988 163.715 118.988C168.873 118.988 169.204 118.875 169.204 117.124C169.204 113.618 166.969 108.424 164.082 105.218L162.225 103.157L163.917 101.261C166.179 98.7247 167.769 95.7997 168.555 92.724C169.433 89.293 169.527 78.2865 168.682 77.9623C167.939 77.6773 159.22 77.7232 158.769 78.0144C158.52 78.1757 158.353 80.2448 158.272 84.2055C158.15 90.1518 158.15 90.1551 157.07 92.3476C156.476 93.5541 155.512 94.9452 154.929 95.4389C153.652 96.5187 151.029 97.7317 149.338 98.0246L148.105 98.2379L148.018 87.7528L147.931 77.2674L142.976 77.1767C139.401 77.1114 137.908 77.1988 137.617 77.49ZM39.477 78.3653C38.9882 78.9052 38.9318 80.3296 38.9367 91.9697C38.943 106.202 39.1178 107.994 40.808 111.165C42.1566 113.695 45.6037 117.023 48.1656 118.268C53.3076 120.768 59.3427 120.295 64.2089 117.011L65.6466 116.041L67.4648 117.314C69.4291 118.69 73.4395 119.977 75.7643 119.977C79.904 119.977 84.3078 118.081 87.4872 114.93C89.6658 112.77 90.8175 110.812 91.5682 107.993C92.1839 105.681 92.2429 78.767 91.6338 78.1578C91.0566 77.5807 82.0147 77.6074 81.5332 78.1875C81.2981 78.4708 81.1467 83.2418 81.0807 92.4515C81.0059 102.843 80.8772 106.471 80.5646 107.019C78.7711 110.154 73.98 110.346 71.8551 107.367C71.0913 106.296 71.086 106.22 70.9221 93.8974L70.7572 81.5047L69.8285 80.102C68.592 78.235 67.3497 77.7621 63.6832 77.7621C60.8713 77.7621 60.7015 77.802 60.5396 78.5041C60.4456 78.9124 60.3314 85.3311 60.2859 92.7681L60.2035 106.29L59.4354 107.367C57.2603 110.417 52.3759 110.197 50.8186 106.98C50.1732 105.647 50.1445 105.01 50.1445 92.0703C50.1445 81.9971 50.0435 78.4527 49.7487 78.1578C49.4783 77.8874 47.8764 77.7621 44.6879 77.7621C40.5874 77.7621 39.9568 77.835 39.477 78.3653ZM18.6136 87.9438C19.139 88.239 19.881 88.8992 20.2626 89.4107C20.911 90.2798 20.9638 90.8243 21.062 97.6558C21.1293 102.329 21.0363 105.414 20.8041 106.199C20.0205 108.848 16.5282 110.132 13.7566 108.79C11.2834 107.593 11.1785 107.122 11.2936 97.7192L11.3925 89.6466L12.4212 88.6186C14.0379 87.0025 16.4685 86.7377 18.6136 87.9438ZM115.543 87.8811C116.049 88.1377 116.758 88.823 117.117 89.4038C117.729 90.3929 117.764 90.975 117.68 98.6479L117.589 106.837L116.379 107.945C113.753 110.351 109.598 109.645 108.315 106.575C107.648 104.979 107.663 90.9724 108.333 89.6772C109.572 87.2805 112.779 86.4818 115.543 87.8811ZM193.144 88.0005C194.838 88.8204 195.588 90.2231 195.588 92.5706V94.2523L191.63 94.3143C189.454 94.3482 187.265 94.3852 186.766 94.3967C185.861 94.4172 185.859 94.4109 185.885 92.1897C185.907 90.3124 186.037 89.826 186.71 89.0968C188.388 87.2772 190.801 86.866 193.144 88.0005Z" fill="#BEFAC1"/>
</svg>
