<svg width="1016" height="278" viewBox="0 0 1016 278" fill="none" xmlns="http://www.w3.org/2000/svg">
<g clip-path="url(#clip0_14_20)">
<path d="M129.133 121.161H189.301C196.284 121.161 202.73 126.045 204.88 132.557C207.565 139.612 205.954 147.21 200.582 152.093L63.0554 273.65C56.6089 278.534 48.0135 279.077 41.567 274.192C35.1204 269.851 32.4344 261.169 35.6576 253.571L77.023 155.892H16.8551C9.8714 155.892 3.42484 151.551 1.27599 145.039C-1.41008 137.984 0.201562 130.386 5.57369 125.502L143.1 3.9456C149.547 -0.938381 158.142 -1.48104 164.589 3.40293C171.035 7.74426 173.721 16.4269 170.498 24.0242L129.133 121.161Z" fill="#BEFAC1"/>
<path d="M311.868 271.194V0.981445H507.385C563.616 0.981445 591.73 23.3705 591.73 68.1485V69.1136C591.73 85.1977 587.935 98.1293 580.343 107.909C572.751 117.559 561.492 123.928 546.566 127.016V130.877C564.323 134.222 577.705 141.299 586.712 152.108C595.72 162.787 600.223 177.07 600.223 194.956V195.728C600.223 246.038 570.756 271.194 511.825 271.194H311.868ZM472.837 107.329C484.289 107.329 492.91 104.949 498.7 100.188C504.491 95.4272 507.385 88.3501 507.385 78.9571V78.1851C507.385 68.7919 504.491 61.7792 498.7 57.1471C492.91 52.3861 484.289 50.0057 472.837 50.0057H396.791V107.329H472.837ZM474.574 222.17C486.926 222.17 496.255 219.339 502.561 213.677C508.865 208.016 512.018 199.588 512.018 188.393V187.621C512.018 176.812 508.865 168.642 502.561 163.109C496.384 157.576 487.055 154.81 474.574 154.81H396.791V222.17H474.574Z" fill="#BEFAC1"/>
<path d="M708.304 271.196H624.346V68.5362H708.304V271.196ZM709.655 49.4283H622.994V2.91309H709.655V49.4283Z" fill="#BEFAC1"/>
<path d="M808.673 276.599C784.095 276.599 765.181 271.838 751.928 262.316C738.674 252.666 732.047 239.026 732.047 221.399V220.627C732.047 206.859 736.165 195.407 744.4 186.27C752.764 177.007 764.795 169.543 780.493 163.882C796.32 158.22 816.135 153.653 839.94 150.179L907.879 140.528V135.124C907.879 125.216 904.469 117.946 897.65 113.314C890.959 108.682 880.665 106.365 866.768 106.365C851.456 106.365 840.004 109.196 832.413 114.858C824.95 120.519 821.668 129.333 822.57 141.3L738.417 138.791C738.288 137.632 738.224 135.96 738.224 133.772C738.224 111.254 749.161 94.0127 771.036 82.0461C793.038 69.9509 825.464 63.9033 868.312 63.9033C897.134 63.9033 920.618 66.5411 938.761 71.8167C956.903 76.9635 970.285 84.9413 978.906 95.7498C987.527 106.558 991.838 120.583 991.838 137.826V217.346C991.838 221.849 992.353 225.131 993.382 227.189C994.54 229.119 996.663 230.406 999.751 231.049C1002.97 231.564 1008.31 231.821 1015.77 231.821L1008.63 274.09C998.98 275.763 989.265 276.599 979.486 276.599C964.559 276.599 952.85 275.183 944.358 272.353C935.865 269.651 929.818 265.598 926.214 260.194C922.74 254.789 921.004 247.777 921.004 239.156C921.004 233.751 921.454 228.283 922.354 222.749L918.494 221.785C910.903 239.026 897.52 252.473 878.348 262.124C859.177 271.774 835.951 276.599 808.673 276.599ZM845.537 228.347C855.959 228.347 865.996 226.289 875.646 222.171C885.297 217.924 893.082 212.198 899 204.993C904.92 197.659 907.879 189.552 907.879 180.674V176.621L870.822 182.218C857.568 184.276 847.146 186.4 839.554 188.587C831.962 190.774 826.236 193.605 822.376 197.079C818.644 200.553 816.779 205.121 816.779 210.784V211.556C816.779 222.749 826.365 228.347 845.537 228.347Z" fill="#BEFAC1"/>
</g>
<defs>
<clipPath id="clip0_14_20">
<rect width="1015.77" height="278" fill="white"/>
</clipPath>
</defs>
</svg>
