<svg width="167" height="48" viewBox="0 0 167 48" fill="none" xmlns="http://www.w3.org/2000/svg">
<g clip-path="url(#clip0_48_111)">
<mask id="mask0_48_111" style="mask-type:luminance" maskUnits="userSpaceOnUse" x="0" y="0" width="167" height="48">
<path d="M166.105 0H0V48H166.105V0Z" fill="white"/>
</mask>
<g mask="url(#mask0_48_111)">
<path d="M164.814 47.2701C161.909 48.9518 158.906 45.9396 160.582 43.0273C160.775 42.6928 161.054 42.4112 161.39 42.2175C164.295 40.5358 167.298 43.548 165.622 46.4603C165.429 46.7948 165.149 47.0764 164.814 47.2701ZM163.867 43.8765C162.702 43.053 161.415 44.3427 162.237 45.5112C162.264 45.5506 162.299 45.5854 162.338 45.6126C163.504 46.4361 164.79 45.1464 163.969 43.9779C163.941 43.9385 163.907 43.9037 163.867 43.8765Z" fill="#BEFAC1"/>
<path d="M46.0684 33.3066C46.0684 24.7877 52.1114 18.792 60.4208 18.792C68.7302 18.792 74.7731 24.7861 74.7731 33.3066C74.7731 41.827 68.7302 47.8212 60.4208 47.8212C52.1114 47.8212 46.0684 41.827 46.0684 33.3066ZM68.2274 33.3066C68.2274 28.5113 64.8903 25.1025 60.4223 25.1025C55.9543 25.1025 52.6157 28.5098 52.6157 33.3066C52.6157 38.1034 55.9528 41.5107 60.4223 41.5107C64.8918 41.5107 68.2274 38.1034 68.2274 33.3066Z" fill="#BEFAC1"/>
<path d="M107.101 33.3016C107.101 41.8206 101.372 47.8162 94.6364 47.8162C90.9702 47.8162 88.2643 46.6916 86.3617 44.6345C85.8831 44.1168 85.0224 44.4271 85.0013 45.1325L84.9635 47.1003C84.9514 47.5226 84.6056 47.8601 84.1828 47.8601H79.2754V0.488281H85.8227V22.6363C87.7117 20.113 90.6063 18.7886 94.6349 18.7886C101.371 18.7886 107.1 24.7827 107.1 33.3032L107.101 33.3016ZM100.554 33.3016C100.554 28.5063 97.596 25.0975 93.3771 25.0975C88.7822 25.0975 85.8227 28.5048 85.8227 33.3016C85.8227 38.0985 88.7807 41.5057 93.3771 41.5057C97.5945 41.5057 100.554 38.0985 100.554 33.3016Z" fill="#BEFAC1"/>
<path d="M128.439 19.447L126.55 25.7575C125.731 25.3791 124.724 25.1899 123.906 25.1899C120.38 25.1899 118.177 28.9756 118.177 34.2765V47.8405H111.63V18.946H116.543C116.963 18.946 117.307 19.279 117.322 19.6983L117.38 21.7615C117.408 22.5092 118.358 22.7877 118.796 22.1807C120.323 20.0707 122.357 18.8779 124.785 18.8779C125.728 18.8779 127.176 19.0671 128.436 19.4455L128.439 19.447Z" fill="#BEFAC1"/>
<path d="M157.255 36.2584H138.984C138.391 36.2584 138.024 36.8927 138.303 37.4164C139.633 39.9125 142.277 41.4958 145.735 41.4958C148.065 41.4958 151.464 40.5497 154.233 38.9089L155.745 44.399C152.975 46.6074 149.575 47.8062 145.735 47.8062C136.514 47.8062 129.664 40.9705 130.897 30.9273C131.673 24.5971 136.718 19.5929 143.041 18.8951C152.362 17.8658 157.823 23.748 157.823 32.22C157.823 33.7972 157.634 34.9325 157.256 36.2584H157.255ZM137.743 30.3899C137.743 30.3899 148.175 30.3899 151.653 30.3899C151.023 26.8555 148.316 25.0891 145.105 25.0891C141.581 25.0891 138.812 27.2339 137.741 30.3884V30.3899H137.743Z" fill="#BEFAC1"/>
<path d="M23.7781 48C20.9862 48 18.1746 47.5111 15.4687 46.5075C8.35522 43.8737 3.02197 38.1733 0.835524 30.8683C0.581847 30.0221 1.06051 29.1306 1.90459 28.8778C2.74866 28.625 3.63804 29.1049 3.89021 29.9495C5.78523 36.2827 10.4088 41.2248 16.574 43.5074C23.7132 46.1533 31.7146 44.676 37.454 39.6536C38.5986 38.6546 38.7149 36.9063 37.7152 35.7544C36.7187 34.6116 34.9746 34.4935 33.8316 35.4956C30.9943 37.9735 27.4112 39.2767 23.7736 39.2767C21.9949 39.2767 20.2055 38.9649 18.4842 38.3277C13.5435 36.4946 9.94069 32.3078 8.84445 27.1265C8.76442 26.7466 8.701 26.3469 8.64664 25.8701C8.63758 25.802 8.6255 25.7339 8.61342 25.6673V25.6552C8.3522 24.2702 7.06871 23.2803 5.63725 23.421C5.36848 23.4468 5.10121 23.3408 4.92303 23.138C3.72411 21.7681 4.66785 20.209 5.96643 20.209C5.97398 20.209 5.98153 20.209 5.98757 20.209C8.79311 20.2469 11.2091 22.2737 11.7421 25.0331C11.7512 25.0755 11.7572 25.1163 11.7632 25.1542C11.7798 25.2511 11.7949 25.3494 11.8085 25.4493L11.8131 25.4857C11.8569 25.8686 11.9052 26.1789 11.9656 26.4635C12.8338 30.564 15.6847 33.879 19.591 35.3291C23.7389 36.8654 28.3911 36.0072 31.7342 33.0873C34.1985 30.9288 37.9599 31.1816 40.1191 33.6534C42.2754 36.1389 42.0187 39.9109 39.5499 42.0664C35.106 45.9565 29.4828 48.0015 23.7766 48.0015L23.7781 48ZM8.61644 25.6567C8.62852 25.7203 8.64362 25.7839 8.66476 25.8474L8.61644 25.6567ZM8.59077 25.3827C8.59077 25.4736 8.59832 25.5629 8.61493 25.6507L8.59077 25.3827Z" fill="#BEFAC1"/>
<path d="M11.0969 20.832C10.5307 20.832 9.93727 20.5277 9.52504 19.8163C9.39971 19.5998 9.37102 19.3395 9.45105 19.1018C10.8206 15.0528 13.8813 11.7212 17.7816 10.0122C22.4188 7.97942 27.7535 8.38509 32.0539 11.096C32.5945 11.4366 33.0837 11.8181 33.5367 12.1783C33.57 12.2056 33.6002 12.2267 33.6304 12.2479L33.659 12.2706C34.4759 12.8489 34.6541 14.137 33.6137 14.9574C33.5005 15.0467 33.3661 15.1073 33.2257 15.136C32.6519 15.2541 32.1385 15.1421 31.7399 14.8257C31.6749 14.7788 31.61 14.7304 31.5481 14.6804C31.1525 14.3656 30.7599 14.0583 30.3537 13.804C26.9487 11.6561 22.7268 11.3337 19.0575 12.9427C16.0829 14.246 13.7258 16.742 12.5903 19.7921C12.3502 20.4354 11.7417 20.832 11.0954 20.832H11.0969ZM33.6681 12.2797L33.8372 12.4235C33.7934 12.3796 33.7376 12.3297 33.6681 12.2797ZM33.2544 12.0663H33.2559H33.2544ZM33.2514 12.0663H33.2529H33.2514ZM33.2483 12.0663H33.2498H33.2483Z" fill="#BEFAC1"/>
<path d="M6.41146 28.4099C6.07775 28.4478 5.78029 28.4508 5.42393 28.419C3.84299 28.2813 2.40549 27.532 1.38474 26.3105C0.367015 25.092 -0.117688 23.5465 0.0242502 21.9617C0.78377 13.1885 6.25291 5.5475 14.2966 2.02217C22.4807 -1.56977 31.903 -0.314939 38.8957 5.29624C38.9863 5.36435 39.0724 5.43549 39.1735 5.52177C39.4936 5.80331 39.7216 6.05156 39.9512 6.3558C40.0825 6.52988 40.1475 6.74936 40.1203 6.96733C39.9029 8.7247 38.1422 9.07436 37.271 8.12074C37.2166 8.06171 37.1532 7.99965 37.0762 7.93153C37.046 7.90429 37.0127 7.87704 36.975 7.8498L36.9237 7.81044C30.8566 2.92885 22.6785 1.83447 15.5756 4.95263C8.60244 8.00722 3.86111 14.6325 3.20275 22.2417C3.13783 22.9789 3.35979 23.6918 3.83091 24.2549C4.30353 24.821 4.97094 25.1677 5.70781 25.2328C5.77727 25.2388 5.83163 25.2418 5.87844 25.2418C7.16796 25.2418 8.09962 26.7767 6.95807 28.1223C6.84029 28.2601 6.59115 28.3888 6.41146 28.4084V28.4099Z" fill="#BEFAC1"/>
</g>
</g>
<defs>
<clipPath id="clip0_48_111">
<rect width="167" height="48" fill="white"/>
</clipPath>
</defs>
</svg>
