<svg width="1713" height="425" viewBox="0 0 1713 425" fill="none" xmlns="http://www.w3.org/2000/svg">
<g clip-path="url(#clip0_14_25)">
<mask id="mask0_14_25" style="mask-type:luminance" maskUnits="userSpaceOnUse" x="0" y="0" width="1713" height="425">
<path d="M1713 0H0V425H1713V0Z" fill="white"/>
</mask>
<g mask="url(#mask0_14_25)">
<path d="M431.499 0H488.863C491.971 0 494.514 2.46297 494.514 5.47327V262.991L598.504 154.62C599.635 153.525 601.048 152.978 602.743 152.978H675.084C680.169 152.978 682.713 158.725 679.322 162.283L570.529 273.664L688.082 409.675C691.19 413.233 688.647 418.706 683.843 418.706H607.546C605.851 418.706 604.156 417.885 603.025 416.516L495.645 282.969H494.514V413.233C494.514 416.242 491.971 418.706 488.863 418.706H431.499C428.391 418.706 425.848 416.242 425.848 413.233V5.47327C425.848 2.46297 428.391 0 431.499 0Z" fill="#BEFAC1"/>
<path d="M738.383 152.704H795.746C798.854 152.704 801.398 155.167 801.398 158.178V194.849H802.528C810.157 179.25 820.896 167.481 835.025 158.998C849.153 150.514 865.261 146.137 883.629 146.137C887.867 146.137 891.824 146.41 895.78 147.231C898.323 147.778 901.149 148.326 903.691 148.873C906.235 149.42 907.93 151.61 907.93 154.072V207.163C907.93 210.72 904.539 213.184 901.149 212.363C897.757 211.541 894.367 210.994 891.258 210.447C885.606 209.626 880.238 209.079 874.869 209.079C858.761 209.079 846.045 211.816 836.155 217.563C826.547 223.31 818.918 229.877 813.831 237.266C808.744 244.656 805.354 252.044 803.659 259.434C801.962 266.822 801.115 272.296 801.115 276.126V412.959C801.115 415.969 798.572 418.431 795.464 418.431H738.1C734.991 418.431 732.449 415.969 732.449 412.959V158.178C732.731 155.167 735.274 152.704 738.383 152.704Z" fill="#BEFAC1"/>
<path d="M999.766 308.967C1002.03 328.943 1009.94 344.269 1023.79 355.489C1037.63 366.437 1054.02 372.182 1073.52 372.182C1090.76 372.182 1105.17 368.899 1116.75 362.058C1126.93 356.036 1135.97 348.648 1143.88 340.165C1145.86 337.975 1149.25 337.701 1151.51 339.616L1191.64 368.899C1194.18 370.814 1194.75 374.372 1192.49 376.835C1177.51 393.528 1160.84 405.844 1142.75 413.232C1122.97 421.443 1102.06 425.547 1080.58 425.547C1059.96 425.547 1040.46 422.264 1022.37 415.696C1004 409.127 988.18 399.55 974.9 387.508C961.618 375.193 950.879 360.69 943.25 343.448C935.338 326.207 931.665 307.325 931.665 286.253C931.665 265.18 935.62 246.025 943.25 229.056C951.163 211.816 961.618 197.311 974.9 184.997C988.18 172.682 1004 163.377 1022.37 156.809C1040.74 150.242 1060.24 146.957 1080.58 146.957C1099.52 146.957 1117.04 150.242 1132.86 156.536C1148.69 163.104 1162.25 172.408 1173.55 184.449C1184.86 196.764 1193.62 211.542 1199.83 229.604C1206.05 247.393 1209.16 268.19 1209.16 291.452V304.314C1209.16 307.325 1206.62 309.787 1203.51 309.787H999.766V308.967ZM1140.49 259.16C1140.21 239.729 1133.71 224.13 1121.56 212.91C1109.41 201.69 1092.45 195.943 1070.69 195.943C1050.06 195.943 1033.96 201.69 1021.81 213.184C1009.94 224.679 1002.59 240.003 999.766 259.16H1140.49Z" fill="#BEFAC1"/>
<path d="M1490.05 378.75H1488.91C1479.02 394.896 1465.74 406.665 1448.79 414.053C1432.11 421.442 1414.03 425 1394.53 425C1373.06 425 1354.12 421.442 1337.73 414.327C1321.06 407.212 1306.93 397.36 1295.06 384.772C1283.19 372.183 1274.15 357.404 1268.22 340.437C1262 323.47 1259.18 305.135 1259.18 285.706C1259.18 266.275 1262.28 247.94 1268.78 230.972C1275.28 214.005 1284.32 199.228 1295.91 186.639C1307.5 174.05 1321.63 164.198 1338.01 157.083C1354.4 149.967 1372.21 146.41 1391.71 146.41C1404.7 146.41 1416.01 147.778 1425.9 150.242C1435.78 152.704 1444.55 156.262 1452.17 160.093C1459.8 164.198 1466.3 168.577 1471.67 173.229C1477.04 177.882 1481.28 182.261 1484.95 186.912H1486.65V5.47327C1486.65 2.46297 1489.2 0 1492.31 0H1549.66C1552.77 0 1555.32 2.46297 1555.32 5.47327V412.959C1555.32 415.969 1552.77 418.432 1549.66 418.432H1495.7C1492.58 418.432 1490.05 415.969 1490.05 412.959V378.75ZM1327.84 285.706C1327.84 296.104 1329.54 305.956 1333.21 315.535C1336.89 325.113 1342.25 333.596 1349.32 340.986C1356.38 348.374 1364.86 354.395 1374.74 358.773C1384.64 363.152 1395.94 365.341 1408.37 365.341C1420.82 365.341 1432.11 363.152 1442 358.773C1451.9 354.395 1460.37 348.374 1467.44 340.986C1474.5 333.596 1479.87 325.113 1483.54 315.535C1487.21 305.956 1488.91 296.104 1488.91 285.706C1488.91 275.305 1487.21 265.454 1483.54 255.876C1479.87 246.297 1474.5 237.814 1467.44 230.425C1460.37 223.036 1451.9 217.016 1442 212.637C1432.11 208.258 1420.82 206.069 1408.37 206.069C1395.94 206.069 1384.64 208.258 1374.74 212.637C1364.86 217.016 1356.38 223.036 1349.32 230.425C1342.25 237.814 1336.89 246.297 1333.21 255.876C1329.54 265.454 1327.84 275.305 1327.84 285.706Z" fill="#BEFAC1"/>
<path d="M1625.12 62.6696C1625.12 51.9966 1629.08 42.6921 1637.27 34.7558C1645.47 26.8196 1655.92 22.9883 1668.35 22.9883C1680.78 22.9883 1691.53 26.8196 1700.01 34.2084C1708.48 41.871 1713 51.1757 1713 62.6696C1713 74.1634 1708.77 83.7416 1700.01 91.1306C1691.53 98.7932 1680.78 102.351 1668.35 102.351C1655.64 102.351 1645.47 98.5196 1637.27 90.5833C1629.08 82.647 1625.12 73.3424 1625.12 62.6696ZM1640.38 152.704H1697.75C1700.84 152.704 1703.39 155.168 1703.39 158.179V412.959C1703.39 415.97 1700.84 418.432 1697.75 418.432H1640.38C1637.27 418.432 1634.72 415.97 1634.72 412.959V158.179C1634.72 155.168 1637.27 152.704 1640.38 152.704Z" fill="#BEFAC1"/>
<path d="M331.189 32.2921L126.601 358.499C118.124 372.183 97.4956 371.909 89.3008 358.225L4.2442 218.384C0.288085 211.816 0.288085 203.332 4.52678 196.764C43.5228 134.642 82.2363 72.5207 121.232 10.6726C125.188 4.37832 132.253 0.547018 139.882 0.547018H312.539C329.493 0.273354 339.95 18.3352 331.189 32.2921Z" fill="#A8E6AB"/>
<path d="M331.18 386.961L126.31 60.7535C117.833 47.3439 97.487 47.3439 89.0096 60.7535L3.1053 198.953C-1.13341 205.522 -1.13341 214.005 3.1053 220.846C42.1013 282.969 82.2277 347.006 121.224 409.127C125.18 415.422 132.244 419.253 139.874 419.253H312.531C329.485 418.98 339.94 401.192 331.18 386.961Z" fill="#B7F0BA"/>
<path d="M312.53 419.253H139.874C132.244 419.253 125.18 415.422 121.223 409.128C111.051 392.708 100.595 376.288 90.1396 359.868C98.8995 372.183 118.398 371.636 126.592 358.774L219.843 210.175L330.898 387.508C339.94 401.192 329.485 419.253 312.53 419.253Z" fill="#BEFAC1"/>
</g>
</g>
<defs>
<clipPath id="clip0_14_25">
<rect width="1713" height="425" fill="white"/>
</clipPath>
</defs>
</svg>
