<svg width="450" height="500" viewBox="0 0 450 500" fill="none" xmlns="http://www.w3.org/2000/svg">
<path fill-rule="evenodd" clip-rule="evenodd" d="M232.971 2.0609C228.812 3.6849 225.362 6.3079 218.822 12.8179C214.065 17.5519 207.852 23.6719 205.016 26.4159C202.069 29.2689 198.516 34.1359 196.723 37.7779C193.996 43.3179 193.584 45.2099 193.567 52.2869C193.541 62.4369 195.48 68.3769 202.175 78.6649C213.823 96.5649 246.639 123.808 265.775 131.464C268.083 132.388 269.971 133.326 269.971 133.549C269.971 133.772 267.866 136.535 265.294 139.69C251.92 156.091 241.078 178.573 235.041 202.426L234.029 206.426H204.25C181.901 206.426 170.604 206.877 158.971 208.235C150.446 209.229 142.658 210.129 141.664 210.235C140.265 210.383 139.107 208.501 136.544 201.914C131.845 189.843 125.01 176.68 118.805 167.753C111.091 156.655 96.3789 140.247 89.7589 135.361C81.1249 128.987 76.5169 128.233 58.0489 130.172C56.2539 130.36 55.1489 129.617 53.7809 127.303L51.9349 124.18L55.4159 119.007C61.4389 110.057 61.3699 102.248 55.1759 92.0229C49.7099 83.0009 43.6389 76.4279 38.4519 73.9169C29.7529 69.7059 18.8499 72.3639 8.48793 81.2209C-3.42207 91.4009 -2.80507 104.378 10.3819 121.077C17.4779 130.062 21.0519 132.309 28.9589 132.755C33.8579 133.032 36.5359 132.685 38.8909 131.467C42.4879 129.607 43.4529 130.037 46.2079 134.731C47.8789 137.578 47.8679 137.787 45.9229 140.26C40.1819 147.558 38.0499 158.21 40.4859 167.426C42.3479 174.471 51.7889 192.866 59.7329 204.926C65.0449 212.991 85.1209 234.36 92.7459 240.065L96.0209 242.516L89.3339 252.471C69.5899 281.865 55.9469 324.331 55.9859 356.275C56.0079 374.402 58.8879 384.401 66.5229 392.852C71.9709 398.882 78.6999 401.392 89.4709 401.411C97.5759 401.424 98.9989 401.134 103.779 398.486C118.802 390.163 132.41 368.862 143.757 335.909C147.592 324.769 153.622 302.426 155.973 290.641L157.127 284.857L164.799 285.636C183.052 287.49 229.508 286.05 239.088 283.334C240.384 282.967 241.63 285.683 245.355 296.998C256.707 331.48 273.82 366.361 289.3 386.566C297.011 396.631 307.836 401.48 320.906 400.724C339.922 399.623 353.666 385.906 354.765 366.932C355.131 360.601 354.634 357.244 351.65 345.912C343.759 315.948 330.106 284.709 312.821 257.072C309.604 251.927 306.971 247.38 306.971 246.968C306.971 246.556 309.159 241.765 311.832 236.322C320.201 219.286 329.037 193.675 333.481 173.576L335.216 165.725L338.344 166.369C358.235 170.466 389.461 172.101 400.021 169.599C415.454 165.943 425.532 159.628 430.041 150.789C431.125 148.664 432.178 146.926 432.382 146.926C432.586 146.926 434.714 147.816 437.112 148.904C442.697 151.438 445.207 151.428 447.53 148.86C450.058 146.067 450.091 137.284 447.587 133.463C445.968 130.992 445.383 130.772 442.123 131.405C440.114 131.795 437.233 132.348 435.721 132.634C433.814 132.994 432.968 132.735 432.961 131.789C432.94 128.852 427.899 119.803 423.816 115.373C414.766 105.556 409.168 103.002 388.971 99.4769C366.157 95.4959 359.373 95.3489 331.596 98.2309C330.111 98.3859 329.362 97.1779 327.995 92.4259C324.127 78.9799 317.339 65.4349 305.34 47.2209C290.613 24.8669 275.967 10.1159 261.988 3.5599C253.223 -0.551103 241.244 -1.1701 232.971 2.0609ZM259.778 7.0829C267.314 10.6969 281.683 23.9979 290.845 35.8429L296.977 43.7679L285.224 32.0689C272.408 19.3099 265.038 14.5709 252.958 11.3209C243.794 8.8539 242.445 7.5949 245.595 4.4449C247.67 2.3689 251.392 3.0619 259.778 7.0829ZM234.438 24.4589C242.468 26.5509 251.381 30.9439 261.759 37.9249C273.86 46.0649 280 51.5959 269.471 44.8719C253.039 34.3789 239.975 29.9259 225.62 29.9259C220.426 29.9259 219.056 29.5899 218.517 28.1849C217.6 25.7959 221.341 22.9259 225.372 22.9259C227.12 22.9259 231.2 23.6159 234.438 24.4589ZM34.2529 77.2939C37.8839 78.8369 43.6419 84.1769 47.0019 89.1179L49.2509 92.4259L46.5629 89.6669C42.2809 85.2739 39.3509 83.7549 33.8379 83.0679C28.0349 82.3449 25.7009 80.1609 27.9009 77.5099C29.5059 75.5769 30.1609 75.5539 34.2529 77.2939ZM392.327 106.507C404.336 109.597 415.139 116.086 420.146 123.216L422.4 126.426L418.658 123.182C410.957 116.507 398.225 112.08 384.222 111.208C374.795 110.621 372.165 109.47 373.328 106.439C374.117 104.382 384.208 104.418 392.327 106.507ZM80.5679 136.973C89.2559 141.179 101.119 154.308 111.732 171.465C121.15 186.69 120.97 187.571 111.228 173.926C99.1839 157.058 87.7849 146.936 75.7849 142.454C70.7949 140.59 69.2219 138.534 71.0759 136.299C72.6719 134.377 75.6389 134.587 80.5679 136.973ZM225.53 211.367C227.096 212.53 227.253 213.158 226.34 214.617C225.079 216.634 224.077 216.663 215.471 214.93C212.171 214.265 203.621 213.41 196.471 213.03L183.471 212.338L191.971 211.624C196.646 211.232 202.046 210.761 203.971 210.578C213.923 209.633 223.675 209.99 225.53 211.367ZM288.137 238.676C294.949 245.963 310.971 271.056 310.971 274.437C310.971 274.899 308.18 271.036 304.77 265.852C301.359 260.668 294.33 252.053 289.15 246.709C282.85 240.208 279.927 236.484 280.32 235.459C281.325 232.839 283.529 233.746 288.137 238.676ZM147.777 256.426C149.536 261.807 149.391 277.264 147.502 285.63C145.828 293.044 140.974 307.262 140.335 306.624C140.116 306.405 141.149 301.321 142.631 295.326C146.288 280.524 146.467 266.76 143.1 259.237C140.59 253.629 140.929 251.636 144.315 252.119C145.829 252.335 146.858 253.614 147.777 256.426ZM66.1959 417.709C61.0089 418.536 60.8769 419.653 61.1849 459.886C61.4579 495.382 61.5599 497.154 63.4119 498.507C64.9539 499.634 70.0479 499.926 88.1619 499.926C109.638 499.926 111.088 499.809 112.971 497.926C115.674 495.223 115.489 491.354 112.516 488.381C110.102 485.966 109.781 485.926 93.0159 485.926H75.9709V455.575C75.9709 436.552 75.5709 424.076 74.8979 422.148C73.7549 418.868 70.2239 417.067 66.1959 417.709ZM153.345 417.983C152.276 418.379 150.927 419.315 150.347 420.064C148.152 422.897 118.971 490.823 118.971 493.098C118.971 497.35 121.639 499.926 126.042 499.926C130.614 499.926 131.968 498.244 136.688 486.698L139.471 479.892L155.936 480.159L172.402 480.426L176.002 488.601C180.612 499.07 181.37 499.926 186.037 499.926C190.258 499.926 192.971 497.298 192.971 493.211C192.971 490.984 164.346 424.673 161.528 420.373C159.934 417.94 156.317 416.884 153.345 417.983ZM202.971 417.719C202.146 417.976 200.684 418.873 199.721 419.711C198.112 421.113 197.971 424.278 197.971 458.926C197.971 494.169 198.09 496.723 199.8 498.271C200.806 499.181 203.255 499.926 205.243 499.926C212.006 499.926 211.971 500.142 211.971 458.358C211.971 424.247 211.829 421.113 210.221 419.722C208.142 417.924 205.052 417.07 202.971 417.719ZM219.606 418.999L216.971 421.071V458.844C216.971 494.167 217.09 496.723 218.8 498.271C219.806 499.181 222.255 499.926 224.243 499.926C229.49 499.926 230.971 497.29 230.971 487.949V480.418L236.097 474.158L241.224 467.898L251.651 482.662C257.386 490.782 262.815 497.989 263.716 498.676C266.137 500.524 271.407 500.206 273.316 498.097C276.891 494.147 275.574 490.982 263.01 473.315C252.814 458.977 251.241 456.27 252.35 454.961C272.561 431.091 275.074 427.636 274.773 424.138C274.568 421.751 273.646 420.011 271.898 418.712C267.072 415.125 265.104 416.651 247.648 437.509L231.471 456.839L231.199 438.938L230.926 421.036L228.314 418.981C225.012 416.384 222.925 416.388 219.606 418.999ZM314.196 417.717C312.945 417.912 311.307 419.051 310.556 420.249C307.743 424.736 278.971 491.713 278.971 493.775C278.971 499.01 287.676 502.12 291.256 498.164C292.133 497.195 294.384 492.807 296.258 488.414L299.666 480.426L316.155 480.153L332.645 479.879L336.058 487.947C340.248 497.851 342.032 499.926 346.355 499.926C350.356 499.926 353.322 497.021 353.26 493.163C353.212 490.142 323.8 422.499 321.365 419.809C319.599 417.858 317.403 417.217 314.196 417.717ZM321.409 454.275C323.993 460.242 325.909 465.322 325.667 465.563C325.426 465.804 320.974 465.872 315.774 465.714L306.319 465.426L311.3 454.164C314.04 447.97 316.378 443.02 316.497 443.164C316.616 443.308 318.826 448.308 321.409 454.275ZM161.143 454.676L165.781 465.426L156.247 465.714C151.003 465.872 146.558 465.846 146.368 465.657C145.881 465.17 155.228 443.926 155.929 443.926C156.246 443.926 158.592 448.763 161.143 454.676Z" fill="#BEFAC1"/>
<path fill-rule="evenodd" clip-rule="evenodd" d="M232.971 2.0609C228.812 3.6849 225.362 6.3079 218.822 12.8179C214.065 17.5519 207.852 23.6719 205.016 26.4159C202.069 29.2689 198.516 34.1359 196.723 37.7779C193.996 43.3179 193.584 45.2099 193.567 52.2869C193.541 62.4369 195.48 68.3769 202.175 78.6649C213.823 96.5649 246.639 123.808 265.775 131.464C268.083 132.388 269.971 133.326 269.971 133.549C269.971 133.772 267.866 136.535 265.294 139.69C251.92 156.091 241.078 178.573 235.041 202.426L234.029 206.426H204.25C181.901 206.426 170.604 206.877 158.971 208.235C150.446 209.229 142.658 210.129 141.664 210.235C140.265 210.383 139.107 208.501 136.544 201.914C131.845 189.843 125.01 176.68 118.805 167.753C111.091 156.655 96.3789 140.247 89.7589 135.361C81.1249 128.987 76.5169 128.233 58.0489 130.172C56.2539 130.36 55.1489 129.617 53.7809 127.303L51.9349 124.18L55.4159 119.007C61.4389 110.057 61.3699 102.248 55.1759 92.0229C49.7099 83.0009 43.6389 76.4279 38.4519 73.9169C29.7529 69.7059 18.8499 72.3639 8.48793 81.2209C-3.42207 91.4009 -2.80507 104.378 10.3819 121.077C17.4779 130.062 21.0519 132.309 28.9589 132.755C33.8579 133.032 36.5359 132.685 38.8909 131.467C42.4879 129.607 43.4529 130.037 46.2079 134.731C47.8789 137.578 47.8679 137.787 45.9229 140.26C40.1819 147.558 38.0499 158.21 40.4859 167.426C42.3479 174.471 51.7889 192.866 59.7329 204.926C65.0449 212.991 85.1209 234.36 92.7459 240.065L96.0209 242.516L89.3339 252.471C69.5899 281.865 55.9469 324.331 55.9859 356.275C56.0079 374.402 58.8879 384.401 66.5229 392.852C71.9709 398.882 78.6999 401.392 89.4709 401.411C97.5759 401.424 98.9989 401.134 103.779 398.486C118.802 390.163 132.41 368.862 143.757 335.909C147.592 324.769 153.622 302.426 155.973 290.641L157.127 284.857L164.799 285.636C183.052 287.49 229.508 286.05 239.088 283.334C240.384 282.967 241.63 285.683 245.355 296.998C256.707 331.48 273.82 366.361 289.3 386.566C297.011 396.631 307.836 401.48 320.906 400.724C339.922 399.623 353.666 385.906 354.765 366.932C355.131 360.601 354.634 357.244 351.65 345.912C343.759 315.948 330.106 284.709 312.821 257.072C309.604 251.927 306.971 247.38 306.971 246.968C306.971 246.556 309.159 241.765 311.832 236.322C320.201 219.286 329.037 193.675 333.481 173.576L335.216 165.725L338.344 166.369C358.235 170.466 389.461 172.101 400.021 169.599C415.454 165.943 425.532 159.628 430.041 150.789C431.125 148.664 432.178 146.926 432.382 146.926C432.586 146.926 434.714 147.816 437.112 148.904C442.697 151.438 445.207 151.428 447.53 148.86C450.058 146.067 450.091 137.284 447.587 133.463C445.968 130.992 445.383 130.772 442.123 131.405C440.114 131.795 437.233 132.348 435.721 132.634C433.814 132.994 432.968 132.735 432.961 131.789C432.94 128.852 427.899 119.803 423.816 115.373C414.766 105.556 409.168 103.002 388.971 99.4769C366.157 95.4959 359.373 95.3489 331.596 98.2309C330.111 98.3859 329.362 97.1779 327.995 92.4259C324.127 78.9799 317.339 65.4349 305.34 47.2209C290.613 24.8669 275.967 10.1159 261.988 3.5599C253.223 -0.551103 241.244 -1.1701 232.971 2.0609ZM259.778 7.0829C267.314 10.6969 281.683 23.9979 290.845 35.8429L296.977 43.7679L285.224 32.0689C272.408 19.3099 265.038 14.5709 252.958 11.3209C243.794 8.8539 242.445 7.5949 245.595 4.4449C247.67 2.3689 251.392 3.0619 259.778 7.0829ZM234.438 24.4589C242.468 26.5509 251.381 30.9439 261.759 37.9249C273.86 46.0649 280 51.5959 269.471 44.8719C253.039 34.3789 239.975 29.9259 225.62 29.9259C220.426 29.9259 219.056 29.5899 218.517 28.1849C217.6 25.7959 221.341 22.9259 225.372 22.9259C227.12 22.9259 231.2 23.6159 234.438 24.4589ZM34.2529 77.2939C37.8839 78.8369 43.6419 84.1769 47.0019 89.1179L49.2509 92.4259L46.5629 89.6669C42.2809 85.2739 39.3509 83.7549 33.8379 83.0679C28.0349 82.3449 25.7009 80.1609 27.9009 77.5099C29.5059 75.5769 30.1609 75.5539 34.2529 77.2939ZM392.327 106.507C404.336 109.597 415.139 116.086 420.146 123.216L422.4 126.426L418.658 123.182C410.957 116.507 398.225 112.08 384.222 111.208C374.795 110.621 372.165 109.47 373.328 106.439C374.117 104.382 384.208 104.418 392.327 106.507ZM80.5679 136.973C89.2559 141.179 101.119 154.308 111.732 171.465C121.15 186.69 120.97 187.571 111.228 173.926C99.1839 157.058 87.7849 146.936 75.7849 142.454C70.7949 140.59 69.2219 138.534 71.0759 136.299C72.6719 134.377 75.6389 134.587 80.5679 136.973ZM225.53 211.367C227.096 212.53 227.253 213.158 226.34 214.617C225.079 216.634 224.077 216.663 215.471 214.93C212.171 214.265 203.621 213.41 196.471 213.03L183.471 212.338L191.971 211.624C196.646 211.232 202.046 210.761 203.971 210.578C213.923 209.633 223.675 209.99 225.53 211.367ZM288.137 238.676C294.949 245.963 310.971 271.056 310.971 274.437C310.971 274.899 308.18 271.036 304.77 265.852C301.359 260.668 294.33 252.053 289.15 246.709C282.85 240.208 279.927 236.484 280.32 235.459C281.325 232.839 283.529 233.746 288.137 238.676ZM147.777 256.426C149.536 261.807 149.391 277.264 147.502 285.63C145.828 293.044 140.974 307.262 140.335 306.624C140.116 306.405 141.149 301.321 142.631 295.326C146.288 280.524 146.467 266.76 143.1 259.237C140.59 253.629 140.929 251.636 144.315 252.119C145.829 252.335 146.858 253.614 147.777 256.426ZM66.1959 417.709C61.0089 418.536 60.8769 419.653 61.1849 459.886C61.4579 495.382 61.5599 497.154 63.4119 498.507C64.9539 499.634 70.0479 499.926 88.1619 499.926C109.638 499.926 111.088 499.809 112.971 497.926C115.674 495.223 115.489 491.354 112.516 488.381C110.102 485.966 109.781 485.926 93.0159 485.926H75.9709V455.575C75.9709 436.552 75.5709 424.076 74.8979 422.148C73.7549 418.868 70.2239 417.067 66.1959 417.709ZM153.345 417.983C152.276 418.379 150.927 419.315 150.347 420.064C148.152 422.897 118.971 490.823 118.971 493.098C118.971 497.35 121.639 499.926 126.042 499.926C130.614 499.926 131.968 498.244 136.688 486.698L139.471 479.892L155.936 480.159L172.402 480.426L176.002 488.601C180.612 499.07 181.37 499.926 186.037 499.926C190.258 499.926 192.971 497.298 192.971 493.211C192.971 490.984 164.346 424.673 161.528 420.373C159.934 417.94 156.317 416.884 153.345 417.983ZM202.971 417.719C202.146 417.976 200.684 418.873 199.721 419.711C198.112 421.113 197.971 424.278 197.971 458.926C197.971 494.169 198.09 496.723 199.8 498.271C200.806 499.181 203.255 499.926 205.243 499.926C212.006 499.926 211.971 500.142 211.971 458.358C211.971 424.247 211.829 421.113 210.221 419.722C208.142 417.924 205.052 417.07 202.971 417.719ZM219.606 418.999L216.971 421.071V458.844C216.971 494.167 217.09 496.723 218.8 498.271C219.806 499.181 222.255 499.926 224.243 499.926C229.49 499.926 230.971 497.29 230.971 487.949V480.418L236.097 474.158L241.224 467.898L251.651 482.662C257.386 490.782 262.815 497.989 263.716 498.676C266.137 500.524 271.407 500.206 273.316 498.097C276.891 494.147 275.574 490.982 263.01 473.315C252.814 458.977 251.241 456.27 252.35 454.961C272.561 431.091 275.074 427.636 274.773 424.138C274.568 421.751 273.646 420.011 271.898 418.712C267.072 415.125 265.104 416.651 247.648 437.509L231.471 456.839L231.199 438.938L230.926 421.036L228.314 418.981C225.012 416.384 222.925 416.388 219.606 418.999ZM314.196 417.717C312.945 417.912 311.307 419.051 310.556 420.249C307.743 424.736 278.971 491.713 278.971 493.775C278.971 499.01 287.676 502.12 291.256 498.164C292.133 497.195 294.384 492.807 296.258 488.414L299.666 480.426L316.155 480.153L332.645 479.879L336.058 487.947C340.248 497.851 342.032 499.926 346.355 499.926C350.356 499.926 353.322 497.021 353.26 493.163C353.212 490.142 323.8 422.499 321.365 419.809C319.599 417.858 317.403 417.217 314.196 417.717ZM321.409 454.275C323.993 460.242 325.909 465.322 325.667 465.563C325.426 465.804 320.974 465.872 315.774 465.714L306.319 465.426L311.3 454.164C314.04 447.97 316.378 443.02 316.497 443.164C316.616 443.308 318.826 448.308 321.409 454.275ZM161.143 454.676L165.781 465.426L156.247 465.714C151.003 465.872 146.558 465.846 146.368 465.657C145.881 465.17 155.228 443.926 155.929 443.926C156.246 443.926 158.592 448.763 161.143 454.676Z" fill="#BEFAC1"/>
<path fill-rule="evenodd" clip-rule="evenodd" d="M232.971 2.0609C228.812 3.6849 225.362 6.3079 218.822 12.8179C214.065 17.5519 207.852 23.6719 205.016 26.4159C202.069 29.2689 198.516 34.1359 196.723 37.7779C193.996 43.3179 193.584 45.2099 193.567 52.2869C193.541 62.4369 195.48 68.3769 202.175 78.6649C213.823 96.5649 246.639 123.808 265.775 131.464C268.083 132.388 269.971 133.326 269.971 133.549C269.971 133.772 267.866 136.535 265.294 139.69C251.92 156.091 241.078 178.573 235.041 202.426L234.029 206.426H204.25C181.901 206.426 170.604 206.877 158.971 208.235C150.446 209.229 142.658 210.129 141.664 210.235C140.265 210.383 139.107 208.501 136.544 201.914C131.845 189.843 125.01 176.68 118.805 167.753C111.091 156.655 96.3789 140.247 89.7589 135.361C81.1249 128.987 76.5169 128.233 58.0489 130.172C56.2539 130.36 55.1489 129.617 53.7809 127.303L51.9349 124.18L55.4159 119.007C61.4389 110.057 61.3699 102.248 55.1759 92.0229C49.7099 83.0009 43.6389 76.4279 38.4519 73.9169C29.7529 69.7059 18.8499 72.3639 8.48793 81.2209C-3.42207 91.4009 -2.80507 104.378 10.3819 121.077C17.4779 130.062 21.0519 132.309 28.9589 132.755C33.8579 133.032 36.5359 132.685 38.8909 131.467C42.4879 129.607 43.4529 130.037 46.2079 134.731C47.8789 137.578 47.8679 137.787 45.9229 140.26C40.1819 147.558 38.0499 158.21 40.4859 167.426C42.3479 174.471 51.7889 192.866 59.7329 204.926C65.0449 212.991 85.1209 234.36 92.7459 240.065L96.0209 242.516L89.3339 252.471C69.5899 281.865 55.9469 324.331 55.9859 356.275C56.0079 374.402 58.8879 384.401 66.5229 392.852C71.9709 398.882 78.6999 401.392 89.4709 401.411C97.5759 401.424 98.9989 401.134 103.779 398.486C118.802 390.163 132.41 368.862 143.757 335.909C147.592 324.769 153.622 302.426 155.973 290.641L157.127 284.857L164.799 285.636C183.052 287.49 229.508 286.05 239.088 283.334C240.384 282.967 241.63 285.683 245.355 296.998C256.707 331.48 273.82 366.361 289.3 386.566C297.011 396.631 307.836 401.48 320.906 400.724C339.922 399.623 353.666 385.906 354.765 366.932C355.131 360.601 354.634 357.244 351.65 345.912C343.759 315.948 330.106 284.709 312.821 257.072C309.604 251.927 306.971 247.38 306.971 246.968C306.971 246.556 309.159 241.765 311.832 236.322C320.201 219.286 329.037 193.675 333.481 173.576L335.216 165.725L338.344 166.369C358.235 170.466 389.461 172.101 400.021 169.599C415.454 165.943 425.532 159.628 430.041 150.789C431.125 148.664 432.178 146.926 432.382 146.926C432.586 146.926 434.714 147.816 437.112 148.904C442.697 151.438 445.207 151.428 447.53 148.86C450.058 146.067 450.091 137.284 447.587 133.463C445.968 130.992 445.383 130.772 442.123 131.405C440.114 131.795 437.233 132.348 435.721 132.634C433.814 132.994 432.968 132.735 432.961 131.789C432.94 128.852 427.899 119.803 423.816 115.373C414.766 105.556 409.168 103.002 388.971 99.4769C366.157 95.4959 359.373 95.3489 331.596 98.2309C330.111 98.3859 329.362 97.1779 327.995 92.4259C324.127 78.9799 317.339 65.4349 305.34 47.2209C290.613 24.8669 275.967 10.1159 261.988 3.5599C253.223 -0.551103 241.244 -1.1701 232.971 2.0609ZM259.778 7.0829C267.314 10.6969 281.683 23.9979 290.845 35.8429L296.977 43.7679L285.224 32.0689C272.408 19.3099 265.038 14.5709 252.958 11.3209C243.794 8.8539 242.445 7.5949 245.595 4.4449C247.67 2.3689 251.392 3.0619 259.778 7.0829ZM234.438 24.4589C242.468 26.5509 251.381 30.9439 261.759 37.9249C273.86 46.0649 280 51.5959 269.471 44.8719C253.039 34.3789 239.975 29.9259 225.62 29.9259C220.426 29.9259 219.056 29.5899 218.517 28.1849C217.6 25.7959 221.341 22.9259 225.372 22.9259C227.12 22.9259 231.2 23.6159 234.438 24.4589ZM34.2529 77.2939C37.8839 78.8369 43.6419 84.1769 47.0019 89.1179L49.2509 92.4259L46.5629 89.6669C42.2809 85.2739 39.3509 83.7549 33.8379 83.0679C28.0349 82.3449 25.7009 80.1609 27.9009 77.5099C29.5059 75.5769 30.1609 75.5539 34.2529 77.2939ZM392.327 106.507C404.336 109.597 415.139 116.086 420.146 123.216L422.4 126.426L418.658 123.182C410.957 116.507 398.225 112.08 384.222 111.208C374.795 110.621 372.165 109.47 373.328 106.439C374.117 104.382 384.208 104.418 392.327 106.507ZM80.5679 136.973C89.2559 141.179 101.119 154.308 111.732 171.465C121.15 186.69 120.97 187.571 111.228 173.926C99.1839 157.058 87.7849 146.936 75.7849 142.454C70.7949 140.59 69.2219 138.534 71.0759 136.299C72.6719 134.377 75.6389 134.587 80.5679 136.973ZM225.53 211.367C227.096 212.53 227.253 213.158 226.34 214.617C225.079 216.634 224.077 216.663 215.471 214.93C212.171 214.265 203.621 213.41 196.471 213.03L183.471 212.338L191.971 211.624C196.646 211.232 202.046 210.761 203.971 210.578C213.923 209.633 223.675 209.99 225.53 211.367ZM288.137 238.676C294.949 245.963 310.971 271.056 310.971 274.437C310.971 274.899 308.18 271.036 304.77 265.852C301.359 260.668 294.33 252.053 289.15 246.709C282.85 240.208 279.927 236.484 280.32 235.459C281.325 232.839 283.529 233.746 288.137 238.676ZM147.777 256.426C149.536 261.807 149.391 277.264 147.502 285.63C145.828 293.044 140.974 307.262 140.335 306.624C140.116 306.405 141.149 301.321 142.631 295.326C146.288 280.524 146.467 266.76 143.1 259.237C140.59 253.629 140.929 251.636 144.315 252.119C145.829 252.335 146.858 253.614 147.777 256.426ZM66.1959 417.709C61.0089 418.536 60.8769 419.653 61.1849 459.886C61.4579 495.382 61.5599 497.154 63.4119 498.507C64.9539 499.634 70.0479 499.926 88.1619 499.926C109.638 499.926 111.088 499.809 112.971 497.926C115.674 495.223 115.489 491.354 112.516 488.381C110.102 485.966 109.781 485.926 93.0159 485.926H75.9709V455.575C75.9709 436.552 75.5709 424.076 74.8979 422.148C73.7549 418.868 70.2239 417.067 66.1959 417.709ZM153.345 417.983C152.276 418.379 150.927 419.315 150.347 420.064C148.152 422.897 118.971 490.823 118.971 493.098C118.971 497.35 121.639 499.926 126.042 499.926C130.614 499.926 131.968 498.244 136.688 486.698L139.471 479.892L155.936 480.159L172.402 480.426L176.002 488.601C180.612 499.07 181.37 499.926 186.037 499.926C190.258 499.926 192.971 497.298 192.971 493.211C192.971 490.984 164.346 424.673 161.528 420.373C159.934 417.94 156.317 416.884 153.345 417.983ZM202.971 417.719C202.146 417.976 200.684 418.873 199.721 419.711C198.112 421.113 197.971 424.278 197.971 458.926C197.971 494.169 198.09 496.723 199.8 498.271C200.806 499.181 203.255 499.926 205.243 499.926C212.006 499.926 211.971 500.142 211.971 458.358C211.971 424.247 211.829 421.113 210.221 419.722C208.142 417.924 205.052 417.07 202.971 417.719ZM219.606 418.999L216.971 421.071V458.844C216.971 494.167 217.09 496.723 218.8 498.271C219.806 499.181 222.255 499.926 224.243 499.926C229.49 499.926 230.971 497.29 230.971 487.949V480.418L236.097 474.158L241.224 467.898L251.651 482.662C257.386 490.782 262.815 497.989 263.716 498.676C266.137 500.524 271.407 500.206 273.316 498.097C276.891 494.147 275.574 490.982 263.01 473.315C252.814 458.977 251.241 456.27 252.35 454.961C272.561 431.091 275.074 427.636 274.773 424.138C274.568 421.751 273.646 420.011 271.898 418.712C267.072 415.125 265.104 416.651 247.648 437.509L231.471 456.839L231.199 438.938L230.926 421.036L228.314 418.981C225.012 416.384 222.925 416.388 219.606 418.999ZM314.196 417.717C312.945 417.912 311.307 419.051 310.556 420.249C307.743 424.736 278.971 491.713 278.971 493.775C278.971 499.01 287.676 502.12 291.256 498.164C292.133 497.195 294.384 492.807 296.258 488.414L299.666 480.426L316.155 480.153L332.645 479.879L336.058 487.947C340.248 497.851 342.032 499.926 346.355 499.926C350.356 499.926 353.322 497.021 353.26 493.163C353.212 490.142 323.8 422.499 321.365 419.809C319.599 417.858 317.403 417.217 314.196 417.717ZM321.409 454.275C323.993 460.242 325.909 465.322 325.667 465.563C325.426 465.804 320.974 465.872 315.774 465.714L306.319 465.426L311.3 454.164C314.04 447.97 316.378 443.02 316.497 443.164C316.616 443.308 318.826 448.308 321.409 454.275ZM161.143 454.676L165.781 465.426L156.247 465.714C151.003 465.872 146.558 465.846 146.368 465.657C145.881 465.17 155.228 443.926 155.929 443.926C156.246 443.926 158.592 448.763 161.143 454.676Z" fill="#BEFAC1"/>
<path fill-rule="evenodd" clip-rule="evenodd" d="M232.971 2.0609C228.812 3.6849 225.362 6.3079 218.822 12.8179C214.065 17.5519 207.852 23.6719 205.016 26.4159C202.069 29.2689 198.516 34.1359 196.723 37.7779C193.996 43.3179 193.584 45.2099 193.567 52.2869C193.541 62.4369 195.48 68.3769 202.175 78.6649C213.823 96.5649 246.639 123.808 265.775 131.464C268.083 132.388 269.971 133.326 269.971 133.549C269.971 133.772 267.866 136.535 265.294 139.69C251.92 156.091 241.078 178.573 235.041 202.426L234.029 206.426H204.25C181.901 206.426 170.604 206.877 158.971 208.235C150.446 209.229 142.658 210.129 141.664 210.235C140.265 210.383 139.107 208.501 136.544 201.914C131.845 189.843 125.01 176.68 118.805 167.753C111.091 156.655 96.3789 140.247 89.7589 135.361C81.1249 128.987 76.5169 128.233 58.0489 130.172C56.2539 130.36 55.1489 129.617 53.7809 127.303L51.9349 124.18L55.4159 119.007C61.4389 110.057 61.3699 102.248 55.1759 92.0229C49.7099 83.0009 43.6389 76.4279 38.4519 73.9169C29.7529 69.7059 18.8499 72.3639 8.48793 81.2209C-3.42207 91.4009 -2.80507 104.378 10.3819 121.077C17.4779 130.062 21.0519 132.309 28.9589 132.755C33.8579 133.032 36.5359 132.685 38.8909 131.467C42.4879 129.607 43.4529 130.037 46.2079 134.731C47.8789 137.578 47.8679 137.787 45.9229 140.26C40.1819 147.558 38.0499 158.21 40.4859 167.426C42.3479 174.471 51.7889 192.866 59.7329 204.926C65.0449 212.991 85.1209 234.36 92.7459 240.065L96.0209 242.516L89.3339 252.471C69.5899 281.865 55.9469 324.331 55.9859 356.275C56.0079 374.402 58.8879 384.401 66.5229 392.852C71.9709 398.882 78.6999 401.392 89.4709 401.411C97.5759 401.424 98.9989 401.134 103.779 398.486C118.802 390.163 132.41 368.862 143.757 335.909C147.592 324.769 153.622 302.426 155.973 290.641L157.127 284.857L164.799 285.636C183.052 287.49 229.508 286.05 239.088 283.334C240.384 282.967 241.63 285.683 245.355 296.998C256.707 331.48 273.82 366.361 289.3 386.566C297.011 396.631 307.836 401.48 320.906 400.724C339.922 399.623 353.666 385.906 354.765 366.932C355.131 360.601 354.634 357.244 351.65 345.912C343.759 315.948 330.106 284.709 312.821 257.072C309.604 251.927 306.971 247.38 306.971 246.968C306.971 246.556 309.159 241.765 311.832 236.322C320.201 219.286 329.037 193.675 333.481 173.576L335.216 165.725L338.344 166.369C358.235 170.466 389.461 172.101 400.021 169.599C415.454 165.943 425.532 159.628 430.041 150.789C431.125 148.664 432.178 146.926 432.382 146.926C432.586 146.926 434.714 147.816 437.112 148.904C442.697 151.438 445.207 151.428 447.53 148.86C450.058 146.067 450.091 137.284 447.587 133.463C445.968 130.992 445.383 130.772 442.123 131.405C440.114 131.795 437.233 132.348 435.721 132.634C433.814 132.994 432.968 132.735 432.961 131.789C432.94 128.852 427.899 119.803 423.816 115.373C414.766 105.556 409.168 103.002 388.971 99.4769C366.157 95.4959 359.373 95.3489 331.596 98.2309C330.111 98.3859 329.362 97.1779 327.995 92.4259C324.127 78.9799 317.339 65.4349 305.34 47.2209C290.613 24.8669 275.967 10.1159 261.988 3.5599C253.223 -0.551103 241.244 -1.1701 232.971 2.0609ZM259.778 7.0829C267.314 10.6969 281.683 23.9979 290.845 35.8429L296.977 43.7679L285.224 32.0689C272.408 19.3099 265.038 14.5709 252.958 11.3209C243.794 8.8539 242.445 7.5949 245.595 4.4449C247.67 2.3689 251.392 3.0619 259.778 7.0829ZM234.438 24.4589C242.468 26.5509 251.381 30.9439 261.759 37.9249C273.86 46.0649 280 51.5959 269.471 44.8719C253.039 34.3789 239.975 29.9259 225.62 29.9259C220.426 29.9259 219.056 29.5899 218.517 28.1849C217.6 25.7959 221.341 22.9259 225.372 22.9259C227.12 22.9259 231.2 23.6159 234.438 24.4589ZM34.2529 77.2939C37.8839 78.8369 43.6419 84.1769 47.0019 89.1179L49.2509 92.4259L46.5629 89.6669C42.2809 85.2739 39.3509 83.7549 33.8379 83.0679C28.0349 82.3449 25.7009 80.1609 27.9009 77.5099C29.5059 75.5769 30.1609 75.5539 34.2529 77.2939ZM392.327 106.507C404.336 109.597 415.139 116.086 420.146 123.216L422.4 126.426L418.658 123.182C410.957 116.507 398.225 112.08 384.222 111.208C374.795 110.621 372.165 109.47 373.328 106.439C374.117 104.382 384.208 104.418 392.327 106.507ZM80.5679 136.973C89.2559 141.179 101.119 154.308 111.732 171.465C121.15 186.69 120.97 187.571 111.228 173.926C99.1839 157.058 87.7849 146.936 75.7849 142.454C70.7949 140.59 69.2219 138.534 71.0759 136.299C72.6719 134.377 75.6389 134.587 80.5679 136.973ZM225.53 211.367C227.096 212.53 227.253 213.158 226.34 214.617C225.079 216.634 224.077 216.663 215.471 214.93C212.171 214.265 203.621 213.41 196.471 213.03L183.471 212.338L191.971 211.624C196.646 211.232 202.046 210.761 203.971 210.578C213.923 209.633 223.675 209.99 225.53 211.367ZM288.137 238.676C294.949 245.963 310.971 271.056 310.971 274.437C310.971 274.899 308.18 271.036 304.77 265.852C301.359 260.668 294.33 252.053 289.15 246.709C282.85 240.208 279.927 236.484 280.32 235.459C281.325 232.839 283.529 233.746 288.137 238.676ZM147.777 256.426C149.536 261.807 149.391 277.264 147.502 285.63C145.828 293.044 140.974 307.262 140.335 306.624C140.116 306.405 141.149 301.321 142.631 295.326C146.288 280.524 146.467 266.76 143.1 259.237C140.59 253.629 140.929 251.636 144.315 252.119C145.829 252.335 146.858 253.614 147.777 256.426ZM66.1959 417.709C61.0089 418.536 60.8769 419.653 61.1849 459.886C61.4579 495.382 61.5599 497.154 63.4119 498.507C64.9539 499.634 70.0479 499.926 88.1619 499.926C109.638 499.926 111.088 499.809 112.971 497.926C115.674 495.223 115.489 491.354 112.516 488.381C110.102 485.966 109.781 485.926 93.0159 485.926H75.9709V455.575C75.9709 436.552 75.5709 424.076 74.8979 422.148C73.7549 418.868 70.2239 417.067 66.1959 417.709ZM153.345 417.983C152.276 418.379 150.927 419.315 150.347 420.064C148.152 422.897 118.971 490.823 118.971 493.098C118.971 497.35 121.639 499.926 126.042 499.926C130.614 499.926 131.968 498.244 136.688 486.698L139.471 479.892L155.936 480.159L172.402 480.426L176.002 488.601C180.612 499.07 181.37 499.926 186.037 499.926C190.258 499.926 192.971 497.298 192.971 493.211C192.971 490.984 164.346 424.673 161.528 420.373C159.934 417.94 156.317 416.884 153.345 417.983ZM202.971 417.719C202.146 417.976 200.684 418.873 199.721 419.711C198.112 421.113 197.971 424.278 197.971 458.926C197.971 494.169 198.09 496.723 199.8 498.271C200.806 499.181 203.255 499.926 205.243 499.926C212.006 499.926 211.971 500.142 211.971 458.358C211.971 424.247 211.829 421.113 210.221 419.722C208.142 417.924 205.052 417.07 202.971 417.719ZM219.606 418.999L216.971 421.071V458.844C216.971 494.167 217.09 496.723 218.8 498.271C219.806 499.181 222.255 499.926 224.243 499.926C229.49 499.926 230.971 497.29 230.971 487.949V480.418L236.097 474.158L241.224 467.898L251.651 482.662C257.386 490.782 262.815 497.989 263.716 498.676C266.137 500.524 271.407 500.206 273.316 498.097C276.891 494.147 275.574 490.982 263.01 473.315C252.814 458.977 251.241 456.27 252.35 454.961C272.561 431.091 275.074 427.636 274.773 424.138C274.568 421.751 273.646 420.011 271.898 418.712C267.072 415.125 265.104 416.651 247.648 437.509L231.471 456.839L231.199 438.938L230.926 421.036L228.314 418.981C225.012 416.384 222.925 416.388 219.606 418.999ZM314.196 417.717C312.945 417.912 311.307 419.051 310.556 420.249C307.743 424.736 278.971 491.713 278.971 493.775C278.971 499.01 287.676 502.12 291.256 498.164C292.133 497.195 294.384 492.807 296.258 488.414L299.666 480.426L316.155 480.153L332.645 479.879L336.058 487.947C340.248 497.851 342.032 499.926 346.355 499.926C350.356 499.926 353.322 497.021 353.26 493.163C353.212 490.142 323.8 422.499 321.365 419.809C319.599 417.858 317.403 417.217 314.196 417.717ZM321.409 454.275C323.993 460.242 325.909 465.322 325.667 465.563C325.426 465.804 320.974 465.872 315.774 465.714L306.319 465.426L311.3 454.164C314.04 447.97 316.378 443.02 316.497 443.164C316.616 443.308 318.826 448.308 321.409 454.275ZM161.143 454.676L165.781 465.426L156.247 465.714C151.003 465.872 146.558 465.846 146.368 465.657C145.881 465.17 155.228 443.926 155.929 443.926C156.246 443.926 158.592 448.763 161.143 454.676Z" fill="#BEFAC1"/>
<path fill-rule="evenodd" clip-rule="evenodd" d="M232.971 2.0609C228.812 3.6849 225.362 6.3079 218.822 12.8179C214.065 17.5519 207.852 23.6719 205.016 26.4159C202.069 29.2689 198.516 34.1359 196.723 37.7779C193.996 43.3179 193.584 45.2099 193.567 52.2869C193.541 62.4369 195.48 68.3769 202.175 78.6649C213.823 96.5649 246.639 123.808 265.775 131.464C268.083 132.388 269.971 133.326 269.971 133.549C269.971 133.772 267.866 136.535 265.294 139.69C251.92 156.091 241.078 178.573 235.041 202.426L234.029 206.426H204.25C181.901 206.426 170.604 206.877 158.971 208.235C150.446 209.229 142.658 210.129 141.664 210.235C140.265 210.383 139.107 208.501 136.544 201.914C131.845 189.843 125.01 176.68 118.805 167.753C111.091 156.655 96.3789 140.247 89.7589 135.361C81.1249 128.987 76.5169 128.233 58.0489 130.172C56.2539 130.36 55.1489 129.617 53.7809 127.303L51.9349 124.18L55.4159 119.007C61.4389 110.057 61.3699 102.248 55.1759 92.0229C49.7099 83.0009 43.6389 76.4279 38.4519 73.9169C29.7529 69.7059 18.8499 72.3639 8.48793 81.2209C-3.42207 91.4009 -2.80507 104.378 10.3819 121.077C17.4779 130.062 21.0519 132.309 28.9589 132.755C33.8579 133.032 36.5359 132.685 38.8909 131.467C42.4879 129.607 43.4529 130.037 46.2079 134.731C47.8789 137.578 47.8679 137.787 45.9229 140.26C40.1819 147.558 38.0499 158.21 40.4859 167.426C42.3479 174.471 51.7889 192.866 59.7329 204.926C65.0449 212.991 85.1209 234.36 92.7459 240.065L96.0209 242.516L89.3339 252.471C69.5899 281.865 55.9469 324.331 55.9859 356.275C56.0079 374.402 58.8879 384.401 66.5229 392.852C71.9709 398.882 78.6999 401.392 89.4709 401.411C97.5759 401.424 98.9989 401.134 103.779 398.486C118.802 390.163 132.41 368.862 143.757 335.909C147.592 324.769 153.622 302.426 155.973 290.641L157.127 284.857L164.799 285.636C183.052 287.49 229.508 286.05 239.088 283.334C240.384 282.967 241.63 285.683 245.355 296.998C256.707 331.48 273.82 366.361 289.3 386.566C297.011 396.631 307.836 401.48 320.906 400.724C339.922 399.623 353.666 385.906 354.765 366.932C355.131 360.601 354.634 357.244 351.65 345.912C343.759 315.948 330.106 284.709 312.821 257.072C309.604 251.927 306.971 247.38 306.971 246.968C306.971 246.556 309.159 241.765 311.832 236.322C320.201 219.286 329.037 193.675 333.481 173.576L335.216 165.725L338.344 166.369C358.235 170.466 389.461 172.101 400.021 169.599C415.454 165.943 425.532 159.628 430.041 150.789C431.125 148.664 432.178 146.926 432.382 146.926C432.586 146.926 434.714 147.816 437.112 148.904C442.697 151.438 445.207 151.428 447.53 148.86C450.058 146.067 450.091 137.284 447.587 133.463C445.968 130.992 445.383 130.772 442.123 131.405C440.114 131.795 437.233 132.348 435.721 132.634C433.814 132.994 432.968 132.735 432.961 131.789C432.94 128.852 427.899 119.803 423.816 115.373C414.766 105.556 409.168 103.002 388.971 99.4769C366.157 95.4959 359.373 95.3489 331.596 98.2309C330.111 98.3859 329.362 97.1779 327.995 92.4259C324.127 78.9799 317.339 65.4349 305.34 47.2209C290.613 24.8669 275.967 10.1159 261.988 3.5599C253.223 -0.551103 241.244 -1.1701 232.971 2.0609ZM259.778 7.0829C267.314 10.6969 281.683 23.9979 290.845 35.8429L296.977 43.7679L285.224 32.0689C272.408 19.3099 265.038 14.5709 252.958 11.3209C243.794 8.8539 242.445 7.5949 245.595 4.4449C247.67 2.3689 251.392 3.0619 259.778 7.0829ZM234.438 24.4589C242.468 26.5509 251.381 30.9439 261.759 37.9249C273.86 46.0649 280 51.5959 269.471 44.8719C253.039 34.3789 239.975 29.9259 225.62 29.9259C220.426 29.9259 219.056 29.5899 218.517 28.1849C217.6 25.7959 221.341 22.9259 225.372 22.9259C227.12 22.9259 231.2 23.6159 234.438 24.4589ZM34.2529 77.2939C37.8839 78.8369 43.6419 84.1769 47.0019 89.1179L49.2509 92.4259L46.5629 89.6669C42.2809 85.2739 39.3509 83.7549 33.8379 83.0679C28.0349 82.3449 25.7009 80.1609 27.9009 77.5099C29.5059 75.5769 30.1609 75.5539 34.2529 77.2939ZM392.327 106.507C404.336 109.597 415.139 116.086 420.146 123.216L422.4 126.426L418.658 123.182C410.957 116.507 398.225 112.08 384.222 111.208C374.795 110.621 372.165 109.47 373.328 106.439C374.117 104.382 384.208 104.418 392.327 106.507ZM80.5679 136.973C89.2559 141.179 101.119 154.308 111.732 171.465C121.15 186.69 120.97 187.571 111.228 173.926C99.1839 157.058 87.7849 146.936 75.7849 142.454C70.7949 140.59 69.2219 138.534 71.0759 136.299C72.6719 134.377 75.6389 134.587 80.5679 136.973ZM225.53 211.367C227.096 212.53 227.253 213.158 226.34 214.617C225.079 216.634 224.077 216.663 215.471 214.93C212.171 214.265 203.621 213.41 196.471 213.03L183.471 212.338L191.971 211.624C196.646 211.232 202.046 210.761 203.971 210.578C213.923 209.633 223.675 209.99 225.53 211.367ZM288.137 238.676C294.949 245.963 310.971 271.056 310.971 274.437C310.971 274.899 308.18 271.036 304.77 265.852C301.359 260.668 294.33 252.053 289.15 246.709C282.85 240.208 279.927 236.484 280.32 235.459C281.325 232.839 283.529 233.746 288.137 238.676ZM147.777 256.426C149.536 261.807 149.391 277.264 147.502 285.63C145.828 293.044 140.974 307.262 140.335 306.624C140.116 306.405 141.149 301.321 142.631 295.326C146.288 280.524 146.467 266.76 143.1 259.237C140.59 253.629 140.929 251.636 144.315 252.119C145.829 252.335 146.858 253.614 147.777 256.426ZM66.1959 417.709C61.0089 418.536 60.8769 419.653 61.1849 459.886C61.4579 495.382 61.5599 497.154 63.4119 498.507C64.9539 499.634 70.0479 499.926 88.1619 499.926C109.638 499.926 111.088 499.809 112.971 497.926C115.674 495.223 115.489 491.354 112.516 488.381C110.102 485.966 109.781 485.926 93.0159 485.926H75.9709V455.575C75.9709 436.552 75.5709 424.076 74.8979 422.148C73.7549 418.868 70.2239 417.067 66.1959 417.709ZM153.345 417.983C152.276 418.379 150.927 419.315 150.347 420.064C148.152 422.897 118.971 490.823 118.971 493.098C118.971 497.35 121.639 499.926 126.042 499.926C130.614 499.926 131.968 498.244 136.688 486.698L139.471 479.892L155.936 480.159L172.402 480.426L176.002 488.601C180.612 499.07 181.37 499.926 186.037 499.926C190.258 499.926 192.971 497.298 192.971 493.211C192.971 490.984 164.346 424.673 161.528 420.373C159.934 417.94 156.317 416.884 153.345 417.983ZM202.971 417.719C202.146 417.976 200.684 418.873 199.721 419.711C198.112 421.113 197.971 424.278 197.971 458.926C197.971 494.169 198.09 496.723 199.8 498.271C200.806 499.181 203.255 499.926 205.243 499.926C212.006 499.926 211.971 500.142 211.971 458.358C211.971 424.247 211.829 421.113 210.221 419.722C208.142 417.924 205.052 417.07 202.971 417.719ZM219.606 418.999L216.971 421.071V458.844C216.971 494.167 217.09 496.723 218.8 498.271C219.806 499.181 222.255 499.926 224.243 499.926C229.49 499.926 230.971 497.29 230.971 487.949V480.418L236.097 474.158L241.224 467.898L251.651 482.662C257.386 490.782 262.815 497.989 263.716 498.676C266.137 500.524 271.407 500.206 273.316 498.097C276.891 494.147 275.574 490.982 263.01 473.315C252.814 458.977 251.241 456.27 252.35 454.961C272.561 431.091 275.074 427.636 274.773 424.138C274.568 421.751 273.646 420.011 271.898 418.712C267.072 415.125 265.104 416.651 247.648 437.509L231.471 456.839L231.199 438.938L230.926 421.036L228.314 418.981C225.012 416.384 222.925 416.388 219.606 418.999ZM314.196 417.717C312.945 417.912 311.307 419.051 310.556 420.249C307.743 424.736 278.971 491.713 278.971 493.775C278.971 499.01 287.676 502.12 291.256 498.164C292.133 497.195 294.384 492.807 296.258 488.414L299.666 480.426L316.155 480.153L332.645 479.879L336.058 487.947C340.248 497.851 342.032 499.926 346.355 499.926C350.356 499.926 353.322 497.021 353.26 493.163C353.212 490.142 323.8 422.499 321.365 419.809C319.599 417.858 317.403 417.217 314.196 417.717ZM321.409 454.275C323.993 460.242 325.909 465.322 325.667 465.563C325.426 465.804 320.974 465.872 315.774 465.714L306.319 465.426L311.3 454.164C314.04 447.97 316.378 443.02 316.497 443.164C316.616 443.308 318.826 448.308 321.409 454.275ZM161.143 454.676L165.781 465.426L156.247 465.714C151.003 465.872 146.558 465.846 146.368 465.657C145.881 465.17 155.228 443.926 155.929 443.926C156.246 443.926 158.592 448.763 161.143 454.676Z" fill="#BEFAC1"/>
<path fill-rule="evenodd" clip-rule="evenodd" d="M232.971 2.0609C228.812 3.6849 225.362 6.3079 218.822 12.8179C214.065 17.5519 207.852 23.6719 205.016 26.4159C202.069 29.2689 198.516 34.1359 196.723 37.7779C193.996 43.3179 193.584 45.2099 193.567 52.2869C193.541 62.4369 195.48 68.3769 202.175 78.6649C213.823 96.5649 246.639 123.808 265.775 131.464C268.083 132.388 269.971 133.326 269.971 133.549C269.971 133.772 267.866 136.535 265.294 139.69C251.92 156.091 241.078 178.573 235.041 202.426L234.029 206.426H204.25C181.901 206.426 170.604 206.877 158.971 208.235C150.446 209.229 142.658 210.129 141.664 210.235C140.265 210.383 139.107 208.501 136.544 201.914C131.845 189.843 125.01 176.68 118.805 167.753C111.091 156.655 96.3789 140.247 89.7589 135.361C81.1249 128.987 76.5169 128.233 58.0489 130.172C56.2539 130.36 55.1489 129.617 53.7809 127.303L51.9349 124.18L55.4159 119.007C61.4389 110.057 61.3699 102.248 55.1759 92.0229C49.7099 83.0009 43.6389 76.4279 38.4519 73.9169C29.7529 69.7059 18.8499 72.3639 8.48793 81.2209C-3.42207 91.4009 -2.80507 104.378 10.3819 121.077C17.4779 130.062 21.0519 132.309 28.9589 132.755C33.8579 133.032 36.5359 132.685 38.8909 131.467C42.4879 129.607 43.4529 130.037 46.2079 134.731C47.8789 137.578 47.8679 137.787 45.9229 140.26C40.1819 147.558 38.0499 158.21 40.4859 167.426C42.3479 174.471 51.7889 192.866 59.7329 204.926C65.0449 212.991 85.1209 234.36 92.7459 240.065L96.0209 242.516L89.3339 252.471C69.5899 281.865 55.9469 324.331 55.9859 356.275C56.0079 374.402 58.8879 384.401 66.5229 392.852C71.9709 398.882 78.6999 401.392 89.4709 401.411C97.5759 401.424 98.9989 401.134 103.779 398.486C118.802 390.163 132.41 368.862 143.757 335.909C147.592 324.769 153.622 302.426 155.973 290.641L157.127 284.857L164.799 285.636C183.052 287.49 229.508 286.05 239.088 283.334C240.384 282.967 241.63 285.683 245.355 296.998C256.707 331.48 273.82 366.361 289.3 386.566C297.011 396.631 307.836 401.48 320.906 400.724C339.922 399.623 353.666 385.906 354.765 366.932C355.131 360.601 354.634 357.244 351.65 345.912C343.759 315.948 330.106 284.709 312.821 257.072C309.604 251.927 306.971 247.38 306.971 246.968C306.971 246.556 309.159 241.765 311.832 236.322C320.201 219.286 329.037 193.675 333.481 173.576L335.216 165.725L338.344 166.369C358.235 170.466 389.461 172.101 400.021 169.599C415.454 165.943 425.532 159.628 430.041 150.789C431.125 148.664 432.178 146.926 432.382 146.926C432.586 146.926 434.714 147.816 437.112 148.904C442.697 151.438 445.207 151.428 447.53 148.86C450.058 146.067 450.091 137.284 447.587 133.463C445.968 130.992 445.383 130.772 442.123 131.405C440.114 131.795 437.233 132.348 435.721 132.634C433.814 132.994 432.968 132.735 432.961 131.789C432.94 128.852 427.899 119.803 423.816 115.373C414.766 105.556 409.168 103.002 388.971 99.4769C366.157 95.4959 359.373 95.3489 331.596 98.2309C330.111 98.3859 329.362 97.1779 327.995 92.4259C324.127 78.9799 317.339 65.4349 305.34 47.2209C290.613 24.8669 275.967 10.1159 261.988 3.5599C253.223 -0.551103 241.244 -1.1701 232.971 2.0609ZM259.778 7.0829C267.314 10.6969 281.683 23.9979 290.845 35.8429L296.977 43.7679L285.224 32.0689C272.408 19.3099 265.038 14.5709 252.958 11.3209C243.794 8.8539 242.445 7.5949 245.595 4.4449C247.67 2.3689 251.392 3.0619 259.778 7.0829ZM234.438 24.4589C242.468 26.5509 251.381 30.9439 261.759 37.9249C273.86 46.0649 280 51.5959 269.471 44.8719C253.039 34.3789 239.975 29.9259 225.62 29.9259C220.426 29.9259 219.056 29.5899 218.517 28.1849C217.6 25.7959 221.341 22.9259 225.372 22.9259C227.12 22.9259 231.2 23.6159 234.438 24.4589ZM34.2529 77.2939C37.8839 78.8369 43.6419 84.1769 47.0019 89.1179L49.2509 92.4259L46.5629 89.6669C42.2809 85.2739 39.3509 83.7549 33.8379 83.0679C28.0349 82.3449 25.7009 80.1609 27.9009 77.5099C29.5059 75.5769 30.1609 75.5539 34.2529 77.2939ZM392.327 106.507C404.336 109.597 415.139 116.086 420.146 123.216L422.4 126.426L418.658 123.182C410.957 116.507 398.225 112.08 384.222 111.208C374.795 110.621 372.165 109.47 373.328 106.439C374.117 104.382 384.208 104.418 392.327 106.507ZM80.5679 136.973C89.2559 141.179 101.119 154.308 111.732 171.465C121.15 186.69 120.97 187.571 111.228 173.926C99.1839 157.058 87.7849 146.936 75.7849 142.454C70.7949 140.59 69.2219 138.534 71.0759 136.299C72.6719 134.377 75.6389 134.587 80.5679 136.973ZM225.53 211.367C227.096 212.53 227.253 213.158 226.34 214.617C225.079 216.634 224.077 216.663 215.471 214.93C212.171 214.265 203.621 213.41 196.471 213.03L183.471 212.338L191.971 211.624C196.646 211.232 202.046 210.761 203.971 210.578C213.923 209.633 223.675 209.99 225.53 211.367ZM288.137 238.676C294.949 245.963 310.971 271.056 310.971 274.437C310.971 274.899 308.18 271.036 304.77 265.852C301.359 260.668 294.33 252.053 289.15 246.709C282.85 240.208 279.927 236.484 280.32 235.459C281.325 232.839 283.529 233.746 288.137 238.676ZM147.777 256.426C149.536 261.807 149.391 277.264 147.502 285.63C145.828 293.044 140.974 307.262 140.335 306.624C140.116 306.405 141.149 301.321 142.631 295.326C146.288 280.524 146.467 266.76 143.1 259.237C140.59 253.629 140.929 251.636 144.315 252.119C145.829 252.335 146.858 253.614 147.777 256.426ZM66.1959 417.709C61.0089 418.536 60.8769 419.653 61.1849 459.886C61.4579 495.382 61.5599 497.154 63.4119 498.507C64.9539 499.634 70.0479 499.926 88.1619 499.926C109.638 499.926 111.088 499.809 112.971 497.926C115.674 495.223 115.489 491.354 112.516 488.381C110.102 485.966 109.781 485.926 93.0159 485.926H75.9709V455.575C75.9709 436.552 75.5709 424.076 74.8979 422.148C73.7549 418.868 70.2239 417.067 66.1959 417.709ZM153.345 417.983C152.276 418.379 150.927 419.315 150.347 420.064C148.152 422.897 118.971 490.823 118.971 493.098C118.971 497.35 121.639 499.926 126.042 499.926C130.614 499.926 131.968 498.244 136.688 486.698L139.471 479.892L155.936 480.159L172.402 480.426L176.002 488.601C180.612 499.07 181.37 499.926 186.037 499.926C190.258 499.926 192.971 497.298 192.971 493.211C192.971 490.984 164.346 424.673 161.528 420.373C159.934 417.94 156.317 416.884 153.345 417.983ZM202.971 417.719C202.146 417.976 200.684 418.873 199.721 419.711C198.112 421.113 197.971 424.278 197.971 458.926C197.971 494.169 198.09 496.723 199.8 498.271C200.806 499.181 203.255 499.926 205.243 499.926C212.006 499.926 211.971 500.142 211.971 458.358C211.971 424.247 211.829 421.113 210.221 419.722C208.142 417.924 205.052 417.07 202.971 417.719ZM219.606 418.999L216.971 421.071V458.844C216.971 494.167 217.09 496.723 218.8 498.271C219.806 499.181 222.255 499.926 224.243 499.926C229.49 499.926 230.971 497.29 230.971 487.949V480.418L236.097 474.158L241.224 467.898L251.651 482.662C257.386 490.782 262.815 497.989 263.716 498.676C266.137 500.524 271.407 500.206 273.316 498.097C276.891 494.147 275.574 490.982 263.01 473.315C252.814 458.977 251.241 456.27 252.35 454.961C272.561 431.091 275.074 427.636 274.773 424.138C274.568 421.751 273.646 420.011 271.898 418.712C267.072 415.125 265.104 416.651 247.648 437.509L231.471 456.839L231.199 438.938L230.926 421.036L228.314 418.981C225.012 416.384 222.925 416.388 219.606 418.999ZM314.196 417.717C312.945 417.912 311.307 419.051 310.556 420.249C307.743 424.736 278.971 491.713 278.971 493.775C278.971 499.01 287.676 502.12 291.256 498.164C292.133 497.195 294.384 492.807 296.258 488.414L299.666 480.426L316.155 480.153L332.645 479.879L336.058 487.947C340.248 497.851 342.032 499.926 346.355 499.926C350.356 499.926 353.322 497.021 353.26 493.163C353.212 490.142 323.8 422.499 321.365 419.809C319.599 417.858 317.403 417.217 314.196 417.717ZM321.409 454.275C323.993 460.242 325.909 465.322 325.667 465.563C325.426 465.804 320.974 465.872 315.774 465.714L306.319 465.426L311.3 454.164C314.04 447.97 316.378 443.02 316.497 443.164C316.616 443.308 318.826 448.308 321.409 454.275ZM161.143 454.676L165.781 465.426L156.247 465.714C151.003 465.872 146.558 465.846 146.368 465.657C145.881 465.17 155.228 443.926 155.929 443.926C156.246 443.926 158.592 448.763 161.143 454.676Z" fill="#BEFAC1"/>
<path fill-rule="evenodd" clip-rule="evenodd" d="M232.971 2.0609C228.812 3.6849 225.362 6.3079 218.822 12.8179C214.065 17.5519 207.852 23.6719 205.016 26.4159C202.069 29.2689 198.516 34.1359 196.723 37.7779C193.996 43.3179 193.584 45.2099 193.567 52.2869C193.541 62.4369 195.48 68.3769 202.175 78.6649C213.823 96.5649 246.639 123.808 265.775 131.464C268.083 132.388 269.971 133.326 269.971 133.549C269.971 133.772 267.866 136.535 265.294 139.69C251.92 156.091 241.078 178.573 235.041 202.426L234.029 206.426H204.25C181.901 206.426 170.604 206.877 158.971 208.235C150.446 209.229 142.658 210.129 141.664 210.235C140.265 210.383 139.107 208.501 136.544 201.914C131.845 189.843 125.01 176.68 118.805 167.753C111.091 156.655 96.3789 140.247 89.7589 135.361C81.1249 128.987 76.5169 128.233 58.0489 130.172C56.2539 130.36 55.1489 129.617 53.7809 127.303L51.9349 124.18L55.4159 119.007C61.4389 110.057 61.3699 102.248 55.1759 92.0229C49.7099 83.0009 43.6389 76.4279 38.4519 73.9169C29.7529 69.7059 18.8499 72.3639 8.48793 81.2209C-3.42207 91.4009 -2.80507 104.378 10.3819 121.077C17.4779 130.062 21.0519 132.309 28.9589 132.755C33.8579 133.032 36.5359 132.685 38.8909 131.467C42.4879 129.607 43.4529 130.037 46.2079 134.731C47.8789 137.578 47.8679 137.787 45.9229 140.26C40.1819 147.558 38.0499 158.21 40.4859 167.426C42.3479 174.471 51.7889 192.866 59.7329 204.926C65.0449 212.991 85.1209 234.36 92.7459 240.065L96.0209 242.516L89.3339 252.471C69.5899 281.865 55.9469 324.331 55.9859 356.275C56.0079 374.402 58.8879 384.401 66.5229 392.852C71.9709 398.882 78.6999 401.392 89.4709 401.411C97.5759 401.424 98.9989 401.134 103.779 398.486C118.802 390.163 132.41 368.862 143.757 335.909C147.592 324.769 153.622 302.426 155.973 290.641L157.127 284.857L164.799 285.636C183.052 287.49 229.508 286.05 239.088 283.334C240.384 282.967 241.63 285.683 245.355 296.998C256.707 331.48 273.82 366.361 289.3 386.566C297.011 396.631 307.836 401.48 320.906 400.724C339.922 399.623 353.666 385.906 354.765 366.932C355.131 360.601 354.634 357.244 351.65 345.912C343.759 315.948 330.106 284.709 312.821 257.072C309.604 251.927 306.971 247.38 306.971 246.968C306.971 246.556 309.159 241.765 311.832 236.322C320.201 219.286 329.037 193.675 333.481 173.576L335.216 165.725L338.344 166.369C358.235 170.466 389.461 172.101 400.021 169.599C415.454 165.943 425.532 159.628 430.041 150.789C431.125 148.664 432.178 146.926 432.382 146.926C432.586 146.926 434.714 147.816 437.112 148.904C442.697 151.438 445.207 151.428 447.53 148.86C450.058 146.067 450.091 137.284 447.587 133.463C445.968 130.992 445.383 130.772 442.123 131.405C440.114 131.795 437.233 132.348 435.721 132.634C433.814 132.994 432.968 132.735 432.961 131.789C432.94 128.852 427.899 119.803 423.816 115.373C414.766 105.556 409.168 103.002 388.971 99.4769C366.157 95.4959 359.373 95.3489 331.596 98.2309C330.111 98.3859 329.362 97.1779 327.995 92.4259C324.127 78.9799 317.339 65.4349 305.34 47.2209C290.613 24.8669 275.967 10.1159 261.988 3.5599C253.223 -0.551103 241.244 -1.1701 232.971 2.0609ZM259.778 7.0829C267.314 10.6969 281.683 23.9979 290.845 35.8429L296.977 43.7679L285.224 32.0689C272.408 19.3099 265.038 14.5709 252.958 11.3209C243.794 8.8539 242.445 7.5949 245.595 4.4449C247.67 2.3689 251.392 3.0619 259.778 7.0829ZM234.438 24.4589C242.468 26.5509 251.381 30.9439 261.759 37.9249C273.86 46.0649 280 51.5959 269.471 44.8719C253.039 34.3789 239.975 29.9259 225.62 29.9259C220.426 29.9259 219.056 29.5899 218.517 28.1849C217.6 25.7959 221.341 22.9259 225.372 22.9259C227.12 22.9259 231.2 23.6159 234.438 24.4589ZM34.2529 77.2939C37.8839 78.8369 43.6419 84.1769 47.0019 89.1179L49.2509 92.4259L46.5629 89.6669C42.2809 85.2739 39.3509 83.7549 33.8379 83.0679C28.0349 82.3449 25.7009 80.1609 27.9009 77.5099C29.5059 75.5769 30.1609 75.5539 34.2529 77.2939ZM392.327 106.507C404.336 109.597 415.139 116.086 420.146 123.216L422.4 126.426L418.658 123.182C410.957 116.507 398.225 112.08 384.222 111.208C374.795 110.621 372.165 109.47 373.328 106.439C374.117 104.382 384.208 104.418 392.327 106.507ZM80.5679 136.973C89.2559 141.179 101.119 154.308 111.732 171.465C121.15 186.69 120.97 187.571 111.228 173.926C99.1839 157.058 87.7849 146.936 75.7849 142.454C70.7949 140.59 69.2219 138.534 71.0759 136.299C72.6719 134.377 75.6389 134.587 80.5679 136.973ZM225.53 211.367C227.096 212.53 227.253 213.158 226.34 214.617C225.079 216.634 224.077 216.663 215.471 214.93C212.171 214.265 203.621 213.41 196.471 213.03L183.471 212.338L191.971 211.624C196.646 211.232 202.046 210.761 203.971 210.578C213.923 209.633 223.675 209.99 225.53 211.367ZM288.137 238.676C294.949 245.963 310.971 271.056 310.971 274.437C310.971 274.899 308.18 271.036 304.77 265.852C301.359 260.668 294.33 252.053 289.15 246.709C282.85 240.208 279.927 236.484 280.32 235.459C281.325 232.839 283.529 233.746 288.137 238.676ZM147.777 256.426C149.536 261.807 149.391 277.264 147.502 285.63C145.828 293.044 140.974 307.262 140.335 306.624C140.116 306.405 141.149 301.321 142.631 295.326C146.288 280.524 146.467 266.76 143.1 259.237C140.59 253.629 140.929 251.636 144.315 252.119C145.829 252.335 146.858 253.614 147.777 256.426ZM66.1959 417.709C61.0089 418.536 60.8769 419.653 61.1849 459.886C61.4579 495.382 61.5599 497.154 63.4119 498.507C64.9539 499.634 70.0479 499.926 88.1619 499.926C109.638 499.926 111.088 499.809 112.971 497.926C115.674 495.223 115.489 491.354 112.516 488.381C110.102 485.966 109.781 485.926 93.0159 485.926H75.9709V455.575C75.9709 436.552 75.5709 424.076 74.8979 422.148C73.7549 418.868 70.2239 417.067 66.1959 417.709ZM153.345 417.983C152.276 418.379 150.927 419.315 150.347 420.064C148.152 422.897 118.971 490.823 118.971 493.098C118.971 497.35 121.639 499.926 126.042 499.926C130.614 499.926 131.968 498.244 136.688 486.698L139.471 479.892L155.936 480.159L172.402 480.426L176.002 488.601C180.612 499.07 181.37 499.926 186.037 499.926C190.258 499.926 192.971 497.298 192.971 493.211C192.971 490.984 164.346 424.673 161.528 420.373C159.934 417.94 156.317 416.884 153.345 417.983ZM202.971 417.719C202.146 417.976 200.684 418.873 199.721 419.711C198.112 421.113 197.971 424.278 197.971 458.926C197.971 494.169 198.09 496.723 199.8 498.271C200.806 499.181 203.255 499.926 205.243 499.926C212.006 499.926 211.971 500.142 211.971 458.358C211.971 424.247 211.829 421.113 210.221 419.722C208.142 417.924 205.052 417.07 202.971 417.719ZM219.606 418.999L216.971 421.071V458.844C216.971 494.167 217.09 496.723 218.8 498.271C219.806 499.181 222.255 499.926 224.243 499.926C229.49 499.926 230.971 497.29 230.971 487.949V480.418L236.097 474.158L241.224 467.898L251.651 482.662C257.386 490.782 262.815 497.989 263.716 498.676C266.137 500.524 271.407 500.206 273.316 498.097C276.891 494.147 275.574 490.982 263.01 473.315C252.814 458.977 251.241 456.27 252.35 454.961C272.561 431.091 275.074 427.636 274.773 424.138C274.568 421.751 273.646 420.011 271.898 418.712C267.072 415.125 265.104 416.651 247.648 437.509L231.471 456.839L231.199 438.938L230.926 421.036L228.314 418.981C225.012 416.384 222.925 416.388 219.606 418.999ZM314.196 417.717C312.945 417.912 311.307 419.051 310.556 420.249C307.743 424.736 278.971 491.713 278.971 493.775C278.971 499.01 287.676 502.12 291.256 498.164C292.133 497.195 294.384 492.807 296.258 488.414L299.666 480.426L316.155 480.153L332.645 479.879L336.058 487.947C340.248 497.851 342.032 499.926 346.355 499.926C350.356 499.926 353.322 497.021 353.26 493.163C353.212 490.142 323.8 422.499 321.365 419.809C319.599 417.858 317.403 417.217 314.196 417.717ZM321.409 454.275C323.993 460.242 325.909 465.322 325.667 465.563C325.426 465.804 320.974 465.872 315.774 465.714L306.319 465.426L311.3 454.164C314.04 447.97 316.378 443.02 316.497 443.164C316.616 443.308 318.826 448.308 321.409 454.275ZM161.143 454.676L165.781 465.426L156.247 465.714C151.003 465.872 146.558 465.846 146.368 465.657C145.881 465.17 155.228 443.926 155.929 443.926C156.246 443.926 158.592 448.763 161.143 454.676Z" fill="#BEFAC1"/>
<path fill-rule="evenodd" clip-rule="evenodd" d="M232.971 2.0609C228.812 3.6849 225.362 6.3079 218.822 12.8179C214.065 17.5519 207.852 23.6719 205.016 26.4159C202.069 29.2689 198.516 34.1359 196.723 37.7779C193.996 43.3179 193.584 45.2099 193.567 52.2869C193.541 62.4369 195.48 68.3769 202.175 78.6649C213.823 96.5649 246.639 123.808 265.775 131.464C268.083 132.388 269.971 133.326 269.971 133.549C269.971 133.772 267.866 136.535 265.294 139.69C251.92 156.091 241.078 178.573 235.041 202.426L234.029 206.426H204.25C181.901 206.426 170.604 206.877 158.971 208.235C150.446 209.229 142.658 210.129 141.664 210.235C140.265 210.383 139.107 208.501 136.544 201.914C131.845 189.843 125.01 176.68 118.805 167.753C111.091 156.655 96.3789 140.247 89.7589 135.361C81.1249 128.987 76.5169 128.233 58.0489 130.172C56.2539 130.36 55.1489 129.617 53.7809 127.303L51.9349 124.18L55.4159 119.007C61.4389 110.057 61.3699 102.248 55.1759 92.0229C49.7099 83.0009 43.6389 76.4279 38.4519 73.9169C29.7529 69.7059 18.8499 72.3639 8.48793 81.2209C-3.42207 91.4009 -2.80507 104.378 10.3819 121.077C17.4779 130.062 21.0519 132.309 28.9589 132.755C33.8579 133.032 36.5359 132.685 38.8909 131.467C42.4879 129.607 43.4529 130.037 46.2079 134.731C47.8789 137.578 47.8679 137.787 45.9229 140.26C40.1819 147.558 38.0499 158.21 40.4859 167.426C42.3479 174.471 51.7889 192.866 59.7329 204.926C65.0449 212.991 85.1209 234.36 92.7459 240.065L96.0209 242.516L89.3339 252.471C69.5899 281.865 55.9469 324.331 55.9859 356.275C56.0079 374.402 58.8879 384.401 66.5229 392.852C71.9709 398.882 78.6999 401.392 89.4709 401.411C97.5759 401.424 98.9989 401.134 103.779 398.486C118.802 390.163 132.41 368.862 143.757 335.909C147.592 324.769 153.622 302.426 155.973 290.641L157.127 284.857L164.799 285.636C183.052 287.49 229.508 286.05 239.088 283.334C240.384 282.967 241.63 285.683 245.355 296.998C256.707 331.48 273.82 366.361 289.3 386.566C297.011 396.631 307.836 401.48 320.906 400.724C339.922 399.623 353.666 385.906 354.765 366.932C355.131 360.601 354.634 357.244 351.65 345.912C343.759 315.948 330.106 284.709 312.821 257.072C309.604 251.927 306.971 247.38 306.971 246.968C306.971 246.556 309.159 241.765 311.832 236.322C320.201 219.286 329.037 193.675 333.481 173.576L335.216 165.725L338.344 166.369C358.235 170.466 389.461 172.101 400.021 169.599C415.454 165.943 425.532 159.628 430.041 150.789C431.125 148.664 432.178 146.926 432.382 146.926C432.586 146.926 434.714 147.816 437.112 148.904C442.697 151.438 445.207 151.428 447.53 148.86C450.058 146.067 450.091 137.284 447.587 133.463C445.968 130.992 445.383 130.772 442.123 131.405C440.114 131.795 437.233 132.348 435.721 132.634C433.814 132.994 432.968 132.735 432.961 131.789C432.94 128.852 427.899 119.803 423.816 115.373C414.766 105.556 409.168 103.002 388.971 99.4769C366.157 95.4959 359.373 95.3489 331.596 98.2309C330.111 98.3859 329.362 97.1779 327.995 92.4259C324.127 78.9799 317.339 65.4349 305.34 47.2209C290.613 24.8669 275.967 10.1159 261.988 3.5599C253.223 -0.551103 241.244 -1.1701 232.971 2.0609ZM259.778 7.0829C267.314 10.6969 281.683 23.9979 290.845 35.8429L296.977 43.7679L285.224 32.0689C272.408 19.3099 265.038 14.5709 252.958 11.3209C243.794 8.8539 242.445 7.5949 245.595 4.4449C247.67 2.3689 251.392 3.0619 259.778 7.0829ZM234.438 24.4589C242.468 26.5509 251.381 30.9439 261.759 37.9249C273.86 46.0649 280 51.5959 269.471 44.8719C253.039 34.3789 239.975 29.9259 225.62 29.9259C220.426 29.9259 219.056 29.5899 218.517 28.1849C217.6 25.7959 221.341 22.9259 225.372 22.9259C227.12 22.9259 231.2 23.6159 234.438 24.4589ZM34.2529 77.2939C37.8839 78.8369 43.6419 84.1769 47.0019 89.1179L49.2509 92.4259L46.5629 89.6669C42.2809 85.2739 39.3509 83.7549 33.8379 83.0679C28.0349 82.3449 25.7009 80.1609 27.9009 77.5099C29.5059 75.5769 30.1609 75.5539 34.2529 77.2939ZM392.327 106.507C404.336 109.597 415.139 116.086 420.146 123.216L422.4 126.426L418.658 123.182C410.957 116.507 398.225 112.08 384.222 111.208C374.795 110.621 372.165 109.47 373.328 106.439C374.117 104.382 384.208 104.418 392.327 106.507ZM80.5679 136.973C89.2559 141.179 101.119 154.308 111.732 171.465C121.15 186.69 120.97 187.571 111.228 173.926C99.1839 157.058 87.7849 146.936 75.7849 142.454C70.7949 140.59 69.2219 138.534 71.0759 136.299C72.6719 134.377 75.6389 134.587 80.5679 136.973ZM225.53 211.367C227.096 212.53 227.253 213.158 226.34 214.617C225.079 216.634 224.077 216.663 215.471 214.93C212.171 214.265 203.621 213.41 196.471 213.03L183.471 212.338L191.971 211.624C196.646 211.232 202.046 210.761 203.971 210.578C213.923 209.633 223.675 209.99 225.53 211.367ZM288.137 238.676C294.949 245.963 310.971 271.056 310.971 274.437C310.971 274.899 308.18 271.036 304.77 265.852C301.359 260.668 294.33 252.053 289.15 246.709C282.85 240.208 279.927 236.484 280.32 235.459C281.325 232.839 283.529 233.746 288.137 238.676ZM147.777 256.426C149.536 261.807 149.391 277.264 147.502 285.63C145.828 293.044 140.974 307.262 140.335 306.624C140.116 306.405 141.149 301.321 142.631 295.326C146.288 280.524 146.467 266.76 143.1 259.237C140.59 253.629 140.929 251.636 144.315 252.119C145.829 252.335 146.858 253.614 147.777 256.426ZM66.1959 417.709C61.0089 418.536 60.8769 419.653 61.1849 459.886C61.4579 495.382 61.5599 497.154 63.4119 498.507C64.9539 499.634 70.0479 499.926 88.1619 499.926C109.638 499.926 111.088 499.809 112.971 497.926C115.674 495.223 115.489 491.354 112.516 488.381C110.102 485.966 109.781 485.926 93.0159 485.926H75.9709V455.575C75.9709 436.552 75.5709 424.076 74.8979 422.148C73.7549 418.868 70.2239 417.067 66.1959 417.709ZM153.345 417.983C152.276 418.379 150.927 419.315 150.347 420.064C148.152 422.897 118.971 490.823 118.971 493.098C118.971 497.35 121.639 499.926 126.042 499.926C130.614 499.926 131.968 498.244 136.688 486.698L139.471 479.892L155.936 480.159L172.402 480.426L176.002 488.601C180.612 499.07 181.37 499.926 186.037 499.926C190.258 499.926 192.971 497.298 192.971 493.211C192.971 490.984 164.346 424.673 161.528 420.373C159.934 417.94 156.317 416.884 153.345 417.983ZM202.971 417.719C202.146 417.976 200.684 418.873 199.721 419.711C198.112 421.113 197.971 424.278 197.971 458.926C197.971 494.169 198.09 496.723 199.8 498.271C200.806 499.181 203.255 499.926 205.243 499.926C212.006 499.926 211.971 500.142 211.971 458.358C211.971 424.247 211.829 421.113 210.221 419.722C208.142 417.924 205.052 417.07 202.971 417.719ZM219.606 418.999L216.971 421.071V458.844C216.971 494.167 217.09 496.723 218.8 498.271C219.806 499.181 222.255 499.926 224.243 499.926C229.49 499.926 230.971 497.29 230.971 487.949V480.418L236.097 474.158L241.224 467.898L251.651 482.662C257.386 490.782 262.815 497.989 263.716 498.676C266.137 500.524 271.407 500.206 273.316 498.097C276.891 494.147 275.574 490.982 263.01 473.315C252.814 458.977 251.241 456.27 252.35 454.961C272.561 431.091 275.074 427.636 274.773 424.138C274.568 421.751 273.646 420.011 271.898 418.712C267.072 415.125 265.104 416.651 247.648 437.509L231.471 456.839L231.199 438.938L230.926 421.036L228.314 418.981C225.012 416.384 222.925 416.388 219.606 418.999ZM314.196 417.717C312.945 417.912 311.307 419.051 310.556 420.249C307.743 424.736 278.971 491.713 278.971 493.775C278.971 499.01 287.676 502.12 291.256 498.164C292.133 497.195 294.384 492.807 296.258 488.414L299.666 480.426L316.155 480.153L332.645 479.879L336.058 487.947C340.248 497.851 342.032 499.926 346.355 499.926C350.356 499.926 353.322 497.021 353.26 493.163C353.212 490.142 323.8 422.499 321.365 419.809C319.599 417.858 317.403 417.217 314.196 417.717ZM321.409 454.275C323.993 460.242 325.909 465.322 325.667 465.563C325.426 465.804 320.974 465.872 315.774 465.714L306.319 465.426L311.3 454.164C314.04 447.97 316.378 443.02 316.497 443.164C316.616 443.308 318.826 448.308 321.409 454.275ZM161.143 454.676L165.781 465.426L156.247 465.714C151.003 465.872 146.558 465.846 146.368 465.657C145.881 465.17 155.228 443.926 155.929 443.926C156.246 443.926 158.592 448.763 161.143 454.676Z" fill="#BEFAC1"/>
</svg>
