<svg width="561" height="212" viewBox="0 0 561 212" fill="none" xmlns="http://www.w3.org/2000/svg">
<path d="M210.006 66.0671C200.233 66.0671 190.542 68.7456 180.769 74.1025C174.309 77.6181 167.186 82.7235 159.484 89.1691C159.649 83.8123 158.573 79.2081 156.088 75.5255C151.864 69.2478 143.995 66.1508 132.401 66.1508C122.627 66.1508 112.854 68.8293 103.081 74.2699C95.6269 78.3715 87.5096 84.2302 78.5647 91.9311L82.2921 69.4152H53.3037L14.2109 194.968H51.2332L76.163 114.782C80.8838 111.35 85.0254 108.504 88.5037 106.328C93.2245 103.398 97.366 101.222 100.928 99.7994C104.488 98.46 107.802 97.7907 110.866 97.7907C115.09 97.7907 117.741 98.8787 118.9 100.971C120.06 103.063 119.811 106.663 118.32 111.768L92.3136 194.968H128.093L153.024 115.368C157.993 111.518 162.299 108.42 166.027 106.077C170.665 103.147 174.723 100.971 178.202 99.7153C181.681 98.46 184.827 97.7907 187.726 97.7907C191.454 97.7907 193.938 98.7946 195.429 100.72C196.837 102.645 196.755 106.328 195.181 111.768L169.174 194.968H206.196L235.184 101.641C238.746 90.5918 238.415 81.8869 234.191 75.5255C229.883 69.1641 221.933 65.9834 210.172 65.9834L210.006 66.0671Z" fill="#BEFAC1"/>
<path d="M371.554 103.063C380.084 93.8551 387.373 82.5555 393.336 69.3303H355.071C351.261 77.9513 345.547 86.1542 338.092 93.771C330.638 101.389 322.108 108.168 312.418 114.111C305.709 118.212 299 121.812 292.126 124.825C295.273 119.803 297.923 115.032 300.242 110.261C302.727 105.155 304.88 99.8819 306.62 94.5244L330.39 16.9326H293.12L237.628 194.968H274.898L288.647 151.945C288.647 151.945 288.73 151.359 288.813 151.024C295.935 148.512 303.307 145.75 310.927 142.654L324.758 194.884H363.52L348.694 143.742C347.701 139.808 346.126 136.125 344.056 132.525C343.062 130.851 341.902 129.345 340.577 127.838C341.488 127.253 342.482 126.75 343.393 126.164C353.581 119.886 362.857 112.102 371.471 102.895L371.554 103.063Z" fill="#BEFAC1"/>
<path d="M545.402 81.794C543.993 76.5205 540.929 72.5864 536.373 69.9917C531.818 67.3968 526.103 66.0576 519.146 66.0576C508.876 66.0576 497.943 68.9872 486.265 74.93C476.657 79.7845 466.967 86.3134 457.359 94.433L461.667 69.322H432.43L393.337 194.96H430.607L454.958 116.865C463.654 110.755 471.026 106.151 477.072 103.138C483.781 99.7057 489.909 97.9484 495.459 97.7811C500.18 97.6137 503.078 98.7018 504.072 100.962C505.066 103.221 504.735 107.323 502.83 113.015L477.072 194.96H514.591L543.827 101.631C546.229 93.6796 546.726 87.0667 545.236 81.794H545.402Z" fill="#BEFAC1"/>
</svg>
