<svg width="157" height="24" viewBox="0 0 157 24" fill="none" xmlns="http://www.w3.org/2000/svg">
<g clip-path="url(#clip0_14_72)">
<path d="M42.1222 20.5903C37.4572 15.9273 37.6143 8.71221 42.5322 3.79963C47.4186 -1.08155 54.669 -1.26832 59.334 3.3947C64.0006 8.05772 63.8105 15.3042 58.9256 20.1853C54.0078 25.0995 46.7904 25.2549 42.1222 20.5903ZM54.3863 8.34023C49.6569 3.61443 45.4019 2.19402 43.162 4.43057C40.8924 6.69852 42.3437 10.9205 47.0715 15.6463C51.8009 20.3737 56.0245 21.8239 58.2942 19.556C60.5325 17.3194 59.1141 13.066 54.3863 8.34023Z" fill="#BEFAC1"/>
<path d="M131.354 20.5936C126.688 15.9306 126.846 8.71718 131.764 3.80303C136.651 -1.07972 143.903 -1.26806 148.568 3.39339C153.234 8.05641 153.044 15.3028 148.159 20.1856C143.24 25.0981 136.021 25.2551 131.354 20.5936ZM143.618 8.33736C138.889 3.61155 134.632 2.19428 132.394 4.43084C130.124 6.69878 131.574 10.9207 136.304 15.6465C141.033 20.3723 145.257 21.821 147.528 19.5531C149.766 17.3165 148.348 13.0647 143.618 8.33736Z" fill="#BEFAC1"/>
<path d="M89.0103 0.816406C83.615 0.816406 79.4243 3.13144 79.4243 6.16374C79.4243 7.94513 80.8065 9.28079 82.7244 9.28079C84.4192 9.28079 85.7558 7.94513 85.7558 6.16374C85.7558 4.55813 84.6862 3.35745 83.2584 3.08906C84.3281 2.3765 85.7998 1.93076 87.3611 1.93076C90.9722 1.93076 93.201 4.02449 93.201 7.27652V12.6678C91.9523 11.8218 89.3669 11.2427 86.959 11.2427C81.6076 11.2427 77.6855 14.005 77.6855 17.7028C77.6855 21.2672 81.0736 23.9856 85.3993 23.9856C88.5203 23.9856 91.5533 22.5604 93.2026 20.4212V23.5382H96.0801C98.2587 23.5382 100.024 21.7741 100.024 19.5972V9.05792C100.023 4.38077 95.4314 0.816406 89.0103 0.816406ZM93.201 19.1703C92.1753 20.7304 90.4821 21.7098 88.6538 21.7098C86.2459 21.7098 84.6846 19.8828 84.6846 17.21C84.6846 14.3142 86.5129 12.5768 89.5004 12.5768C90.9722 12.5768 92.3999 12.977 93.201 13.6456V19.1703Z" fill="#BEFAC1"/>
<path d="M29.0282 0.638672C25.6842 0.638672 22.6072 2.64294 21.225 5.53869C20.2448 2.59899 17.5244 0.638672 14.1803 0.638672C11.1473 0.638672 8.33888 2.33218 6.82158 4.82614V0.861545L0 2.01985V23.3605H2.87911C5.0561 23.3605 6.82158 21.5964 6.82158 19.4195V6.74251C7.80327 4.42591 9.67555 2.82186 11.5478 2.82186C13.4201 2.82186 14.8023 4.38039 14.8023 6.43018V23.3605H17.6799C19.8584 23.3605 21.6239 21.5964 21.6239 19.4195V7.99027C21.6239 7.63399 21.6239 7.32166 21.5799 6.96538C22.4721 4.55932 24.4323 2.82186 26.3502 2.82186C28.2225 2.82186 29.6047 4.38039 29.6047 6.43018V23.3605H32.4822C34.6608 23.3605 36.4263 21.5964 36.4263 19.421V7.99027C36.4294 3.7573 33.1749 0.638672 29.0282 0.638672Z" fill="#BEFAC1"/>
<path d="M80.6461 1.26155C77.9272 1.26155 74.8549 2.1546 72.3968 4.91538V0.861328L65.5752 2.01963V23.3603H68.4527C70.6313 23.3603 72.3968 21.5962 72.3968 19.4192V6.83018C73.6455 3.97995 77.7482 2.24093 80.4686 2.24093C81.3152 2.24093 82.0739 2.4638 82.699 2.86403H82.6535C80.7812 2.86403 79.399 4.20125 79.399 5.98265C79.399 7.76561 80.7812 9.10127 82.6535 9.10127C84.3923 9.10127 85.7289 7.76561 85.7289 5.98265C85.7289 3.22187 83.6792 1.26155 80.6461 1.26155Z" fill="#BEFAC1"/>
<path d="M125.936 12.2949C125.936 18.5871 120.589 23.36 113.502 23.36H103.789V1.23145H113.502C120.589 1.23145 125.936 6.00591 125.936 12.2949ZM118.849 12.2949C118.849 6.00591 116.317 1.86397 112.489 1.86397H110.749V22.7275H112.489C116.319 22.7275 118.849 18.5871 118.849 12.2949Z" fill="#BEFAC1"/>
<path d="M156.579 21.6698C156.579 20.3923 155.542 19.3564 154.263 19.3564C152.985 19.3564 151.948 20.3923 151.948 21.6698C151.948 22.9474 152.985 23.9833 154.263 23.9833C155.542 23.9833 156.579 22.9474 156.579 21.6698Z" fill="#BEFAC1"/>
</g>
<defs>
<clipPath id="clip0_14_72">
<rect width="157" height="24" fill="white"/>
</clipPath>
</defs>
</svg>
