<svg width="651" height="145" viewBox="0 0 651 145" fill="none" xmlns="http://www.w3.org/2000/svg">
<g clip-path="url(#clip0_14_42)">
<path d="M102.727 124.404V125.344L102.731 125.348C103.017 125.203 103.187 125.126 103.348 125.034C109.39 121.582 115.434 118.128 121.473 114.671C122.848 113.885 124.105 112.936 125.218 111.809C128.898 108.082 130.729 103.587 130.733 98.352C130.738 90.1108 130.736 91.8192 130.736 83.578C130.736 83.4501 130.726 83.3211 130.736 83.1947C130.754 82.9735 130.654 82.8329 130.466 82.7348C130.335 82.6656 130.21 82.5827 130.082 82.5072L71.5026 47.9203C71.3049 47.8028 71.0989 47.6968 70.9037 47.5894C70.7055 47.7121 70.543 47.8117 70.3821 47.9139C68.4885 49.1096 66.4161 49.5584 64.211 49.2926C59.0196 48.6676 55.372 43.8751 56.0977 38.68C56.8963 32.9675 62.6484 29.2749 68.1297 31.0484C71.983 32.2954 74.1554 35.0399 74.6882 39.0504C74.757 39.5705 74.941 39.862 75.3909 40.1274L130.079 72.252C130.267 72.3617 130.465 72.4565 130.711 72.5855C130.725 72.368 130.736 72.2635 130.736 72.1587C130.735 66.3449 130.74 50.721 130.711 44.9076C130.706 43.9554 130.592 42.991 130.408 42.0556C129.285 36.3559 126.188 32.0514 121.146 29.1625C113.834 24.9729 106.515 20.7911 99.198 16.6079C90.9568 11.8958 82.7528 7.11593 74.4592 2.4971C68.4848 -0.830009 62.3364 -0.823622 56.3431 2.46388C50.2598 5.80119 44.2843 9.33276 38.2523 12.7633C37.8586 12.9869 37.7422 13.2412 37.7422 13.6731C37.7526 24.2766 37.7489 34.8814 37.7563 45.4861C37.7563 45.9947 37.7961 46.5123 37.9032 47.0079C38.3274 48.9758 39.4632 50.4091 41.2162 51.3954C58.9085 61.3603 76.607 71.3136 94.2803 81.3127C99.8472 84.4621 102.676 89.3341 102.713 95.7212C102.768 105.281 102.727 114.843 102.727 124.404Z" fill="#BEFAC1"/>
<path d="M63.3215 113.464C59.6441 112.668 55.8596 109.246 55.9618 103.77L0.0462896 71.5711C0.0322349 71.8622 0.0181803 72.0106 0.0181803 72.1589C0.0169026 77.6529 0.00284798 93.3364 0.0322349 98.8304C0.0386232 99.8677 0.131895 100.922 0.332492 101.939C1.45431 107.637 4.54761 111.945 9.58554 114.841C12.9624 116.783 16.3458 118.712 19.7278 120.646L25.2795 123.82C35.5507 129.692 45.8222 135.564 56.0923 141.439C58.944 143.07 62.0106 143.911 65.2928 143.925C68.643 143.939 71.772 143.09 74.6813 141.424C80.5739 138.049 115.492 117.958 121.396 114.605L105.267 78.9501L48.3887 45.8422L51.7843 5.09375L28.02 18.6451C27.6661 18.8367 27.4259 18.9607 27.1921 19.0948C21.3352 22.4449 15.4578 25.7618 9.6264 29.1553C3.29929 32.8376 0.0782316 38.397 0.0284018 45.7106C-0.0290943 54.0997 0.0220133 52.4389 0.0015703 60.8296C0.000292608 61.3955 0.172781 61.6892 0.663412 61.9717L59.9125 95.9289C60.1129 96.0438 60.3174 96.1549 60.5003 96.2572C64.9555 93.7617 69.642 95.092 72.2397 97.9284C75.0609 101.009 75.5565 105.441 73.4879 109.005C71.4281 112.553 67.3614 114.338 63.3215 113.464Z" fill="#BEFAC1"/>
<path d="M622.784 47.8574C628.253 47.8574 633.083 49.0182 637.276 51.3397C641.47 53.6611 644.727 57.0307 647.047 61.4488C649.445 65.7921 650.642 70.9968 650.642 77.0623C650.642 83.1277 649.445 88.3697 647.047 92.7877C644.727 97.131 641.47 100.463 637.276 102.785C633.083 105.106 628.253 106.267 622.784 106.267C617.318 106.267 612.489 105.106 608.295 102.785C604.101 100.463 600.807 97.131 598.409 92.7877C596.015 88.3697 594.817 83.1277 594.817 77.0623C594.817 70.9968 596.015 65.7921 598.409 61.4488C600.807 57.0307 604.101 53.6611 608.295 51.3397C612.489 49.0182 617.318 47.8574 622.784 47.8574ZM622.784 57.2928C619.415 57.2928 616.534 58.0792 614.136 59.6519C611.816 61.1495 610.016 63.3583 608.745 66.2791C607.47 69.1996 606.834 72.7937 606.834 77.0623C606.834 81.2558 607.47 84.8503 608.745 87.8454C610.016 90.7659 611.816 93.0127 614.136 94.585C616.534 96.0829 619.415 96.8317 622.784 96.8317C626.156 96.8317 629 96.0829 631.32 94.585C633.644 93.0127 635.44 90.7659 636.715 87.8454C637.986 84.8503 638.622 81.2558 638.622 77.0623C638.622 72.7937 637.986 69.1996 636.715 66.2791C635.44 63.3583 633.644 61.1495 631.32 59.6519C629 58.0792 626.156 57.2928 622.784 57.2928Z" fill="#BEFAC1"/>
<path d="M563.829 32.4707V88.2968C563.829 91.0674 564.542 93.0892 565.963 94.3622C567.461 95.6353 569.446 96.2718 571.915 96.2718C573.938 96.2718 575.7 95.9725 577.195 95.3732C578.693 94.6995 580.08 93.8008 581.351 92.6777L584.047 101.439C582.325 102.937 580.191 104.135 577.644 105.034C575.176 105.857 572.402 106.269 569.335 106.269C566.115 106.269 563.156 105.745 560.46 104.696C557.765 103.648 555.668 101.963 554.169 99.6417C552.671 97.2455 551.886 94.1377 551.812 90.3186V35.8405L563.829 32.4707ZM583.151 48.9828V58.4179H541.026V48.9828H583.151Z" fill="#BEFAC1"/>
<path d="M475.175 105.144V48.9806H485.845L486.63 63.5832L485.057 62.0105C486.106 58.7904 487.604 56.1321 489.552 54.0355C491.575 51.8639 493.932 50.2912 496.627 49.3178C499.397 48.3441 502.32 47.8574 505.391 47.8574C509.358 47.8574 512.916 48.6438 516.061 50.2165C519.281 51.714 521.828 53.998 523.698 57.0683C525.572 60.1386 526.509 64.0324 526.509 68.7501V105.144H514.488V72.4569C514.488 66.9156 513.328 63.0965 511.005 60.9996C508.759 58.828 505.915 57.7423 502.468 57.7423C500 57.7423 497.601 58.3413 495.281 59.5392C492.958 60.6628 491.013 62.4972 489.441 65.0433C487.942 67.5893 487.191 70.9968 487.191 75.265V105.144H475.175Z" fill="#BEFAC1"/>
<path d="M431.579 106.267C425.961 106.267 421.02 105.106 416.752 102.785C412.484 100.463 409.152 97.131 406.754 92.7877C404.434 88.3697 403.271 83.1277 403.271 77.0623C403.271 70.9968 404.434 65.7921 406.754 61.4488C409.152 57.0307 412.446 53.6611 416.64 51.3397C420.834 49.0182 425.589 47.8574 430.906 47.8574C436.371 47.8574 441.015 48.9806 444.833 51.2274C448.652 53.4738 451.574 56.544 453.593 60.4378C455.615 64.332 456.627 68.7501 456.627 73.6923C456.627 75.0405 456.59 76.3135 456.515 77.5114C456.441 78.7097 456.329 79.7582 456.177 80.6568H411.022V71.4459H450.897L444.945 73.2432C444.945 68.1511 443.673 64.2569 441.127 61.5614C438.58 58.7904 435.096 57.4051 430.679 57.4051C427.459 57.4051 424.652 58.1539 422.254 59.6519C419.86 61.1495 418.023 63.3958 416.752 66.3914C415.477 69.3118 414.841 72.9064 414.841 77.1746C414.841 81.368 415.517 84.925 416.863 87.8454C418.213 90.7659 420.12 92.9751 422.593 94.4727C425.065 95.9703 427.984 96.7194 431.352 96.7194C435.096 96.7194 438.13 96.0078 440.454 94.585C442.774 93.1625 444.607 91.1778 445.956 88.6318L455.504 93.1249C454.154 95.8208 452.321 98.1795 450.001 100.201C447.752 102.148 445.057 103.646 441.911 104.694C438.766 105.743 435.323 106.267 431.579 106.267Z" fill="#BEFAC1"/>
<path d="M380.995 48.9834H393.577L371.224 105.146H358.083L335.617 48.9834H348.759L364.71 94.7L380.995 48.9834Z" fill="#BEFAC1"/>
<path d="M319.447 23.709V89.4196C319.447 92.1903 319.933 94.0998 320.907 95.1483C321.881 96.1967 323.49 96.7209 325.737 96.7209C327.085 96.7209 328.208 96.6458 329.107 96.4964C330.08 96.2714 331.278 95.8971 332.701 95.3728L331.353 104.359C330.08 104.958 328.62 105.408 326.973 105.707C325.325 106.081 323.678 106.269 322.03 106.269C317.013 106.269 313.306 104.996 310.91 102.45C308.588 99.8284 307.428 95.8223 307.428 90.4306V23.709H319.447Z" fill="#BEFAC1"/>
<path d="M261.419 47.8574C266.886 47.8574 271.716 49.0182 275.91 51.3397C280.103 53.6611 283.36 57.0307 285.682 61.4488C288.078 65.7921 289.276 70.9968 289.276 77.0623C289.276 83.1277 288.078 88.3697 285.682 92.7877C283.36 97.131 280.103 100.463 275.91 102.785C271.716 105.106 266.886 106.267 261.419 106.267C255.953 106.267 251.123 105.106 246.929 102.785C242.736 100.463 239.441 97.131 237.045 92.7877C234.648 88.3697 233.45 83.1277 233.45 77.0623C233.45 70.9968 234.648 65.7921 237.045 61.4488C239.441 57.0307 242.736 53.6611 246.929 51.3397C251.123 49.0182 255.953 47.8574 261.419 47.8574ZM261.419 57.2928C258.05 57.2928 255.166 58.0792 252.77 59.6519C250.449 61.1495 248.652 63.3583 247.378 66.2791C246.105 69.1996 245.469 72.7937 245.469 77.0623C245.469 81.2558 246.105 84.8503 247.378 87.8454C248.652 90.7659 250.449 93.0127 252.77 94.585C255.166 96.0829 258.05 96.8317 261.419 96.8317C264.789 96.8317 267.635 96.0829 269.956 94.585C272.277 93.0127 274.075 90.7659 275.348 87.8454C276.621 84.8503 277.257 81.2558 277.257 77.0623C277.257 72.7937 276.621 69.1996 275.348 66.2791C274.075 63.3583 272.277 61.1495 269.956 59.6519C267.635 58.0792 264.789 57.2928 261.419 57.2928Z" fill="#BEFAC1"/>
<path d="M195.672 106.267C190.056 106.267 184.926 105.181 180.283 103.009C175.641 100.838 171.971 97.7675 169.275 93.799L177.588 86.61C179.235 89.6803 181.594 92.1512 184.664 94.0236C187.809 95.8208 191.554 96.7194 195.897 96.7194C199.341 96.7194 202.075 96.1201 204.097 94.9222C206.118 93.7239 207.129 92.0389 207.129 89.8673C207.129 88.4448 206.643 87.2089 205.669 86.1605C204.771 85.0373 203.011 84.1762 200.39 83.5772L188.596 81.1059C182.605 79.908 178.336 77.9985 175.79 75.3773C173.244 72.6814 171.971 69.2743 171.971 65.1555C171.971 62.0853 172.87 59.2399 174.667 56.6188C176.464 53.998 179.085 51.9011 182.53 50.3287C186.05 48.6813 190.243 47.8574 195.111 47.8574C200.727 47.8574 205.519 48.8683 209.488 50.8902C213.457 52.8372 216.49 55.6454 218.587 59.3147L210.275 66.2791C208.852 63.2836 206.755 61.0744 203.984 59.6519C201.214 58.1539 198.33 57.4051 195.335 57.4051C192.939 57.4051 190.88 57.7048 189.157 58.3037C187.435 58.9027 186.124 59.7266 185.226 60.7751C184.327 61.8235 183.878 63.059 183.878 64.4819C183.878 65.9794 184.439 67.29 185.563 68.4132C186.686 69.5364 188.708 70.3975 191.628 70.9968L204.433 73.6923C209.825 74.7408 213.607 76.538 215.778 79.0841C218.025 81.5554 219.148 84.5882 219.148 88.1827C219.148 91.7768 218.212 94.9594 216.34 97.7304C214.468 100.426 211.772 102.523 208.253 104.02C204.733 105.518 200.54 106.267 195.672 106.267Z" fill="#BEFAC1"/>
</g>
<defs>
<clipPath id="clip0_14_42">
<rect width="650.641" height="145" fill="white"/>
</clipPath>
</defs>
</svg>
