<svg width="584" height="208" viewBox="0 0 584 208" fill="none" xmlns="http://www.w3.org/2000/svg">
<path fill-rule="evenodd" clip-rule="evenodd" d="M247.317 1.2321C232.435 6.1091 224.031 17.5081 224.031 32.8181C224.031 46.2881 230.827 57.0781 242.811 62.6361C250.377 66.1451 262.085 66.3691 269.207 63.1421C275.478 60.3001 282.62 53.5451 285.866 47.3851C288.2 42.9551 288.521 41.1951 288.521 32.8451C288.521 24.4991 288.2 22.7381 285.876 18.3451C280.096 7.4211 270.419 1.0811 258.321 0.293104C254.076 0.0161045 249.951 0.368105 247.317 1.2321ZM368.765 0.874105C362.57 2.4311 357.745 5.3751 352.903 10.5511C340.684 23.6141 341.256 44.2991 354.171 56.3791C361.323 63.0691 366.796 65.2521 376.552 65.3031C383.652 65.3401 385.343 64.9661 391.276 62.0451C398.07 58.7001 402.822 54.0041 406.656 46.8451C408.148 44.0601 408.531 41.1991 408.531 32.8451C408.531 23.0911 408.322 21.9671 405.585 17.0261C401.996 10.5481 397.369 6.3471 390.216 3.0721C384.196 0.316105 374.811 -0.644895 368.765 0.874105ZM429.031 102.845V202.845H461.694H494.357L493.695 158.595C493.331 134.257 493.033 89.2581 493.032 58.5951L493.031 2.8451H461.031H429.031V102.845ZM0.0310059 32.8451V61.8451H33.031H66.031V32.8451V3.8451H33.031H0.0310059V32.8451ZM85.031 103.345V202.845H117.531H150.031V132.345V61.8451H177.031H204.031V32.8451V3.8451H144.531H85.031V103.345ZM224.28 113.095C224.665 142.882 224.868 145.916 226.932 152.829C230.707 165.467 235.473 173.408 244.972 182.886C252.078 189.977 255.143 192.214 263.031 196.068C278.165 203.463 297.905 207.827 316.281 207.839L325.031 207.845L325.03 176.095L325.029 144.345L315.2 145.345C305.999 145.345 305.057 144.151 300.466 141.312C296.809 139.05 294.847 136.881 292.752 132.784C289.092 125.627 288.076 118.022 288.051 97.5951L288.031 80.8451H255.947H223.863L224.28 113.095ZM344.031 142.845C344.031 176.945 344.34 204.845 344.717 204.845C345.095 204.845 348.807 203.894 352.967 202.732C375.632 196.399 390.667 184.644 399.509 166.345C406.087 152.729 408.092 142.378 409.096 116.845C409.561 105.02 409.962 92.0821 409.986 88.0951L410.031 80.8451H377.031H344.031V142.845ZM513.031 173.345V202.845H548.031H583.031V173.345V143.845H548.031H513.031V173.345Z" fill="#BEFAC1"/>
<path fill-rule="evenodd" clip-rule="evenodd" d="M247.317 1.2321C232.435 6.1091 224.031 17.5081 224.031 32.8181C224.031 46.2881 230.827 57.0781 242.811 62.6361C250.377 66.1451 262.085 66.3691 269.207 63.1421C275.478 60.3001 282.62 53.5451 285.866 47.3851C288.2 42.9551 288.521 41.1951 288.521 32.8451C288.521 24.4991 288.2 22.7381 285.876 18.3451C280.096 7.4211 270.419 1.0811 258.321 0.293104C254.076 0.0161045 249.951 0.368105 247.317 1.2321ZM368.765 0.874105C362.57 2.4311 357.745 5.3751 352.903 10.5511C340.684 23.6141 341.256 44.2991 354.171 56.3791C361.323 63.0691 366.796 65.2521 376.552 65.3031C383.652 65.3401 385.343 64.9661 391.276 62.0451C398.07 58.7001 402.822 54.0041 406.656 46.8451C408.148 44.0601 408.531 41.1991 408.531 32.8451C408.531 23.0911 408.322 21.9671 405.585 17.0261C401.996 10.5481 397.369 6.3471 390.216 3.0721C384.196 0.316105 374.811 -0.644895 368.765 0.874105ZM429.698 3.5121C429.331 3.8781 429.031 48.8781 429.031 103.512V202.845H460.972C478.54 202.845 493.14 202.477 493.418 202.027C493.696 201.578 493.65 156.578 493.316 102.027L492.708 2.8451H461.536C444.392 2.8451 430.064 3.1451 429.698 3.5121ZM0.266 32.5951L0.531 61.3451L33.281 61.6091L66.031 61.8721V32.8591V3.8451H33.016H0L0.266 32.5951ZM85.031 103.345V202.845H117.531H150.031V132.345V61.8451H177.031H204.031V32.8451V3.8451H144.531H85.031V103.345ZM224.039 108.595C224.043 123.857 224.505 139.174 225.066 142.631C227.899 160.088 235.532 174.735 247.328 185.352C262.204 198.741 290.507 207.845 317.255 207.845H325.031L325.033 176.095L325.036 144.345L316.534 144.668C309.21 144.947 307.289 144.652 302.674 142.539C299.574 141.12 296.168 138.58 294.59 136.511C289.687 130.083 288.793 125.205 288.279 102.095L287.808 80.8451H255.919H224.031L224.039 108.595ZM344.711 81.4981C343.887 82.3231 343.788 203.269 344.612 204.092C345.588 205.069 359.108 200.959 366.775 197.355C385.42 188.589 397.574 175.068 403.387 156.623C407.653 143.085 408.877 132.426 409.217 105.845L409.531 81.3451L377.461 81.0811C359.823 80.9361 345.085 81.1241 344.711 81.4981ZM513.031 173.345V202.845H548.031H583.031V173.345V143.845H548.031H513.031V173.345Z" fill="#BEFAC1"/>
<path fill-rule="evenodd" clip-rule="evenodd" d="M247.317 1.2321C232.435 6.1091 224.031 17.5081 224.031 32.8181C224.031 46.2881 230.827 57.0781 242.811 62.6361C250.377 66.1451 262.085 66.3691 269.207 63.1421C275.478 60.3001 282.62 53.5451 285.866 47.3851C288.2 42.9551 288.521 41.1951 288.521 32.8451C288.521 24.4991 288.2 22.7381 285.876 18.3451C280.096 7.4211 270.419 1.0811 258.321 0.293104C254.076 0.0161045 249.951 0.368105 247.317 1.2321ZM368.765 0.874105C362.57 2.4311 357.745 5.3751 352.903 10.5511C340.684 23.6141 341.256 44.2991 354.171 56.3791C361.323 63.0691 366.796 65.2521 376.552 65.3031C383.652 65.3401 385.343 64.9661 391.276 62.0451C398.07 58.7001 402.822 54.0041 406.656 46.8451C408.148 44.0601 408.531 41.1991 408.531 32.8451C408.531 23.0911 408.322 21.9671 405.585 17.0261C401.996 10.5481 397.369 6.3471 390.216 3.0721C384.196 0.316105 374.811 -0.644895 368.765 0.874105Z" fill="#BEFAC1"/>
<path fill-rule="evenodd" clip-rule="evenodd" d="M247.317 1.23186C232.435 6.10886 224.031 17.5079 224.031 32.8179C224.031 46.2879 230.827 57.0779 242.811 62.6359C250.377 66.1449 262.085 66.3689 269.207 63.1419C275.478 60.2999 282.62 53.5449 285.866 47.3849C288.2 42.9549 288.521 41.1949 288.521 32.8449C288.521 24.4989 288.2 22.7379 285.876 18.3449C280.096 7.42086 270.419 1.08086 258.321 0.292862C254.076 0.0158621 249.951 0.367862 247.317 1.23186ZM367.982 1.14486C361.961 2.85086 357.042 5.98286 352.515 10.9939C346.507 17.6439 344.552 23.0009 344.541 32.8449C344.532 40.1419 344.927 42.1519 347.331 47.0479C357.189 67.1209 384.065 71.6859 399.718 55.9459C406.607 49.0189 408.531 43.9749 408.531 32.8449C408.531 21.7969 406.442 16.2559 399.756 9.56986C392.037 1.85086 378.323 -1.78514 367.982 1.14486Z" fill="#BEFAC1"/>
<path fill-rule="evenodd" clip-rule="evenodd" d="M247.317 1.23216C232.435 6.10916 224.031 17.5082 224.031 32.8182C224.031 46.2882 230.827 57.0782 242.811 62.6362C250.377 66.1452 262.085 66.3692 269.207 63.1422C275.478 60.3002 282.62 53.5452 285.866 47.3852C288.2 42.9552 288.521 41.1952 288.521 32.8452C288.521 24.4992 288.2 22.7382 285.876 18.3452C280.096 7.42116 270.419 1.08116 258.321 0.293158C254.076 0.0161575 249.951 0.368158 247.317 1.23216ZM367.32 1.59316C338.744 11.1982 335.863 48.7912 362.691 61.9982C374.653 67.8872 388.198 65.9962 398.151 57.0472C411.855 44.7272 412.98 24.6432 400.721 11.2062C391.884 1.51916 378.769 -2.25484 367.32 1.59316Z" fill="#BEFAC1"/>
<path fill-rule="evenodd" clip-rule="evenodd" d="M247.317 1.23197C232.435 6.10897 224.031 17.508 224.031 32.818C224.031 46.288 230.827 57.078 242.811 62.636C250.377 66.145 262.085 66.369 269.207 63.142C275.478 60.3 282.62 53.545 285.866 47.385C288.2 42.955 288.521 41.195 288.521 32.845C288.521 24.499 288.2 22.738 285.876 18.345C280.096 7.42097 270.419 1.08097 258.321 0.292974C254.076 0.0159736 249.951 0.367974 247.317 1.23197Z" fill="#BEFAC1"/>
<path fill-rule="evenodd" clip-rule="evenodd" d="M247.834 1.24394C238.535 3.74794 231.396 9.91994 226.897 19.3449C220.789 32.1389 223.998 47.2359 234.911 57.0469C251.155 71.6519 277.129 66.0849 286.36 46.0209C288.023 42.4079 288.514 39.4129 288.521 32.8449C288.53 25.5479 288.135 23.5379 285.731 18.6419C281.809 10.6569 274.583 4.40494 266.329 1.85494C258.94 -0.427064 254.578 -0.571064 247.834 1.24394Z" fill="#BEFAC1"/>
<path fill-rule="evenodd" clip-rule="evenodd" d="M250.386 0.885041C240.401 2.86004 231.705 9.72004 226.984 19.345C223.58 26.285 223.492 39.092 226.801 46.101C229.878 52.617 235.422 58.49 241.468 61.635C248.314 65.196 261.703 65.772 268.632 62.802C283.168 56.571 291.549 40.517 287.998 25.705C285.532 15.416 280.162 8.68104 270.735 4.05104C263.953 0.720041 256.825 -0.388959 250.386 0.885041Z" fill="#BEFAC1"/>
</svg>
