<svg width="630" height="178" viewBox="0 0 630 178" fill="none" xmlns="http://www.w3.org/2000/svg">
<path fill-rule="evenodd" clip-rule="evenodd" d="M410.795 0.634085C393.396 2.97653 381.062 9.06039 372.243 19.6503L370.094 22.2312V11.9771V1.72302H347.185H324.277V70.8932V140.063H349.854H375.432V101.315V62.5661L376.811 59.9781C381.613 50.9682 391.108 44.4262 399.382 44.4262C406.357 44.4262 411.202 48.172 413.658 55.4627C414.559 58.1374 414.576 58.9443 414.576 99.1253V140.063H440.175H465.774L465.616 90.3543C465.474 45.5489 465.382 40.1923 464.682 36.0537C461.128 15.0655 451.001 3.75631 432.939 0.606506C428.237 -0.21375 416.988 -0.199516 410.795 0.634085ZM540.017 0.62074C521.462 3.19005 507.569 9.66491 496.18 21.0524C486.705 30.5254 480.755 41.7585 477.673 55.9916C476.786 60.088 476.659 61.9473 476.645 71.1156C476.631 80.416 476.744 82.1028 477.665 86.4078C484.473 118.218 508.487 138.744 543.088 142.328C549.428 142.985 563.147 142.616 568.924 141.633C586.501 138.643 598.609 132.696 609.648 121.632C619.635 111.622 625.376 100.966 628.623 86.4154C629.484 82.5547 629.606 80.702 629.614 71.338C629.622 61.8722 629.508 60.1329 628.61 55.9916C625.503 41.6669 619.641 30.6041 610.095 21.0497C604.615 15.5642 597.514 10.5123 591.162 7.58091C583.869 4.21448 573.956 1.54509 564.494 0.400107C559.354 -0.222202 545.18 -0.0945374 540.017 0.62074ZM0.0180973 2.27549C0.0283282 2.58331 13.6021 31.96 30.183 67.557L60.3292 132.279L52.6395 155.076L44.9494 177.873H67.8147H90.6795L125.631 90.332C144.853 42.1842 160.581 2.55039 160.581 2.2568C160.581 1.84801 154.666 1.72302 135.283 1.72302H109.984L107.559 8.28417C106.226 11.893 99.9452 29.0063 93.6025 46.314C87.2597 63.6217 81.9699 77.7826 81.8476 77.7831C81.7252 77.7835 74.6899 60.7205 66.2133 39.8645L50.801 1.94543L25.4007 1.83066C5.21987 1.73947 0.00341807 1.83066 0.0180973 2.27549ZM169.158 52.0958C169.32 101.226 169.348 102.597 170.267 107.369C172.552 119.225 175.832 125.97 182.332 132.181C186.546 136.207 191.87 139.029 198.614 140.811C202.659 141.881 203.828 141.989 211.514 142.005C220.957 142.025 225.986 141.469 233.587 139.563C246.169 136.41 255.993 130.492 263.028 121.826L264.653 119.824L264.661 129.944L264.67 140.063H287.579H310.487V70.8932V1.72302H284.91H259.332V40.4374V79.1518L258.159 81.4725C253.256 91.1625 242.207 98.5132 233.856 97.6401C228.412 97.0711 224.43 94.057 221.806 88.5185L220.41 85.5724L220.188 43.7589L219.966 1.94543L194.478 1.83066L168.991 1.7159L169.158 52.0958ZM558.831 43.3092C565.157 44.9568 571.414 49.893 574.218 55.448C577.599 62.1444 578.594 72.9523 576.543 80.6793C573.983 90.3191 568.07 96.6654 559.531 98.9381C556.465 99.7539 550.257 99.7539 547.192 98.9381C541.703 97.4768 536.015 93.319 532.93 88.5105C529.162 82.6397 527.583 72.7486 529.086 64.4433C531.086 53.3978 537.391 45.8638 546.739 43.3501C549.894 42.5014 555.655 42.4818 558.831 43.3092Z" fill="#BEFAC1"/>
<path fill-rule="evenodd" clip-rule="evenodd" d="M412.797 0.408053C400.317 1.90845 390.352 5.28778 381.727 10.9437C379.133 12.6452 372.744 18.7175 371.07 21.0728L370.122 22.4073L370.108 12.0651L370.094 1.72295H347.185H324.277V70.8931V140.063H349.854H375.432V101.315V62.566L376.811 59.9781C378.763 56.3171 382.58 51.8493 385.801 49.4566C396.696 41.3644 407.798 42.8794 412.854 53.1491L414.354 56.1944L414.476 98.1289L414.598 140.063H440.165H465.731V94.5333C465.731 41.093 465.504 36.5714 462.318 26.4668C457.914 12.5037 449.377 4.48175 435.249 1.03081C431.612 0.142493 418.118 -0.231605 412.797 0.408053ZM541.796 0.437411C539.961 0.645589 535.987 1.33106 532.965 1.96005C517.73 5.13209 506.095 11.1813 496.202 21.0737C486.608 30.6681 480.8 41.6878 477.68 56.2139C476.744 60.5737 476.631 62.2222 476.646 71.338C476.66 80.2705 476.791 82.1619 477.674 86.2396C480.577 99.6537 486.286 110.828 494.924 120.004C505.813 131.572 518.894 138.291 536.681 141.45C541.657 142.335 543.952 142.478 553.139 142.478C562.326 142.478 564.621 142.335 569.598 141.45C587.254 138.314 600.329 131.636 611.189 120.208C619.959 110.979 625.667 99.845 628.605 86.2396C629.481 82.1846 629.616 80.25 629.632 71.5604C629.651 60.3575 629.244 57.3714 626.481 48.4295C621.791 33.2521 612.671 21.0826 599.401 12.2938C590.083 6.12271 579.4 2.42978 565.652 0.627796C560.028 -0.109723 547.499 -0.209363 541.796 0.437411ZM5.4491 2.05524C2.45187 2.13219 0 2.26164 0 2.34259C0 2.424 13.5863 31.6894 30.192 67.3773L60.3836 132.265L52.6699 155.069L44.9566 177.873H67.8148H90.673L125.627 90.3235C144.852 42.1713 160.582 2.63573 160.582 2.46714C160.582 2.29856 149.14 2.21226 135.155 2.27543L109.729 2.39019L95.8997 40.0877C88.2932 60.8214 81.9531 77.7857 81.8108 77.7866C81.668 77.7875 74.7799 61.1235 66.5039 40.7563C58.2284 20.3887 51.2571 3.27406 51.012 2.72381L50.5672 1.72295L30.7325 1.81904C19.8236 1.87197 8.44633 1.97828 5.4491 2.05524ZM169.033 49.0496C169.033 102.572 169.22 106.252 172.431 115.914C174.663 122.631 177.267 126.987 181.69 131.407C186.304 136.018 190.353 138.395 196.747 140.248C207.36 143.323 225.164 142.473 238.006 138.276C248.601 134.814 256.98 129.279 262.798 121.897L264.671 119.521V129.792V140.063H287.579H310.487V71.1156V2.16778H284.91H259.333V40.6913V79.2149L257.714 82.2949C254.601 88.2182 247.257 94.7429 241.424 96.7655C238.033 97.9416 232.183 97.874 229.475 96.6276C225.479 94.7882 222.497 91.2679 220.881 86.4825C220.206 84.4825 220.14 80.488 220.174 43.2233L220.212 2.16778H194.622H169.033V49.0496ZM558.899 43.3265C563.224 44.4532 567.281 46.8753 570.424 50.207C575.533 55.6223 577.503 61.4429 577.503 71.1156C577.503 77.8845 576.635 82.117 574.243 87.0065C567.085 101.643 547.232 104.164 535.553 91.9187C525.358 81.2304 526.367 57.9376 537.445 48.2476C539.966 46.0421 543.403 44.1797 546.55 43.3149C549.507 42.5018 555.756 42.508 558.899 43.3265Z" fill="#BEFAC1"/>
<path fill-rule="evenodd" clip-rule="evenodd" d="M412.797 0.408053C400.317 1.90845 390.352 5.28778 381.727 10.9437C379.133 12.6452 372.744 18.7175 371.07 21.0728L370.122 22.4073L370.108 12.0651L370.094 1.72295H347.185H324.277V70.8931V140.063H349.854H375.432V101.315V62.566L376.811 59.9781C378.763 56.3171 382.58 51.8493 385.801 49.4566C396.696 41.3644 407.798 42.8794 412.854 53.1491L414.354 56.1944L414.476 98.1289L414.598 140.063H440.165H465.731V94.5333C465.731 41.093 465.504 36.5714 462.318 26.4668C457.914 12.5037 449.377 4.48175 435.249 1.03081C431.612 0.142493 418.118 -0.231605 412.797 0.408053ZM541.796 0.437411C539.961 0.645589 535.987 1.33106 532.965 1.96005C517.73 5.13209 506.095 11.1813 496.202 21.0737C486.608 30.6681 480.8 41.6878 477.68 56.2139C476.744 60.5737 476.631 62.2222 476.646 71.338C476.66 80.2705 476.791 82.1619 477.674 86.2396C480.577 99.6537 486.286 110.828 494.924 120.004C505.813 131.572 518.894 138.291 536.681 141.45C541.657 142.335 543.952 142.478 553.139 142.478C562.326 142.478 564.621 142.335 569.598 141.45C587.254 138.314 600.329 131.636 611.189 120.208C619.959 110.979 625.667 99.845 628.605 86.2396C629.481 82.1846 629.616 80.25 629.632 71.5604C629.651 60.3575 629.244 57.3714 626.481 48.4295C621.791 33.2521 612.671 21.0826 599.401 12.2938C590.083 6.12271 579.4 2.42978 565.652 0.627796C560.028 -0.109723 547.499 -0.209363 541.796 0.437411ZM5.4491 2.05524C2.45187 2.13219 0 2.26164 0 2.34259C0 2.424 13.5863 31.6894 30.192 67.3773L60.3836 132.265L52.6699 155.069L44.9566 177.873H67.8148H90.673L125.627 90.3235C144.852 42.1713 160.582 2.63573 160.582 2.46714C160.582 2.29856 149.14 2.21226 135.155 2.27543L109.729 2.39019L95.8997 40.0877C88.2932 60.8214 81.9531 77.7857 81.8108 77.7866C81.668 77.7875 74.7799 61.1235 66.5039 40.7563C58.2284 20.3887 51.2571 3.27406 51.012 2.72381L50.5672 1.72295L30.7325 1.81904C19.8236 1.87197 8.44633 1.97828 5.4491 2.05524ZM169.033 49.0496C169.033 102.572 169.22 106.252 172.431 115.914C174.663 122.631 177.267 126.987 181.69 131.407C186.304 136.018 190.353 138.395 196.747 140.248C207.36 143.323 225.164 142.473 238.006 138.276C248.601 134.814 256.98 129.279 262.798 121.897L264.671 119.521V129.792V140.063H287.579H310.487V71.1156V2.16778H284.91H259.333V40.6913V79.2149L257.714 82.2949C254.601 88.2182 247.257 94.7429 241.424 96.7655C238.033 97.9416 232.183 97.874 229.475 96.6276C225.479 94.7882 222.497 91.2679 220.881 86.4825C220.206 84.4825 220.14 80.488 220.174 43.2233L220.212 2.16778H194.622H169.033V49.0496ZM558.899 43.3265C563.224 44.4532 567.281 46.8753 570.424 50.207C575.533 55.6223 577.503 61.4429 577.503 71.1156C577.503 77.8845 576.635 82.117 574.243 87.0065C567.085 101.643 547.232 104.164 535.553 91.9187C525.358 81.2304 526.367 57.9376 537.445 48.2476C539.966 46.0421 543.403 44.1797 546.55 43.3149C549.507 42.5018 555.756 42.508 558.899 43.3265Z" fill="#BEFAC1"/>
<path fill-rule="evenodd" clip-rule="evenodd" d="M414.576 0.241616C410.81 0.636175 403.921 1.79939 401.676 2.41859C400.331 2.79001 398.85 3.17968 398.387 3.28466C396.661 3.67566 394.319 4.52127 393.781 4.94875C393.475 5.19118 393.225 5.25834 393.225 5.09732C393.225 4.93674 392.774 5.05239 392.224 5.35532C391.674 5.6578 390.971 5.94782 390.663 5.99942C389.892 6.12842 384.622 9.04958 381.659 10.9899C379.122 12.6518 372.727 18.7405 371.07 21.0723L370.122 22.4068L370.108 12.0646L370.094 1.72244H347.185H324.277V70.8926V140.063H349.854H375.432V101.314V62.5655L376.811 59.9775C379.939 54.1098 385.532 48.7964 391.426 46.0946C394.945 44.4816 395.789 44.2966 399.452 44.3371C402.96 44.3753 403.143 44.4149 405.766 45.6898C408.75 47.1403 411.129 49.6429 412.854 53.1486L414.354 56.1939L414.476 98.1283L414.598 140.063H440.165H465.731V94.5328C465.731 49.1567 465.527 41.3438 464.142 33.8058C461.549 19.6929 454.857 9.46105 445.017 4.56575C443.288 3.70591 441.587 2.94526 441.236 2.87542C440.885 2.80558 440.039 2.51956 439.356 2.23932C437.903 1.6437 436.005 1.18909 432.147 0.513403C430.518 0.228271 416.738 0.0147551 414.576 0.241616ZM544.881 0.11662C544.775 0.221154 543.197 0.433335 541.375 0.587689C539.553 0.742043 537.151 1.07922 536.037 1.33722C534.923 1.59477 533.411 1.89814 532.677 2.01113C531.132 2.24822 524.988 3.83758 524.003 4.25438C523.636 4.40962 523.186 4.5791 523.002 4.63114C522.819 4.68274 522.619 4.76503 522.557 4.81352C522.496 4.86245 521.953 4.99278 521.349 5.10355C520.746 5.21431 519.795 5.60442 519.236 5.97051C518.678 6.3366 518.22 6.52298 518.22 6.38509C518.22 5.81971 508.183 11.3217 504.555 13.8759C499.531 17.4132 492.523 24.4316 488.929 29.5248C483.681 36.9632 479.875 45.994 477.68 56.2134C476.744 60.5731 476.631 62.2217 476.646 71.3374C476.664 82.6022 477.228 86.5398 480.019 94.9131C485.948 112.701 499.001 127.404 515.774 135.186C521.267 137.735 530.168 140.439 535.569 141.199C536.67 141.354 538.071 141.565 538.682 141.669C547.053 143.089 561.551 142.944 569.82 141.359C571.166 141.101 572.867 140.794 573.601 140.676C574.335 140.558 575.936 140.181 577.16 139.837C578.383 139.494 579.484 139.208 579.606 139.203C580.376 139.166 587.944 136.39 588.798 135.83C589.369 135.456 589.837 135.257 589.837 135.389C589.837 135.522 590.85 135.116 592.087 134.49C608.124 126.363 620.534 112.106 626.093 95.422C629.042 86.574 629.612 82.7263 629.632 71.5599C629.651 60.357 629.244 57.3709 626.481 48.429C620.903 30.3776 608.32 15.7847 591.394 7.73913C587.745 6.00431 581.598 3.76018 579.384 3.35361C578.894 3.2642 578.194 3.06981 577.827 2.92257C577.46 2.77489 576.521 2.56404 575.741 2.45373C574.961 2.34341 574.154 2.14902 573.948 2.02136C573.741 1.89369 572.578 1.6566 571.362 1.49469C570.147 1.33277 568.652 1.11747 568.041 1.01694C567.429 0.915969 566.128 0.707791 565.149 0.553882C563.053 0.225157 545.164 -0.160951 544.881 0.11662ZM5.4491 2.05472C2.45187 2.13167 0 2.26112 0 2.34208C0 2.42348 13.5863 31.6889 30.192 67.3767L60.3836 132.264L52.6699 155.069L44.9566 177.873H67.8148H90.673L125.627 90.323C144.852 42.1708 160.582 2.63522 160.582 2.46663C160.582 2.29804 149.14 2.21174 135.155 2.27491L109.729 2.38967L95.8997 40.0872C88.2932 60.8209 81.9531 77.7852 81.8108 77.7861C81.668 77.787 74.7799 61.1229 66.5039 40.7558C58.2284 20.3882 51.2571 3.27354 51.012 2.72329L50.5672 1.72244L30.7325 1.81852C19.8236 1.87145 8.44633 1.97777 5.4491 2.05472ZM169.033 49.0491C169.033 77.7727 169.21 97.7151 169.489 100.537C170.466 110.404 172.09 116.451 175.624 123.382C178.403 128.832 184.059 134.573 189.33 137.295C191.319 138.322 193.421 139.25 194.001 139.357C194.581 139.464 195.106 139.592 195.167 139.641C195.228 139.689 195.428 139.757 195.612 139.791C195.795 139.826 196.145 139.977 196.39 140.129C198.3 141.307 208.409 142.411 214.183 142.07C221.762 141.623 224.802 141.371 225.502 141.133C225.855 141.013 227.013 140.812 228.074 140.687C229.135 140.562 231.448 140.07 233.214 139.594C234.979 139.118 236.918 138.616 237.522 138.479C238.127 138.343 238.877 138.018 239.191 137.758C239.504 137.498 239.76 137.398 239.76 137.537C239.76 137.675 241.202 137.194 242.963 136.468C251.137 133.097 257.826 128.182 262.793 121.896L264.671 119.521V129.792V140.063H287.579H310.487V71.115V2.16726H284.91H259.333V40.6908V79.2144L257.714 82.2944C254.601 88.2176 247.257 94.7423 241.424 96.7649C238.033 97.9411 232.183 97.8734 229.475 96.627C225.479 94.7877 222.497 91.2674 220.881 86.4819C220.206 84.482 220.14 80.4875 220.174 43.2228L220.212 2.16726H194.622H169.033V49.0491ZM557.365 42.9069C558.466 43.0902 559.467 43.2388 559.589 43.237C559.711 43.2352 561.543 44.1071 563.66 45.1742C566.617 46.6657 568.173 47.8209 570.384 50.1638C575.534 55.624 577.503 61.4174 577.503 71.115C577.503 81.0097 575.196 87.5971 569.853 92.9604C567.47 95.3513 563.41 98.1145 561.702 98.5064C561.519 98.5487 561.319 98.6234 561.257 98.6728C561.196 98.7217 560.846 98.8352 560.479 98.9246C560.112 99.014 559.311 99.2119 558.699 99.3641C557.538 99.6536 550.234 99.695 548.691 99.4205C546.024 98.9468 541.573 96.8966 538.959 94.938C532.411 90.033 529.18 83.345 528.591 73.4779C527.978 63.2007 531.356 53.5734 537.445 48.2471C542.808 43.5555 549.878 41.6605 557.365 42.9069Z" fill="#BEFAC1"/>
<path fill-rule="evenodd" clip-rule="evenodd" d="M414.799 0.244342C411.347 0.549492 404.094 1.75141 401.676 2.41864C400.331 2.79007 398.85 3.17974 398.387 3.28472C396.661 3.67572 394.319 4.52133 393.781 4.94881C393.475 5.19123 393.225 5.2584 393.225 5.09738C393.225 4.93679 392.774 5.05245 392.224 5.35537C391.674 5.65786 390.971 5.94788 390.663 5.99948C389.892 6.12848 384.622 9.04964 381.659 10.99C379.122 12.6518 372.727 18.7406 371.07 21.0724L370.122 22.4068L370.108 12.0647L370.094 1.72249H347.185H324.277V70.8962V140.07L349.743 139.955L375.209 139.84L375.432 100.918L375.654 61.9962L376.947 59.6635C380.074 54.0196 385.581 48.8201 391.291 46.1209C394.63 44.5426 395.746 44.2957 399.452 44.3167C403.811 44.3407 404.725 44.6632 408.596 47.5434C410.334 48.837 411.241 49.9997 412.599 52.6736L414.354 56.1312L414.476 98.0968L414.598 140.063H440.188H465.777L465.611 90.7986C465.429 37.1314 465.438 37.3196 462.815 28.0601C461.313 22.7547 457.838 15.8946 454.826 12.2871C453.447 10.6359 452.184 9.28051 452.019 9.27606C451.854 9.27116 450.921 8.57101 449.946 7.72006C448.371 6.34644 442.619 3.16773 441.152 2.86213C440.848 2.79852 440.198 2.59746 439.709 2.41509C437.541 1.60817 436.494 1.29947 435.038 1.03835C434.182 0.884889 432.881 0.651801 432.147 0.520133C430.544 0.231887 417.314 0.02193 414.799 0.244342ZM544.881 0.114898C544.775 0.218542 543.286 0.437396 541.574 0.601091C539.861 0.764787 537.459 1.09885 536.236 1.3435C535.013 1.5886 533.411 1.88485 532.677 2.00229C531.1 2.25495 524.961 3.84875 524.003 4.25443C523.636 4.40968 523.186 4.57916 523.002 4.6312C522.819 4.6828 522.619 4.76509 522.557 4.81358C522.496 4.86251 521.953 4.99284 521.349 5.1036C520.746 5.21437 519.795 5.60448 519.236 5.97057C518.678 6.33666 518.22 6.52304 518.22 6.38514C518.22 5.81977 508.183 11.3218 504.555 13.876C499.531 17.4132 492.523 24.4317 488.929 29.5249C483.681 36.9633 479.875 45.9941 477.68 56.2135C476.744 60.5732 476.631 62.2217 476.646 71.3375C476.664 82.6022 477.228 86.5398 480.019 94.9132C485.898 112.55 499.046 127.419 515.535 135.077C520.967 137.6 530.333 140.462 535.569 141.199C536.67 141.354 538.071 141.566 538.682 141.671C546.819 143.066 561.693 142.917 569.82 141.36C571.166 141.102 572.824 140.791 573.505 140.67C574.186 140.549 575.788 140.16 577.064 139.805C578.34 139.451 579.767 139.069 580.235 138.956C581.756 138.59 585.565 137.277 587.508 136.45C588.55 136.005 589.503 135.638 589.624 135.634C589.744 135.63 590.854 135.114 592.09 134.488C608.183 126.333 620.362 112.317 626.092 95.358C629.049 86.603 629.611 82.7691 629.611 71.3375C629.611 62.3863 629.486 60.5292 628.609 56.4893C626.093 44.9003 622.343 36.3205 616.142 27.9671C613.479 24.3801 607.631 18.3327 604.739 16.1766C603.76 15.4471 602.859 14.7354 602.737 14.5957C602.388 14.1967 598.716 11.7413 596.51 10.4313C591.809 7.64044 583.312 4.15435 579.211 3.33409C578.817 3.25536 578.194 3.07031 577.827 2.92307C577.46 2.77584 576.442 2.55165 575.564 2.42532C574.687 2.29899 573.686 2.09882 573.34 1.98049C572.698 1.76119 571.42 1.53834 565.149 0.55394C563.061 0.226104 545.166 -0.161782 544.881 0.114898ZM5.67151 2.05478C2.5524 2.13129 0 2.26029 0 2.34169C0 2.42309 13.5863 31.689 30.192 67.3768L60.3836 132.264L52.6699 155.069L44.9566 177.873H67.8077H90.6588L107.215 136.393C116.321 113.579 131.982 74.3957 142.016 49.3187C152.051 24.2417 160.357 3.37235 160.474 2.9422C160.676 2.20157 159.335 2.16598 135.208 2.27497L109.729 2.38973L95.8997 40.0873C88.2932 60.821 81.9509 77.7852 81.805 77.7861C81.6591 77.787 74.9689 61.6239 66.9381 41.8679C58.9072 22.1119 51.9439 4.99774 51.464 3.83541L50.5912 1.72249L30.9673 1.81902C20.1741 1.8724 8.79062 1.97827 5.67151 2.05478ZM169.033 49.0491C169.033 77.7728 169.21 97.7152 169.489 100.538C170.466 110.404 172.09 116.451 175.624 123.382C178.459 128.94 184.091 134.628 189.415 137.308C191.45 138.333 193.744 139.282 194.512 139.417C195.28 139.553 196.117 139.83 196.372 140.034C196.803 140.38 197.293 140.507 200.838 141.192C204.995 141.997 209.841 142.323 213.961 142.075C220.87 141.66 224.824 141.329 225.135 141.14C225.286 141.047 226.446 140.846 227.713 140.691C228.979 140.537 231.457 140.031 233.22 139.566C234.982 139.103 236.918 138.612 237.522 138.477C238.127 138.341 238.877 138.018 239.191 137.758C239.504 137.498 239.76 137.398 239.76 137.537C239.76 137.675 241.202 137.194 242.963 136.468C251.137 133.097 257.826 128.182 262.793 121.896L264.671 119.521V129.792V140.063H287.579H310.487V71.1151V2.16732H284.91H259.333V40.6909V79.2145L257.714 82.2944C254.429 88.5455 246.938 95.0093 240.769 96.9145C231.862 99.6657 224.137 95.7175 221.007 86.8134C220.167 84.4207 220.138 82.9448 220.174 43.2522L220.212 2.16732H194.622H169.033V49.0491ZM557.301 42.8581C558.308 43.028 559.284 43.1824 559.472 43.2006C559.658 43.2188 561.543 44.1071 563.66 45.1743C566.617 46.6658 568.173 47.821 570.384 50.1639C575.534 55.6241 577.503 61.4175 577.503 71.1151C577.503 81.0098 575.196 87.5972 569.853 92.9604C567.47 95.3514 563.41 98.1146 561.702 98.5065C561.519 98.5488 561.319 98.6235 561.257 98.6729C561.196 98.7218 560.846 98.8352 560.479 98.9246C560.112 99.014 559.311 99.2133 558.699 99.3677C557.487 99.6742 549.546 99.7391 548.468 99.4513C545.278 98.6004 541.373 96.7468 538.959 94.9381C534.168 91.3493 531.518 87.3779 529.681 81.0387C528.223 76.0059 528.228 66.158 529.692 61.329C531.309 55.9929 533.265 52.5232 536.458 49.324C541.958 43.814 549.363 41.5169 557.301 42.8581Z" fill="#BEFAC1"/>
<path fill-rule="evenodd" clip-rule="evenodd" d="M414.799 0.244342C411.347 0.549492 404.094 1.75141 401.676 2.41864C400.331 2.79007 398.85 3.17974 398.387 3.28472C396.661 3.67572 394.319 4.52133 393.781 4.94881C393.475 5.19123 393.225 5.2584 393.225 5.09738C393.225 4.93679 392.774 5.05245 392.224 5.35537C391.674 5.65786 390.971 5.94788 390.663 5.99948C389.892 6.12848 384.622 9.04964 381.659 10.99C379.122 12.6518 372.727 18.7406 371.07 21.0724L370.122 22.4068L370.108 12.0647L370.094 1.72249H347.185H324.277V70.8962V140.07L349.743 139.955L375.209 139.84L375.432 100.918L375.654 61.9962L376.947 59.6635C380.074 54.0196 385.581 48.8201 391.291 46.1209C394.63 44.5426 395.746 44.2957 399.452 44.3167C403.811 44.3407 404.725 44.6632 408.596 47.5434C410.334 48.837 411.241 49.9997 412.599 52.6736L414.354 56.1312L414.476 98.0968L414.598 140.063H440.188H465.777L465.611 90.7986C465.429 37.1314 465.438 37.3196 462.815 28.0601C461.313 22.7547 457.838 15.8946 454.826 12.2871C453.447 10.6359 452.184 9.28051 452.019 9.27606C451.854 9.27116 450.921 8.57101 449.946 7.72006C448.371 6.34644 442.619 3.16773 441.152 2.86213C440.848 2.79852 440.198 2.59746 439.709 2.41509C437.541 1.60817 436.494 1.29947 435.038 1.03835C434.182 0.884889 432.881 0.651801 432.147 0.520133C430.544 0.231887 417.314 0.02193 414.799 0.244342ZM544.881 0.114898C544.775 0.218542 543.286 0.437396 541.574 0.601091C539.861 0.764787 537.459 1.09885 536.236 1.3435C535.013 1.5886 533.411 1.88485 532.677 2.00229C531.1 2.25495 524.961 3.84875 524.003 4.25443C523.636 4.40968 523.186 4.57916 523.002 4.6312C522.819 4.6828 522.619 4.76509 522.557 4.81358C522.496 4.86251 521.953 4.99284 521.349 5.1036C520.746 5.21437 519.795 5.60448 519.236 5.97057C518.678 6.33666 518.22 6.52304 518.22 6.38514C518.22 5.81977 508.183 11.3218 504.555 13.876C499.531 17.4132 492.523 24.4317 488.929 29.5249C483.681 36.9633 479.875 45.9941 477.68 56.2135C476.744 60.5732 476.631 62.2217 476.646 71.3375C476.664 82.6022 477.228 86.5398 480.019 94.9132C485.898 112.55 499.046 127.419 515.535 135.077C520.967 137.6 530.333 140.462 535.569 141.199C536.67 141.354 538.071 141.566 538.682 141.671C546.819 143.066 561.693 142.917 569.82 141.36C571.166 141.102 572.824 140.791 573.505 140.67C574.186 140.549 575.788 140.16 577.064 139.805C578.34 139.451 579.767 139.069 580.235 138.956C581.756 138.59 585.565 137.277 587.508 136.45C588.55 136.005 589.503 135.638 589.624 135.634C589.744 135.63 590.854 135.114 592.09 134.488C608.183 126.333 620.362 112.317 626.092 95.358C629.049 86.603 629.611 82.7691 629.611 71.3375C629.611 62.3863 629.486 60.5292 628.609 56.4893C626.093 44.9003 622.343 36.3205 616.142 27.9671C613.479 24.3801 607.631 18.3327 604.739 16.1766C603.76 15.4471 602.859 14.7354 602.737 14.5957C602.388 14.1967 598.716 11.7413 596.51 10.4313C591.809 7.64044 583.312 4.15435 579.211 3.33409C578.817 3.25536 578.194 3.07031 577.827 2.92307C577.46 2.77584 576.442 2.55165 575.564 2.42532C574.687 2.29899 573.686 2.09882 573.34 1.98049C572.698 1.76119 571.42 1.53834 565.149 0.55394C563.061 0.226104 545.166 -0.161782 544.881 0.114898ZM5.67151 2.05478C2.5524 2.13129 0 2.26029 0 2.34169C0 2.42309 13.5863 31.689 30.192 67.3768L60.3836 132.264L52.6699 155.069L44.9566 177.873H67.8077H90.6588L107.215 136.393C116.321 113.579 131.982 74.3957 142.016 49.3187C152.051 24.2417 160.357 3.37235 160.474 2.9422C160.676 2.20157 159.335 2.16598 135.208 2.27497L109.729 2.38973L95.8997 40.0873C88.2932 60.821 81.9509 77.7852 81.805 77.7861C81.6591 77.787 74.9689 61.6239 66.9381 41.8679C58.9072 22.1119 51.9439 4.99774 51.464 3.83541L50.5912 1.72249L30.9673 1.81902C20.1741 1.8724 8.79062 1.97827 5.67151 2.05478ZM169.033 49.0491C169.033 77.7728 169.21 97.7152 169.489 100.538C170.466 110.404 172.09 116.451 175.624 123.382C178.459 128.94 184.091 134.628 189.415 137.308C191.45 138.333 193.744 139.282 194.512 139.417C195.28 139.553 196.117 139.83 196.372 140.034C196.803 140.38 197.293 140.507 200.838 141.192C204.995 141.997 209.841 142.323 213.961 142.075C220.87 141.66 224.824 141.329 225.135 141.14C225.286 141.047 226.446 140.846 227.713 140.691C228.979 140.537 231.457 140.031 233.22 139.566C234.982 139.103 236.918 138.612 237.522 138.477C238.127 138.341 238.877 138.018 239.191 137.758C239.504 137.498 239.76 137.398 239.76 137.537C239.76 137.675 241.202 137.194 242.963 136.468C251.137 133.097 257.826 128.182 262.793 121.896L264.671 119.521V129.792V140.063H287.579H310.487V71.1151V2.16732H284.91H259.333V40.6909V79.2145L257.714 82.2944C254.429 88.5455 246.938 95.0093 240.769 96.9145C231.862 99.6657 224.137 95.7175 221.007 86.8134C220.167 84.4207 220.138 82.9448 220.174 43.2522L220.212 2.16732H194.622H169.033V49.0491ZM557.301 42.8581C558.308 43.028 559.284 43.1824 559.472 43.2006C559.658 43.2188 561.543 44.1071 563.66 45.1743C566.617 46.6658 568.173 47.821 570.384 50.1639C575.534 55.6241 577.503 61.4175 577.503 71.1151C577.503 81.0098 575.196 87.5972 569.853 92.9604C567.47 95.3514 563.41 98.1146 561.702 98.5065C561.519 98.5488 561.319 98.6235 561.257 98.6729C561.196 98.7218 560.846 98.8352 560.479 98.9246C560.112 99.014 559.311 99.2133 558.699 99.3677C557.487 99.6742 549.546 99.7391 548.468 99.4513C545.278 98.6004 541.373 96.7468 538.959 94.9381C534.168 91.3493 531.518 87.3779 529.681 81.0387C528.223 76.0059 528.228 66.158 529.692 61.329C531.309 55.9929 533.265 52.5232 536.458 49.324C541.958 43.814 549.363 41.5169 557.301 42.8581Z" fill="#BEFAC1"/>
<path fill-rule="evenodd" clip-rule="evenodd" d="M415.688 0.226964C414.954 0.315484 412.552 0.599282 410.35 0.857725C408.148 1.11572 404.745 1.72024 402.788 2.20065C400.831 2.68062 398.863 3.16192 398.415 3.26912C394.714 4.15832 386.526 7.94511 382.157 10.7884C379.086 12.787 373.912 17.572 371.517 20.6279L370.123 22.4072L370.109 12.2875L370.093 2.16773H347.185H324.277V71.1155V140.063H349.632H374.987V101.568C374.987 63.2217 374.99 63.066 375.93 61.2004C378.951 55.2064 384.676 49.3992 390.311 46.6146C394.592 44.4986 395.556 44.2632 399.897 44.2726C403.599 44.2801 406.449 45.4002 409.43 48.018C411.275 49.6376 413.964 54.7829 414.357 57.4447C414.509 58.4803 414.671 77.4431 414.716 99.5843L414.798 139.841L440.294 139.956L465.789 140.07L465.615 90.8026C465.46 47.063 465.355 41.0107 464.683 36.864C461.632 18.0649 453.87 7.42645 439.569 2.44575C437.78 1.82255 435.57 1.20157 434.658 1.06546C433.746 0.929342 432.508 0.694029 431.906 0.542344C430.672 0.230967 417.74 -0.0203585 415.688 0.226964ZM545.334 0.101968C545.223 0.206947 543.66 0.423576 541.862 0.583268C540.063 0.74296 537.561 1.07791 536.301 1.3279C535.042 1.5779 533.511 1.87904 532.899 1.99781C504.104 7.58125 483.156 28.3163 477.676 56.6587C476.547 62.5019 476.119 74.3432 476.819 80.3683C478.159 91.8919 482.59 103.479 489.306 113.027C492.954 118.211 499.933 125.211 505.111 128.876C513.317 134.685 525.974 139.748 535.808 141.156C536.797 141.297 538.098 141.516 538.7 141.642C545.398 143.04 561.491 142.889 569.82 141.35C573.953 140.586 574.412 140.485 576.937 139.789C578.282 139.417 580.135 138.926 581.054 138.696C585.249 137.647 594.015 133.581 598.937 130.401C600.66 129.288 603.885 126.816 606.105 124.909C617.823 114.837 625.01 102.327 628.608 85.7413C629.48 81.7197 629.609 79.8327 629.609 71.1155C629.609 62.3925 629.48 60.5069 628.603 56.4363C623.897 34.5963 611.517 18.1654 592.43 8.42552C589.575 6.96872 585.471 5.26193 583.311 4.6325C581.151 4.00352 578.783 3.30026 578.049 3.06984C577.315 2.83897 576.031 2.53338 575.195 2.3897C574.359 2.24647 573.558 2.0592 573.416 1.97379C573.273 1.88838 572.255 1.69533 571.154 1.54498C570.053 1.39463 568.652 1.17933 568.04 1.06724C567.429 0.954697 566.128 0.737177 565.149 0.583713C563.025 0.25054 545.623 -0.172488 545.334 0.101968ZM16.8224 2.15973L0.0605469 2.39014L13.1864 30.6365C20.4055 46.172 27.0196 60.3841 27.8834 62.219C28.7477 64.0539 33.3579 73.9624 38.1286 84.2378C42.8994 94.5133 47.6029 104.622 48.5815 106.701C49.5602 108.781 51.561 113.085 53.0276 116.265C54.4941 119.446 56.7672 124.305 58.0785 127.063L60.4628 132.079L58.5247 137.961C57.4589 141.197 54.0636 151.319 50.9791 160.455C47.8952 169.59 45.3717 177.247 45.3717 177.469C45.3717 177.706 54.7206 177.873 67.9737 177.873H90.5761L125.407 90.5766C144.564 42.5636 160.337 3.02936 160.458 2.72376C160.631 2.28294 155.413 2.16773 135.26 2.16773C115.323 2.16773 109.803 2.28739 109.657 2.72376C109.254 3.92523 106.286 12.0655 103.94 18.4038C102.581 22.0736 100.673 27.2781 99.6985 29.9693C98.7248 32.6604 96.0888 39.8666 93.8406 45.9829C91.593 52.0993 89.0979 58.9051 88.2964 61.107C87.4948 63.3088 85.8156 67.8634 84.5656 71.2281C83.3152 74.5927 82.2921 77.545 82.2921 77.7892C82.2921 78.033 82.1418 78.2318 81.9585 78.2305C81.7752 78.2287 74.6291 61.014 66.0792 39.9756L50.5334 1.72291L42.0586 1.82611C37.3973 1.8826 26.041 2.03295 16.8224 2.15973ZM169.083 49.4303C169.147 99.2862 169.282 103.159 171.23 111.365C172.39 116.245 174.341 121.164 176.704 125.162C178.901 128.878 184.314 134.372 187.802 136.426C190.322 137.909 197.704 140.628 200.615 141.145C203.318 141.624 210.494 142.283 210.82 142.081C210.992 141.975 213.32 141.854 215.994 141.813C227.267 141.64 238.421 138.898 247.678 134.026C254.05 130.671 260.008 125.711 263.665 120.713L264.642 119.379L264.656 129.721L264.67 140.063H287.579H310.487V71.1155V2.16773H284.91H259.332V40.936V79.7042L257.71 82.6382C255.594 86.4651 248.959 93.0801 245.32 94.9906C235.66 100.062 226.705 98.0839 222.28 89.9013C219.765 85.2489 219.759 85.1399 219.75 41.8683L219.743 2.16773H194.382H169.021L169.083 49.4303ZM557.587 42.8496C561.215 43.3767 566.83 46.3913 569.966 49.4948C574.17 53.6544 576.216 58.1538 577.369 65.7776C578.562 73.6577 576.771 83.5724 573.153 89.1238C569.483 94.7544 563.6 98.7565 557.932 99.4793C552.623 100.156 548.843 99.816 544.888 98.3059C535.93 94.8852 530.599 87.8618 528.883 77.2225C528.208 73.0332 528.533 65.3355 529.544 61.5518C533.168 48.0042 543.884 40.8572 557.587 42.8496Z" fill="#BEFAC1"/>
<path fill-rule="evenodd" clip-rule="evenodd" d="M417.162 0.164777C417.085 0.235504 415.621 0.414324 413.909 0.562006C409.501 0.94233 406.897 1.27061 406.125 1.54373C405.758 1.67362 404.657 1.88936 403.678 2.02281C402.699 2.1567 401.098 2.52235 400.119 2.83506C399.141 3.14821 397.739 3.54188 397.005 3.70958C395.522 4.04943 394.267 4.57299 388.849 7.11338C386.81 8.06975 384.844 9.14979 384.481 9.51321C384.117 9.87663 383.582 10.1742 383.291 10.1742C383 10.1742 382.214 10.6827 381.543 11.3041C380.873 11.9259 380.325 12.3049 380.325 12.147C380.325 11.9887 379.74 12.4313 379.025 13.1296C378.311 13.8284 376.709 15.2995 375.467 16.3986C374.224 17.4978 373.207 18.6468 373.207 18.9524C373.207 19.258 372.807 19.758 372.318 20.0636C371.828 20.3691 371.428 20.85 371.428 21.132C371.428 21.4136 371.128 21.7597 370.761 21.9007C370.18 22.1235 370.094 20.8633 370.094 12.1621V2.16738H347.408H324.722V71.1152V140.063H349.854H374.987V101.598V63.1323L375.988 61.0074C376.538 59.8389 377.339 58.4946 377.767 58.02C378.195 57.5458 378.545 56.8892 378.545 56.5605C378.545 56.2322 378.846 55.8479 379.213 55.7073C379.579 55.5663 379.88 55.2278 379.88 54.9547C379.88 54.6816 381.073 53.3515 382.532 51.9997C386.054 48.7343 386.435 48.4291 386.978 48.4291C387.233 48.4291 387.442 48.2779 387.442 48.0928C387.442 47.9078 388.092 47.4736 388.887 47.1276C389.683 46.7819 390.433 46.3634 390.556 46.1979C390.678 46.0324 392.104 45.4844 393.724 44.9804C396.953 43.9751 402.481 43.8683 404.176 44.778C404.694 45.0565 405.244 45.1574 405.399 45.0031C405.553 44.8487 405.68 44.9675 405.68 45.2673C405.68 45.5671 405.853 45.7055 406.065 45.5747C406.277 45.4435 406.809 45.7321 407.246 46.2157C407.684 46.6992 408.202 47.0946 408.397 47.0946C408.86 47.0946 411.017 49.252 411.017 49.7147C411.017 49.9104 411.413 50.4286 411.896 50.8663C412.38 51.3036 412.669 51.8351 412.537 52.0473C412.407 52.2591 412.523 52.4325 412.797 52.4325C413.07 52.4325 413.179 52.6189 413.038 52.8467C412.897 53.0744 412.957 53.3689 413.171 53.501C414.474 54.3061 414.646 59.4141 414.722 99.3615L414.798 139.841H440.153H465.508L465.484 93.3564C465.47 67.7901 465.31 44.778 465.127 42.2189C464.747 36.8717 463.43 29.6024 462.214 26.1292C461.083 22.9015 458.385 17.5116 456.676 15.0673C455.161 12.8997 450.335 7.95009 449.736 7.95009C449.533 7.95009 449.252 7.64984 449.111 7.28286C448.971 6.91588 448.549 6.61562 448.174 6.61562C447.8 6.61562 447.493 6.40344 447.493 6.14455C447.493 5.88566 447.293 5.79714 447.048 5.94838C446.804 6.09962 446.603 6.0418 446.603 5.81983C446.603 5.3759 443.047 3.65709 442.498 3.83547C442.31 3.89685 442.155 3.7465 442.155 3.50185C442.155 3.2572 441.688 3.05703 441.117 3.05703C440.546 3.05703 439.94 2.9178 439.77 2.74743C439.6 2.5775 439.216 2.38223 438.917 2.31328C438.618 2.24478 437.33 1.89692 436.054 1.54017C434.778 1.18298 433.077 0.76529 432.273 0.611381C430.782 0.325804 417.414 -0.0692002 417.162 0.164777ZM545.293 0.140757C545.205 0.222605 543.831 0.414324 542.241 0.567344C540.65 0.720363 539.049 0.910748 538.682 0.990372C537.981 1.14206 535.746 1.56864 533.678 1.94496C531.344 2.36933 529.999 2.65668 528.229 3.10774C525.541 3.79277 519.976 5.68727 518.22 6.51509C517.364 6.91899 516.547 7.25661 516.405 7.26595C515.704 7.31177 511.548 9.48474 511.548 9.80546C511.548 10.0083 511.147 10.1742 510.658 10.1742C510.169 10.1742 509.769 10.3744 509.769 10.619C509.769 10.8637 509.506 11.0639 509.185 11.0639C508.864 11.0639 508.185 11.4522 507.676 11.9268C507.166 12.4015 506.667 12.707 506.566 12.6061C506.465 12.5047 505.743 13.006 504.961 13.7195C504.18 14.4334 503.541 14.8827 503.541 14.7181C503.541 14.4272 503.174 14.7537 500.05 17.8279C499.231 18.6339 498.431 19.2998 498.271 19.3078C497.865 19.3287 494.455 22.7779 494.437 23.1867C494.429 23.3713 493.872 23.9949 493.199 24.5732C492.526 25.151 491.976 25.8494 491.976 26.1247C491.976 26.4001 491.575 26.8751 491.086 27.1807C490.597 27.4863 490.196 27.9672 490.196 28.2492C490.196 28.5308 489.868 28.888 489.465 29.0423C489.063 29.1962 488.842 29.4302 488.974 29.5619C489.106 29.6936 488.738 30.3145 488.156 30.9422C487.575 31.5694 487.207 32.2575 487.34 32.4715C487.472 32.6854 487.368 32.8603 487.109 32.8603C486.85 32.8603 486.638 33.1605 486.638 33.5275C486.638 33.8945 486.425 34.1947 486.167 34.1947C485.908 34.1947 485.819 34.3949 485.97 34.6396C486.122 34.8842 486.066 35.0844 485.846 35.0844C485.417 35.0844 484.207 37.3112 484.336 37.8645C484.378 38.0478 484.18 38.1982 483.894 38.1982C483.609 38.1982 483.51 38.332 483.673 38.4957C483.837 38.6594 483.659 39.1372 483.278 39.558C482.898 39.9788 482.555 40.7457 482.515 41.2621C482.477 41.779 482.304 42.2016 482.131 42.2016C481.826 42.2016 479.697 48.2103 479.374 49.986C479.285 50.4753 478.977 51.4486 478.691 52.1487C478.404 52.8493 478.214 53.65 478.268 53.928C478.321 54.2065 478.131 55.4351 477.844 56.6584C476.892 60.7254 476.779 61.9424 476.622 69.7807C476.375 82.1308 477.337 87.5968 481.809 99.2556C482.582 101.271 483.385 102.987 483.594 103.069C483.803 103.151 483.861 103.401 483.723 103.625C483.584 103.849 483.695 104.032 483.969 104.032C484.242 104.032 484.342 104.232 484.191 104.477C484.04 104.722 484.084 104.922 484.29 104.922C484.495 104.922 484.9 105.472 485.189 106.145C485.479 106.818 485.973 107.769 486.287 108.258C486.602 108.747 487.725 110.499 488.784 112.15C489.843 113.802 490.894 115.153 491.12 115.153C491.346 115.153 491.531 115.396 491.531 115.692C491.531 115.989 492.05 116.739 492.685 117.36C493.321 117.981 495.149 119.79 496.749 121.38C500.537 125.145 502.227 126.718 502.482 126.718C502.733 126.718 503.726 127.53 504.897 128.693C505.375 129.167 505.765 129.379 505.765 129.163C505.765 128.949 506.059 129.161 506.418 129.636C506.778 130.11 507.078 130.311 507.085 130.081C507.093 129.85 507.394 130.05 507.753 130.525C508.112 131 508.412 131.231 508.42 131.038C508.428 130.845 508.865 131.088 509.391 131.578C509.918 132.069 510.502 132.375 510.69 132.259C510.877 132.143 511.312 132.328 511.655 132.671C512.58 133.597 516.734 135.618 517.054 135.298C517.206 135.146 517.331 135.255 517.331 135.54C517.331 135.826 517.481 136.017 517.664 135.965C517.847 135.913 518.448 136.12 518.999 136.426C519.549 136.731 519.999 136.849 519.999 136.688C519.999 136.527 520.3 136.644 520.667 136.949C521.034 137.254 521.334 137.354 521.334 137.172C521.334 136.989 521.6 137.061 521.925 137.331C522.25 137.6 523.001 137.91 523.593 138.019C524.185 138.128 524.72 138.257 524.781 138.306C524.843 138.355 525.043 138.437 525.226 138.489C525.409 138.541 525.86 138.713 526.227 138.873C526.594 139.032 527.395 139.251 528.006 139.357C528.618 139.465 529.218 139.591 529.341 139.638C529.463 139.685 529.734 139.693 529.944 139.655C530.153 139.618 530.553 139.772 530.833 139.999C531.113 140.225 532.143 140.528 533.122 140.672C534.1 140.816 535.402 141.032 536.013 141.154C536.625 141.275 537.826 141.466 538.682 141.577C539.538 141.689 541.24 141.924 542.463 142.1C545.25 142.501 560.828 142.525 563.815 142.132C565.038 141.972 566.839 141.736 567.818 141.61C570.67 141.24 578.428 139.562 579.211 139.145C579.606 138.935 580.585 138.647 581.388 138.506C585.399 137.799 598.579 131.257 601.13 128.707C601.524 128.312 601.847 128.151 601.847 128.35C601.847 128.549 602.323 128.212 602.905 127.603C603.487 126.994 604.438 126.107 605.018 125.632C607.007 124.003 612.912 118.267 612.606 118.259C612.438 118.255 612.978 117.655 613.807 116.925C614.635 116.195 615.135 115.591 614.919 115.583C614.702 115.574 614.997 115.174 615.575 114.693C616.152 114.212 616.495 113.818 616.336 113.818C616.177 113.818 616.252 113.568 616.503 113.262C618.104 111.313 619.986 108.53 619.818 108.362C619.708 108.252 619.924 107.909 620.297 107.6C620.669 107.29 620.975 106.761 620.975 106.424C620.975 106.087 621.187 105.811 621.446 105.811C621.705 105.811 621.793 105.611 621.642 105.367C621.491 105.122 621.591 104.922 621.864 104.922C622.138 104.922 622.238 104.722 622.087 104.477C621.935 104.232 622.036 104.032 622.309 104.032C622.583 104.032 622.683 103.832 622.531 103.587C622.38 103.343 622.48 103.143 622.754 103.143C623.027 103.143 623.128 102.942 622.976 102.698C622.825 102.453 622.892 102.253 623.124 102.253C623.468 102.253 623.894 101.278 624.29 99.5839C624.319 99.4616 624.592 98.9113 624.898 98.3607C625.204 97.8104 625.322 97.3598 625.162 97.3598C625.001 97.3598 625.118 97.0595 625.423 96.6926C625.728 96.3256 625.828 96.0253 625.645 96.0253C625.463 96.0253 625.563 95.7251 625.868 95.3581C626.172 94.9911 626.272 94.6909 626.09 94.6909C625.908 94.6909 625.966 94.4409 626.22 94.1348C626.904 93.3106 628.449 86.9202 629.17 81.9368C630.105 75.4664 629.81 62.9188 628.578 56.7878C627.294 50.3912 625.044 43.6784 622.647 39.0878C618.999 32.1018 618.1 30.5441 617.089 29.4525C616.535 28.8551 616.082 28.243 616.082 28.0926C616.082 27.7087 615.476 27.0642 609.78 21.3811C603.571 15.1878 603.439 15.0673 602.858 15.0673C602.599 15.0673 602.272 14.767 602.131 14.4C601.99 14.0331 601.569 13.7328 601.194 13.7328C600.819 13.7328 600.513 13.5326 600.513 13.288C600.513 13.0433 600.212 12.8432 599.845 12.8432C599.478 12.8432 599.178 12.643 599.178 12.3983C599.178 12.1537 598.878 11.9535 598.511 11.9535C598.144 11.9535 597.844 11.7413 597.844 11.4824C597.844 11.2236 597.644 11.135 597.399 11.2863C597.154 11.4375 596.954 11.349 596.954 11.0901C596.954 10.8312 596.654 10.619 596.287 10.619C595.92 10.619 595.62 10.4069 595.62 10.148C595.62 9.88908 595.419 9.80056 595.175 9.9518C594.93 10.103 594.73 10.0488 594.73 9.8317C594.73 9.38777 590.304 7.22147 589.749 7.39406C589.553 7.455 589.392 7.27174 589.392 6.98616C589.392 6.70103 589.266 6.59382 589.111 6.74818C588.957 6.90253 588.406 6.79311 587.888 6.50441C587.369 6.21617 586.845 5.9555 586.723 5.9257C586.601 5.8959 586.1 5.7193 585.611 5.53292C582.774 4.45288 581.15 3.86839 581.056 3.89374C580.998 3.90931 580.698 3.84392 580.389 3.74828C577.451 2.83684 570.229 1.35513 566.928 0.987258C565.95 0.877831 564.079 0.625615 562.772 0.426779C560.488 0.0789263 545.623 -0.163948 545.293 0.140757ZM16.8452 2.15937L0.106934 2.38979L2.134 6.61562C3.24873 8.93983 4.18953 10.9415 4.22423 11.0639C4.25892 11.1862 4.82385 12.4619 5.47952 13.8992C6.13564 15.3364 6.6721 16.6878 6.6721 16.9017C6.6721 17.1161 6.83223 17.2914 7.02751 17.2914C7.22323 17.2914 7.65383 18.0423 7.98433 18.9595C8.31528 19.8772 9.59637 22.7294 10.8312 25.2982C12.0665 27.8671 13.0985 30.069 13.1247 30.1913C13.1514 30.3136 13.844 31.8149 14.6643 33.5275C15.4845 35.2401 16.19 36.7414 16.2318 36.8637C16.4222 37.4166 18.2842 41.4374 20.0435 45.0929C21.1026 47.2948 21.9923 49.1964 22.0199 49.3188C22.047 49.4411 22.7405 50.9424 23.5607 52.6549C24.381 54.3675 25.0843 55.8688 25.1239 55.9911C25.3129 56.5761 27.3573 60.9643 32.0662 70.8927C33.1102 73.0946 33.9928 74.9963 34.0275 75.1186C34.0622 75.2409 34.6271 76.5167 35.2828 77.9539C35.9389 79.3911 36.4753 80.7425 36.4753 80.9565C36.4753 81.1709 36.6355 81.3461 36.8307 81.3461C37.0265 81.3461 37.4571 82.097 37.7876 83.0142C38.1185 83.9319 39.3996 86.7841 40.6344 89.353C41.8697 91.9218 42.9017 94.1237 42.928 94.246C42.9546 94.3684 43.6472 95.8696 44.4675 97.5822C45.2878 99.2948 45.991 100.796 46.0306 100.918C46.1841 101.393 47.3967 104 49.5483 108.48C50.7818 111.049 51.8093 113.251 51.832 113.373C51.8542 113.496 52.5437 114.997 53.364 116.71C54.1842 118.422 54.8875 119.924 54.9271 120.046C55.0766 120.508 56.2647 123.078 58.2001 127.126C60.1258 131.154 60.8179 133.835 59.9318 133.835C59.7005 133.835 59.6187 134.116 59.7503 134.459C59.882 134.802 59.8535 135.219 59.6867 135.386C59.5199 135.552 59.3589 135.872 59.3282 136.096C59.2975 136.321 59.2223 136.604 59.1614 136.727C59.1004 136.849 58.9999 137.149 58.939 137.394C58.878 137.639 58.7775 137.939 58.7166 138.061C58.6556 138.184 58.5551 138.484 58.4941 138.728C58.4332 138.973 58.3327 139.273 58.2717 139.396C58.2108 139.518 58.1103 139.818 58.0493 140.063C57.9884 140.308 57.8878 140.608 57.8269 140.73C57.766 140.853 57.6654 141.153 57.6045 141.397C57.5436 141.642 57.443 141.942 57.3821 142.065C57.3211 142.187 57.2291 142.437 57.1779 142.621C57.1268 142.804 56.8358 143.555 56.5316 144.289C55.0739 147.802 49.0292 166.258 49.2605 166.489C49.405 166.634 49.2685 166.752 48.9571 166.752C48.6359 166.752 48.5016 167.042 48.6466 167.42C48.7872 167.787 48.6871 168.087 48.4242 168.087C48.1609 168.087 48.0608 168.387 48.2018 168.754C48.3424 169.121 48.2423 169.421 47.9794 169.421C47.716 169.421 47.6084 169.702 47.7401 170.045C47.8717 170.388 47.8433 170.805 47.6765 170.972C47.5096 171.138 47.3486 171.458 47.3179 171.682C47.2872 171.907 47.2125 172.19 47.1511 172.313C47.0897 172.435 46.9901 172.735 46.9287 172.98C46.8673 173.225 46.7677 173.525 46.7063 173.647C46.6449 173.77 46.5453 174.07 46.4839 174.314C46.4225 174.559 46.3229 174.859 46.2615 174.982C46.2001 175.104 46.1004 175.404 46.0391 175.649C45.9777 175.894 45.8874 176.144 45.838 176.205C45.7891 176.266 45.6814 176.666 45.5996 177.095C45.459 177.828 46.7699 177.873 68.1237 177.873C81.714 177.873 90.6959 177.71 90.5451 177.466C90.4067 177.242 90.4766 176.992 90.7003 176.91C90.9241 176.828 91.1758 176.361 91.259 175.871C91.3426 175.382 91.5415 174.882 91.7003 174.759C91.8595 174.637 92.0597 174.136 92.1451 173.647C92.231 173.158 92.4311 172.657 92.5899 172.535C92.7492 172.413 92.9493 171.912 93.0348 171.423C93.1206 170.934 93.3208 170.433 93.4796 170.311C93.6388 170.189 93.839 169.688 93.9244 169.199C94.0103 168.71 94.2104 168.209 94.3692 168.087C94.5285 167.965 94.7286 167.464 94.814 166.975C94.8999 166.486 95.1001 165.985 95.2589 165.863C95.4181 165.74 95.6183 165.24 95.7037 164.751C95.7895 164.261 95.9897 163.761 96.1485 163.639C96.3078 163.516 96.5079 163.016 96.5933 162.527C96.6792 162.037 96.8794 161.537 97.0382 161.415C97.1974 161.292 97.3976 160.792 97.483 160.302C97.5688 159.813 97.769 159.313 97.9278 159.19C98.0871 159.068 98.2872 158.568 98.3726 158.078C98.4585 157.589 98.6587 157.089 98.8175 156.966C98.9767 156.844 99.1769 156.344 99.2623 155.854C99.3481 155.365 99.5483 154.864 99.7071 154.742C99.8664 154.62 100.067 154.119 100.152 153.63C100.238 153.141 100.438 152.64 100.597 152.518C100.756 152.396 100.956 151.895 101.042 151.406C101.127 150.917 101.328 150.416 101.486 150.294C101.646 150.172 101.846 149.671 101.931 149.182C102.017 148.693 102.247 148.174 102.443 148.03C102.639 147.886 102.831 147.335 102.871 146.806C102.911 146.278 103.101 145.846 103.294 145.846C103.486 145.846 103.644 145.443 103.644 144.95C103.644 144.457 103.82 143.706 104.037 143.282C104.404 142.559 104.779 141.672 105.868 138.951C106.113 138.339 106.513 137.338 106.758 136.727C107.88 133.921 108.243 133.086 108.838 131.945C109.189 131.272 109.361 130.722 109.219 130.722C109.077 130.722 109.289 130.221 109.69 129.61C110.091 128.998 110.291 128.498 110.135 128.498C109.979 128.498 110.179 127.997 110.58 127.385C110.98 126.774 111.18 126.273 111.024 126.273C110.868 126.273 111.068 125.773 111.469 125.161C111.87 124.55 112.07 124.049 111.914 124.049C111.758 124.049 111.958 123.549 112.359 122.937C112.76 122.326 112.96 121.825 112.804 121.825C112.648 121.825 112.848 121.325 113.248 120.713C113.649 120.101 113.849 119.601 113.693 119.601C113.537 119.601 113.737 119.101 114.138 118.489C114.539 117.877 114.739 117.377 114.583 117.377C114.427 117.377 114.627 116.876 115.028 116.265C115.429 115.653 115.629 115.153 115.473 115.153C115.316 115.153 115.517 114.652 115.917 114.041C116.318 113.429 116.518 112.929 116.362 112.929C116.206 112.929 116.406 112.428 116.807 111.817C117.208 111.205 117.408 110.705 117.252 110.705C117.096 110.705 117.296 110.204 117.697 109.592C118.098 108.981 118.298 108.48 118.142 108.48C117.985 108.48 118.186 107.98 118.586 107.368C118.987 106.757 119.187 106.256 119.031 106.256C118.875 106.256 119.075 105.756 119.476 105.144C119.877 104.533 120.077 104.032 119.921 104.032C119.765 104.032 119.965 103.532 120.366 102.92C120.766 102.308 120.967 101.808 120.81 101.808C120.654 101.808 120.855 101.308 121.255 100.696C121.656 100.084 121.856 99.5839 121.7 99.5839C121.544 99.5839 121.744 99.0835 122.145 98.4719C122.546 97.8602 122.726 97.3598 122.546 97.3598C122.365 97.3598 122.423 97.1094 122.676 96.8038C123.154 96.2224 127.977 84.286 128.202 83.1254C128.273 82.7584 128.462 82.3581 128.621 82.2358C128.78 82.1134 128.98 81.613 129.066 81.1237C129.151 80.6344 129.352 80.134 129.51 80.0116C129.67 79.8893 129.87 79.3889 129.955 78.8996C130.041 78.4103 130.241 77.9099 130.4 77.7875C130.559 77.6652 130.759 77.1648 130.845 76.6755C130.931 76.1862 131.131 75.6857 131.29 75.5634C131.449 75.4411 131.649 74.9406 131.734 74.4513C131.82 73.962 132.02 73.4616 132.179 73.3393C132.339 73.217 132.539 72.7165 132.624 72.2272C132.71 71.7379 132.91 71.2375 133.069 71.1152C133.228 70.9928 133.428 70.4924 133.514 70.0031C133.6 69.5138 133.8 69.0134 133.959 68.891C134.118 68.7687 134.318 68.2683 134.403 67.779C134.489 67.2897 134.689 66.7892 134.848 66.6669C135.007 66.5446 135.208 66.0442 135.293 65.5549C135.379 65.0655 135.579 64.5651 135.738 64.4428C135.897 64.3205 136.097 63.82 136.183 63.3307C136.269 62.8414 136.469 62.341 136.628 62.2187C136.787 62.0963 136.987 61.5959 137.072 61.1066C137.158 60.6173 137.358 60.1169 137.517 59.9945C137.676 59.8722 137.877 59.3718 137.962 58.8825C138.048 58.3932 138.248 57.8928 138.407 57.7704C138.566 57.6481 138.766 57.1477 138.852 56.6584C138.938 56.1691 139.138 55.6686 139.296 55.5463C139.456 55.424 139.656 54.9236 139.741 54.4342C139.827 53.9449 140.027 53.4445 140.186 53.3222C140.345 53.1999 140.546 52.6994 140.631 52.2101C140.717 51.7208 140.932 51.2115 141.109 51.0789C141.286 50.9459 141.506 50.4455 141.598 49.9669C141.805 48.8873 142.143 47.9598 143.738 44.0921C144.015 43.4191 144.415 42.4182 144.627 41.868C145.464 39.6932 146.038 38.3676 146.649 37.1973C147 36.5243 147.171 35.974 147.029 35.974C146.887 35.974 147.099 35.4736 147.5 34.862C147.901 34.2503 148.101 33.7499 147.945 33.7499C147.789 33.7499 147.989 33.2495 148.39 32.6378C148.79 32.0262 148.991 31.5258 148.834 31.5258C148.678 31.5258 148.878 31.0254 149.279 30.4137C149.68 29.8021 149.88 29.3017 149.724 29.3017C149.568 29.3017 149.768 28.8012 150.169 28.1896C150.57 27.578 150.77 27.0775 150.614 27.0775C150.458 27.0775 150.658 26.5771 151.059 25.9655C151.459 25.3538 151.66 24.8534 151.503 24.8534C151.347 24.8534 151.547 24.353 151.948 23.7414C152.349 23.1297 152.549 22.6293 152.393 22.6293C152.237 22.6293 152.437 22.1289 152.838 21.5172C153.239 20.9056 153.439 20.4052 153.283 20.4052C153.127 20.4052 153.327 19.9047 153.727 19.2931C154.128 18.6815 154.328 18.1811 154.172 18.1811C154.016 18.1811 154.216 17.6806 154.617 17.069C155.018 16.4574 155.218 15.9569 155.062 15.9569C154.906 15.9569 155.106 15.4565 155.507 14.8449C155.908 14.2332 156.108 13.7328 155.952 13.7328C155.795 13.7328 155.996 13.2324 156.396 12.6208C156.797 12.0091 156.997 11.5087 156.841 11.5087C156.685 11.5087 156.885 11.0083 157.286 10.3966C157.687 9.78499 157.887 9.28457 157.731 9.28457C157.575 9.28457 157.775 8.78414 158.176 8.17251C158.577 7.56087 158.777 7.06045 158.621 7.06045C158.464 7.06045 158.665 6.56002 159.065 5.94838C159.466 5.33675 159.666 4.83632 159.51 4.83632C159.354 4.83632 159.532 4.37015 159.905 3.79988C160.279 3.23006 160.45 2.62955 160.286 2.46541C159.852 2.03171 110.646 2.11266 109.959 2.54859C109.64 2.75054 109.433 3.09795 109.498 3.32036C109.563 3.54233 109.374 4.1593 109.079 4.69131C108.783 5.22332 108.471 6.024 108.386 6.47061C108.3 6.91721 107.802 8.24279 107.278 9.41668C106.755 10.5901 106.366 11.6911 106.414 11.8632C106.462 12.0349 106.26 12.611 105.965 13.143C105.67 13.675 105.342 14.5758 105.236 15.1447C105.131 15.7136 105.005 16.2292 104.956 16.2906C104.907 16.3519 104.835 16.5517 104.796 16.7354C104.756 16.9191 104.482 17.504 104.187 18.036C103.891 18.5681 103.577 19.3687 103.489 19.8153C103.402 20.2619 103.018 21.3264 102.637 22.18C102.256 23.0341 102.038 23.8846 102.153 24.0705C102.268 24.2565 102.128 24.4086 101.843 24.4086C101.558 24.4086 101.424 24.667 101.545 24.9833C101.666 25.2991 101.488 25.9379 101.148 26.4027C100.808 26.8676 100.53 27.6981 100.53 28.2483C100.53 28.799 100.327 29.3751 100.078 29.5285C99.8294 29.6824 99.7409 29.9943 99.8819 30.222C100.023 30.4498 99.9415 30.6361 99.7018 30.6361C99.4625 30.6361 99.1115 31.2869 98.9225 32.0818C98.471 33.9794 98.5484 33.753 97.7503 35.5248C97.3656 36.3788 97.1449 37.2293 97.2597 37.4153C97.3749 37.6012 97.2352 37.7533 96.9501 37.7533C96.665 37.7533 96.5306 38.0118 96.6521 38.328C96.7731 38.6439 96.5947 39.2826 96.2548 39.7475C95.915 40.2123 95.637 41.0428 95.637 41.5931C95.637 42.1437 95.4337 42.7198 95.185 42.8733C94.9364 43.0272 94.8479 43.339 94.9889 43.5667C95.1294 43.7945 95.0485 43.9809 94.8087 43.9809C94.4595 43.9809 93.9822 45.2575 93.6446 47.0946C93.6219 47.217 93.3617 47.7521 93.0659 48.2841C92.7701 48.8161 92.4418 49.7169 92.3364 50.2858C92.231 50.8547 92.1046 51.3703 92.0557 51.4317C92.0072 51.4931 91.9351 51.6932 91.896 51.8765C91.8564 52.0598 91.5824 52.6452 91.2866 53.1772C90.9908 53.7092 90.6785 54.5099 90.5927 54.9565C90.5068 55.4031 90.0086 56.7286 89.4851 57.9025C88.9619 59.076 88.5732 60.1769 88.6212 60.3491C88.6692 60.5208 88.4673 61.0968 88.1719 61.6288C87.8766 62.1608 87.5487 63.0616 87.4433 63.6305C87.3379 64.1995 87.2116 64.7155 87.1626 64.7764C87.1141 64.8374 87.0421 65.038 87.0029 65.2212C86.9633 65.4045 86.6893 65.9899 86.3935 66.5219C86.0977 67.0539 85.7841 67.8546 85.6965 68.3012C85.6089 68.7478 85.2254 69.8123 84.8442 70.6659C84.463 71.52 84.245 72.3705 84.3598 72.5564C84.475 72.7423 84.3353 72.8945 84.0502 72.8945C83.7651 72.8945 83.6374 73.1702 83.7668 73.5074C83.8963 73.8446 83.7962 74.3263 83.5444 74.5781C83.2922 74.8303 82.9528 75.6902 82.7891 76.49C82.173 79.5019 81.6237 78.7439 78.4098 70.4479C77.5571 68.246 75.9571 64.3427 74.8539 61.7738C73.7512 59.205 72.4994 56.1023 72.0724 54.8791C71.6454 53.6558 70.8896 51.7542 70.3936 50.6532C69.8972 49.5523 68.8523 47.0502 68.0712 45.0929C67.2901 43.1357 65.7706 39.417 64.6945 36.829C63.6185 34.2414 62.2422 30.807 61.6359 29.1971C61.0301 27.5869 59.6066 24.0994 58.4723 21.447C57.338 18.7945 56.1045 15.7256 55.7304 14.6278C55.3568 13.53 54.4743 11.373 53.7701 9.83481C53.0655 8.29661 52.489 6.94924 52.489 6.84026C52.489 6.73128 51.9828 5.53514 51.3641 4.18243L50.2386 1.72255L41.9115 1.82575C37.3312 1.88224 26.0518 2.03259 16.8452 2.15937ZM169.389 47.8731C169.34 73.0114 169.29 94.2794 169.278 95.1357C169.176 102.22 171.784 115.722 174.035 119.766C174.325 120.287 174.583 120.813 174.609 120.935C174.705 121.385 175.917 123.834 176.15 124.049C176.282 124.172 176.612 124.777 176.883 125.396C177.877 127.666 185.085 135.17 186.272 135.17C186.501 135.17 187.046 135.565 187.484 136.049C187.921 136.532 188.453 136.821 188.665 136.69C188.877 136.559 189.05 136.676 189.05 136.949C189.05 137.223 189.25 137.323 189.495 137.172C189.74 137.02 189.94 137.12 189.94 137.394C189.94 137.668 190.14 137.768 190.385 137.616C190.629 137.465 190.829 137.521 190.829 137.741C190.829 137.961 191.68 138.393 192.72 138.7C193.759 139.007 195.251 139.532 196.035 139.866C202.213 142.499 218.625 142.571 231.308 140.02C237.25 138.825 250.671 133.253 251.82 131.505C251.97 131.277 252.23 131.12 252.399 131.156C253.366 131.362 263.781 121.134 263.781 119.978C263.781 119.77 263.981 119.601 264.225 119.601C264.509 119.601 264.67 123.308 264.67 129.832V140.063H287.467H310.265L310.151 71.1152L310.037 2.16738H284.685H259.332L259.28 41.2007C259.251 62.6693 259.251 80.3844 259.28 80.5677C259.309 80.7509 259.12 80.9013 258.861 80.9013C258.602 80.9013 258.497 81.0748 258.628 81.2865C258.759 81.4987 258.476 82.0258 257.998 82.4582C257.52 82.8906 257.236 83.4177 257.368 83.6298C257.498 83.8416 257.393 84.0151 257.134 84.0151C256.876 84.0151 256.663 84.3055 256.663 84.6601C256.663 85.015 256.345 85.4834 255.956 85.7009C255.567 85.9185 255.313 86.1787 255.392 86.2792C255.47 86.3793 254.087 87.9033 252.317 89.6652C250.549 91.4272 249.101 92.7679 249.101 92.6451C249.101 92.5219 248.451 92.9098 247.656 93.5063C245.587 95.0587 242.115 96.6961 239.565 97.3211C236.828 97.9919 231.915 97.8691 230.364 97.0911C229.722 96.7691 229.072 96.6312 228.918 96.7846C228.765 96.9377 228.639 96.818 228.639 96.5182C228.639 96.2184 228.439 96.0965 228.195 96.2477C227.95 96.399 227.75 96.3105 227.75 96.0516C227.75 95.7927 227.53 95.5805 227.261 95.5805C226.373 95.5805 222.871 91.4717 221.764 89.1301C221.165 87.865 220.467 85.5462 220.213 83.9768C219.917 82.1553 219.748 66.8524 219.747 41.6455L219.743 2.16738H194.61H169.478L169.389 47.8731ZM559.144 43.1139C560.245 43.4342 561.246 43.7198 561.368 43.7478C561.49 43.7758 562.491 44.2811 563.592 44.8705C564.693 45.4599 565.718 45.9514 565.869 45.9626C566.326 45.9959 569.071 48.1275 570.262 49.373C575.413 54.7621 577.88 62.4228 577.621 72.2272C577.55 74.9184 577.384 77.5206 577.251 78.0099C576.526 80.6993 576.18 82.6655 576.396 82.8812C576.53 83.0155 576.385 83.1254 576.074 83.1254C575.759 83.1254 575.619 83.415 575.758 83.7784C575.896 84.1374 575.814 84.5515 575.576 84.6988C575.338 84.846 575.258 85.1525 575.399 85.3802C575.54 85.608 575.466 85.7944 575.236 85.7944C575.005 85.7944 574.711 86.1992 574.581 86.6942C574.228 88.0456 574.161 88.1706 573.292 89.1034C572.85 89.5776 572.489 90.1474 572.489 90.3698C572.489 90.9236 566.763 96.4701 566.191 96.4701C565.938 96.4701 565.1 96.9199 564.328 97.4692C563.556 98.0186 562.825 98.4429 562.703 98.4123C562.58 98.3811 562.05 98.5195 561.526 98.7192C557.895 100.099 549.518 100.235 546.578 98.9603C545.66 98.5631 544.91 98.3647 544.91 98.5203C544.91 98.676 544.641 98.5804 544.313 98.3077C543.984 98.0355 543.584 97.9439 543.423 98.1049C543.262 98.2659 543.13 98.1525 543.13 97.8527C543.13 97.5529 542.93 97.431 542.686 97.5822C542.441 97.7335 542.241 97.6116 542.241 97.3118C542.241 97.0119 542.124 96.8838 541.98 97.0266C541.838 97.1699 541.331 96.9528 540.854 96.5449C540.378 96.137 539.894 95.8532 539.78 95.9141C539.529 96.048 538.401 95.0792 536.02 92.6891C533.235 89.8934 533.104 89.7168 531.899 87.1288C529.464 81.899 528.847 79.2123 528.582 72.672C528.36 67.174 528.445 66.0015 529.312 62.6635C529.852 60.5839 530.339 58.6823 530.395 58.4377C530.45 58.193 530.729 57.5689 531.015 57.0503C531.3 56.532 531.407 55.9818 531.253 55.827C531.098 55.6726 531.217 55.5463 531.517 55.5463C531.817 55.5463 531.939 55.3461 531.787 55.1015C531.636 54.8568 531.736 54.6567 532.01 54.6567C532.283 54.6567 532.383 54.4565 532.232 54.2118C532.081 53.9672 532.169 53.767 532.428 53.767C532.687 53.767 532.899 53.4654 532.899 53.0962C532.899 52.5264 537.269 47.8713 539.183 46.4029C540.702 45.2371 544.991 43.4622 547.605 42.9186C551.006 42.2109 556.352 42.3012 559.144 43.1139Z" fill="#BEFAC1"/>
</svg>
