<svg width="120" height="120" viewBox="0 0 120 120" fill="none" xmlns="http://www.w3.org/2000/svg">
<circle cx="60" cy="60" r="60" fill="#9AD1D4"/>
<path fill-rule="evenodd" clip-rule="evenodd" d="M62.3337 89H62.3338V81.9877C62.3338 81.9877 62.3337 81.9877 62.3337 81.9877V89ZM65.4869 81.3041C66.2718 81.0502 67.0215 80.738 67.736 80.3674C70.0016 79.1888 71.7787 77.611 73.0675 75.632C74.3563 73.6552 75.0008 71.4666 75.0008 69.0658C75.0008 65.9104 73.9801 63.3665 71.9348 61.4334C69.8894 59.4982 66.6447 57.9995 62.2027 56.9331C59.7104 56.3095 57.8001 55.6318 56.4678 54.9001C55.1333 54.1664 54.2123 53.3533 53.7009 52.4657C53.1896 51.576 52.9339 50.6637 52.9339 49.7324C52.9339 48.2233 53.512 46.9328 54.6676 45.8665C55.605 44.9984 56.8963 44.483 58.5394 44.3202C56.8963 44.483 55.6051 44.9984 54.6677 45.8665C53.5121 46.9328 52.934 48.2233 52.934 49.7324C52.934 50.6637 53.1897 51.576 53.701 52.4657C54.2124 53.3533 55.1334 54.1664 56.4679 54.9001C57.8002 55.6318 59.7105 56.3095 62.2028 56.9331C66.6448 57.9995 69.8895 59.4982 71.9349 61.4334C73.9802 63.3665 75.0009 65.9104 75.0009 69.0658C75.0009 71.4666 74.3564 73.6552 73.0676 75.632C71.7788 77.611 70.0017 79.1888 67.7361 80.3674C67.0216 80.738 66.2718 81.0502 65.4869 81.3041ZM50.5333 69.2672H50.5332C51.1834 70.3218 51.8562 71.2404 52.5519 72.0225C53.3797 72.953 54.2399 73.6902 55.1333 74.2335C55.8653 74.6786 56.6287 75.0243 57.4229 75.2711C56.6287 75.0244 55.8654 74.6785 55.1334 74.2335C54.24 73.6902 53.3797 72.9531 52.5519 72.0225C51.8562 71.2404 51.1835 70.3218 50.5333 69.2672ZM60.1708 75.7262C60.2918 75.7301 60.4134 75.7321 60.5356 75.7321C60.5356 75.7321 60.5356 75.7321 60.5357 75.7321C60.4134 75.7321 60.2918 75.7301 60.1708 75.7262ZM62.3337 37.9205C62.3337 37.9205 62.3338 37.9205 62.3338 37.9205V31H62.3337V37.9205ZM63.0996 38.0184C64.9887 38.2989 66.7002 38.8479 68.2349 39.6637C70.5671 40.9108 72.5563 42.8212 74.2004 45.3986L68.6028 48.9986C68.6028 48.9986 68.6029 48.9986 68.6029 48.9986L74.2005 45.3986C74.1718 45.3536 74.143 45.3088 74.114 45.2642C73.7716 44.7361 73.4144 44.2365 73.0425 43.7654C71.6471 41.9978 70.0442 40.6312 68.235 39.6637C67.0416 39.0293 65.7414 38.5563 64.3338 38.2454C63.9312 38.1565 63.5198 38.0808 63.0996 38.0184ZM50.6038 81.8713C52.0158 82.6143 53.4833 83.1733 55.002 83.5495V91H64.3338V83.68C65.8646 83.3518 67.3084 82.8423 68.657 82.1427L68.6591 82.1417C71.2044 80.8176 73.2514 79.0146 74.7435 76.7235C76.2476 74.4161 77.0009 71.8471 77.0009 69.0658C77.0009 65.4349 75.8048 62.339 73.3086 59.9799C70.8984 57.6999 67.2657 56.0927 62.6794 54.9907C60.2617 54.3853 58.5441 53.7585 57.4314 53.1475C56.2762 52.5124 55.6964 51.9225 55.4343 51.4679C55.0799 50.8508 54.934 50.2795 54.934 49.7324C54.934 48.8067 55.2599 48.0414 56.024 47.3364L56.0267 47.3339C56.6817 46.7273 57.8064 46.2639 59.7331 46.2639C61.024 46.2639 62.2479 46.5119 63.4248 47.0084C64.3909 47.4158 65.6037 48.3906 67.0211 50.2225L68.1429 51.6724L76.9582 46.003L75.8867 44.3231C74.0865 41.5009 71.8564 39.3322 69.1781 37.9L69.1737 37.8977C67.6828 37.1051 66.0659 36.5438 64.3338 36.2024V29H55.002V36.4165C53.8775 36.7185 52.8151 37.1341 51.8201 37.6695L51.8181 37.6706C49.4976 38.9227 47.6556 40.6477 46.3495 42.8415C45.0374 45.0442 44.401 47.5154 44.401 50.2004C44.401 52.2079 44.8662 54.1282 45.7854 55.9376C46.7117 57.7671 48.1992 59.2948 50.1139 60.5525C50.2208 60.6227 50.329 60.6921 50.4386 60.7606C52.5541 62.0851 55.3002 63.0629 58.5894 63.7559L58.5991 63.7579L58.6089 63.7599C61.1815 64.2751 62.9025 64.9056 63.9314 65.5555C65.0789 66.2831 65.6222 66.9324 65.8481 67.4245C66.1847 68.1739 66.3346 68.8729 66.3346 69.5336C66.3346 70.5698 65.9328 71.4925 64.898 72.3821C63.923 73.2204 62.5395 73.7321 60.5357 73.7321C58.9388 73.7321 57.4972 73.3301 56.1725 72.5246C54.8873 71.7431 53.5587 70.3634 52.2358 68.2176L51.484 66.9981L51.2247 66.5775L42.4004 71.5735L43.1906 73.2519C45.0777 77.2598 47.5075 80.2407 50.6038 81.8713Z" fill="#2C2C3C"/>
</svg>
