<svg width="120" height="120" viewBox="0 0 120 120" fill="none" xmlns="http://www.w3.org/2000/svg">
<circle cx="60" cy="60" r="60" fill="#9AD1D4"/>
<path d="M69.3287 60.0826C69.2667 54.733 65.097 50.6038 59.8011 50.6505C54.618 50.6962 50.3924 55.0122 50.4725 60.1781C50.5558 65.4617 54.8312 69.6062 60.1179 69.526C65.3102 69.4478 69.3886 65.2678 69.3287 60.0826ZM46.1464 39.6274C46.791 39.9756 47.4256 40.2772 48.0165 40.6477C48.509 40.9564 49.0329 41.2762 49.3984 41.7128C50.7731 43.3505 52.2625 42.9231 53.755 41.9991C54.0677 41.8052 54.3195 41.3412 54.3916 40.9625C54.6271 39.7289 54.7459 38.474 54.949 37.2333C55.1764 35.8433 55.9978 35.0829 57.4141 35.0402C59.1189 34.9895 60.8276 34.9824 62.5313 35.0443C63.8359 35.091 64.7304 35.7682 64.9863 37.1115C65.231 38.3897 65.4249 39.6781 65.6746 40.9554C65.9376 42.2926 68.5002 43.3271 69.5987 42.5484C70.5511 41.8742 71.4771 41.1615 72.4355 40.4954C73.6712 39.6375 74.6286 39.6517 75.72 40.664C77.0034 41.8549 78.24 43.0997 79.4381 44.3769C80.429 45.4349 80.4666 46.4756 79.6218 47.6716C78.9222 48.6615 78.1487 49.5986 77.4359 50.5805C76.6501 51.6648 77.7882 54.2548 79.1122 54.4427C80.2675 54.6071 81.424 54.7625 82.5744 54.9584C84.0536 55.2102 84.678 55.9585 84.677 57.4276C84.677 59.1353 84.6922 60.8441 84.6567 62.5509C84.6242 64.0809 83.8303 64.9754 82.3397 65.2191C81.4991 65.3561 80.6544 65.5033 79.8056 65.5541C78.4938 65.6322 77.637 66.0841 77.1679 67.474C76.8085 68.538 76.7708 69.2904 77.5516 70.1291C78.2217 70.8479 78.7771 71.6774 79.3518 72.4805C80.2127 73.6836 80.2056 74.6857 79.2025 75.772C78.0156 77.0574 76.7719 78.2961 75.4936 79.4931C74.4144 80.5044 73.4082 80.5328 72.205 79.6932C71.5431 79.2312 70.8303 78.7997 70.2882 78.2169C69.146 76.9904 67.9935 77.0128 66.6026 77.7783C65.9295 78.1499 65.435 78.4088 65.3893 79.287C65.3304 80.4039 65.0969 81.5105 64.9314 82.6213C64.6959 84.2011 63.9171 84.9372 62.3414 84.9737C60.726 85.0103 59.1087 85.0062 57.4923 84.9768C55.9511 84.9484 55.0739 84.2042 54.7835 82.6974C54.6302 81.9055 54.4515 81.0963 54.4617 80.2983C54.483 78.7388 53.821 77.8626 52.3153 77.3925C51.4533 77.1224 50.836 77.0635 50.1274 77.691C49.2897 78.4332 48.3587 79.0718 47.4531 79.7348C46.3463 80.547 45.2458 80.4496 44.2762 79.5327C42.9715 78.2992 41.7004 77.027 40.4657 75.7223C39.5814 74.7872 39.5408 73.7059 40.2505 72.6409C40.6983 71.9688 41.2191 71.3464 41.7054 70.7017C43.1106 68.8386 43.1827 68.1228 41.9521 66.2008C41.7359 65.8627 41.1704 65.6566 40.7307 65.5734C39.5428 65.347 38.3265 65.2698 37.1396 65.0413C35.704 64.7642 35.0583 63.9773 35.0258 62.5153C34.9902 60.8979 34.9933 59.2785 35.0237 57.6611C35.0532 56.1503 35.8512 55.2335 37.3224 54.9584C38.2473 54.7858 39.1794 54.6477 40.1073 54.4873C41.8415 54.1857 42.8081 53.2293 43.0274 51.4769C43.0689 51.1429 42.8355 50.7216 42.6202 50.418C41.9186 49.4301 41.1653 48.4777 40.4353 47.5102C39.6484 46.4654 39.6474 45.372 40.5104 44.4348C41.8181 43.0154 43.2071 41.6691 44.6173 40.3513C44.9808 40.0122 45.5534 39.8985 46.1464 39.6274Z" fill="#2C2C3C"/>
</svg>
